<?xml version="1.0" encoding="UTF-8" standalone="no"?>
<!-- Created with Inkscape (http://www.inkscape.org/) -->

<svg
   width="236.22mm"
   height="103.76026mm"
   viewBox="0 0 236.22 103.76026"
   version="1.1"
   id="svg5"
   inkscape:version="1.1.2 (b8e25be833, 2022-02-05)"
   sodipodi:docname="Free Software Foundation (FSF).svg"
   xmlns:inkscape="http://www.inkscape.org/namespaces/inkscape"
   xmlns:sodipodi="http://sodipodi.sourceforge.net/DTD/sodipodi-0.dtd"
   xmlns="http://www.w3.org/2000/svg"
   xmlns:svg="http://www.w3.org/2000/svg">
  <sodipodi:namedview
     id="namedview7"
     pagecolor="#ffffff"
     bordercolor="#666666"
     borderopacity="1.0"
     inkscape:pageshadow="2"
     inkscape:pageopacity="0.0"
     inkscape:pagecheckerboard="0"
     inkscape:document-units="mm"
     showgrid="false"
     inkscape:zoom="0.32026164"
     inkscape:cx="-754.07094"
     inkscape:cy="505.83641"
     inkscape:window-width="1920"
     inkscape:window-height="1017"
     inkscape:window-x="-8"
     inkscape:window-y="-8"
     inkscape:window-maximized="1"
     inkscape:current-layer="layer1" />
  <defs
     id="defs2" />
  <g
     inkscape:label="Layer 1"
     inkscape:groupmode="layer"
     id="layer1"
     transform="translate(-5.0357269,-4.2888695)">
    <g
       id="g880"
       transform="matrix(0.26458333,0,0,0.26458333,5.0357269,3.4807717)">
      <path
         d="m 751.955,11.813 c 0.858,0.429 -1.074,10.305 -61.406,12.452 -3.657,0.128 -39.54,2.537 -43.37,2.577 -39.721,0.429 -86.741,6.871 -120.234,14.814 -39.748,9.427 -86.097,24.047 -111.862,40.795 -10.608,6.896 -28.287,19.497 -32.85,31.776 -6.226,16.747 11.38,31.131 22.544,32.85 16.613,2.556 36.52,-0.457 53.462,-2.577 10.306,-1.289 25.859,-4.63 34.997,-5.368 7.944,-0.644 14.357,0.161 22.544,1.503 14.385,2.363 30.918,14.6 36.929,28.341 6.38,14.587 4.482,30.663 -1.717,44.015 -5.583,12.023 -18.774,23.737 -31.132,32.205 -11.595,7.945 -28.656,15.728 -42.942,21.901 -31.776,13.741 -66.558,23.188 -100.2,33.922 -13.451,4.295 -45.799,11.811 -72.852,17.177 -17.061,3.382 -35.016,6.563 -51.958,9.019 -29.63,4.293 -60.171,7.862 -89.532,10.735 -15.198,1.476 -39.741,3.583 -39.976,-3.529 0,0 -36,10.397 -36,10.397 0.523,6.229 17.434,10.192 41.059,9.787 93.625,-1.528 395.861,-13.043 462.493,-102.548 7.139,-9.619 14.599,-32.969 14.848,-58.438 l -28.8,-64.8 c -17.973,-13.735 -46.426,-26.926 -94.708,-13.152 -24.295,6.938 -73.839,27.522 -82.607,18.164 -8.274,-8.824 -1.404,-22.652 62.237,-52.355 16.09,-7.488 78.354,-33.655 189.343,-44.135 l 1.664,-0.034 C 721.815,33.275 747.507,31.214 761.858,26.659 766.474,25.196 781.423,16.89 780.1,9.718 779.531,6.483 772.332,2.142 765.768,3.223 749.485,5.792 741.533,5.283 626.165,4.424 598.91,4.229 595.448,3.478 528.635,4.336 468.102,5.081 398.068,11.152 338.4,42.419 c 0,0 -55.781,36.128 -55.781,36.128 -13.521,14.406 -24.807,31.716 -28.846,48.704 -4.039,16.988 -0.201,3.322 -0.201,3.322 0,0 34.428,59.848 34.428,59.848 1.074,0 6.722,1.906 12.001,4.32 7.818,3.57 20.336,7.677 28.771,9.448 12.238,2.577 24.906,6.442 34.353,1.932 5.038,-2.4 15.888,-12.452 15.244,-18.463 -0.711,-6.623 -12.01,-8.475 -18.894,-9.877 -11.594,-2.362 -29.69,-1.141 -44.444,-3.435 -16.25,-2.517 -29.353,-8.401 -35.212,-21.685 -5.435,-12.339 -1.502,-27.054 6.657,-39.935 7.185,-11.353 15.209,-20.632 25.764,-28.986 20.611,-16.318 46.867,-30.192 73.215,-41.223 27.696,-11.594 61.19,-21.685 93.61,-24.691 32.085,-2.972 66.559,-3.865 99.409,-3.006 27.751,0.725 78.367,0 83.09,0.43 4.724,0.429 88.746,-4.254 90.391,-3.435"
         id="path1"
         style="fill:#b11107" />
      <path
         d="M 264.00001,128.819 H 0 v 64.8 c 0,0 300.00001,0 300.00001,0 m 44,-151.2 H 72 v 36 c 0,0 240.00001,0.128 240.00001,0.128 m 248,50.272 v 64.8 c 0,0 332.79999,0 332.79999,0 v -64.8 z M 604.8,244.02 h 252 v 36 h -252 z"
         id="path2"
         style="fill:#b11107" />
      <path
         d="m 122.4,28.019 h -36 v 316.799 c 0,0 36,0.001 36,0.001 m 496.8,-223.2 v 273.6 H 648 v -273.6 z"
         id="path3"
         style="fill:#b11107" />
    </g>
  </g>
</svg>
