<?xml version="1.0" encoding="UTF-8"?>
<!DOCTYPE svg PUBLIC "-//W3C//DTD SVG 1.1//EN" "http://www.w3.org/Graphics/SVG/1.1/DTD/svg11.dtd">
<svg xmlns="http://www.w3.org/2000/svg" version="1.1" width="318px" height="174px" style="shape-rendering:geometricPrecision; text-rendering:geometricPrecision; image-rendering:optimizeQuality; fill-rule:evenodd; clip-rule:evenodd" xmlns:xlink="http://www.w3.org/1999/xlink">
<g><path style="opacity:1" fill="#000000" d="M -0.5,-0.5 C 105.5,-0.5 211.5,-0.5 317.5,-0.5C 317.5,20.5 317.5,41.5 317.5,62.5C 316.833,62.5 316.167,62.5 315.5,62.5C 315.854,52.2359 313.187,42.9026 307.5,34.5C 302.738,31.6795 299.238,27.6795 297,22.5C 294.436,20.2728 291.603,18.4394 288.5,17C 280.956,5.31047 270.123,-0.189526 256,0.5C 243.279,0.614761 232.113,4.78143 222.5,13C 208.046,28.1996 197.379,45.6996 190.5,65.5C 184.158,79.4099 181.991,94.0765 184,109.5C 186.053,113.097 186.886,116.763 186.5,120.5C 188.859,125.853 191.859,131.187 195.5,136.5C 198.725,143.282 202.225,149.949 206,156.5C 211.004,162.336 216.171,168.003 221.5,173.5C 179.833,173.5 138.167,173.5 96.5,173.5C 102.77,169.692 109.103,165.859 115.5,162C 119.814,156.933 123.981,151.767 128,146.5C 131.991,139.189 133.491,131.689 132.5,124C 134.136,113.87 135.803,103.704 137.5,93.5C 136.637,90.7675 135.471,88.1008 134,85.5C 133.238,79.091 132.238,72.7577 131,66.5C 125.264,60.0283 120.264,53.0283 116,45.5C 112.303,40.6377 108.136,36.3043 103.5,32.5C 100.789,28.7881 97.4558,25.7881 93.5,23.5C 82.7392,14.8228 70.4059,11.9895 56.5,15C 31.1404,22.2311 14.4737,38.3977 6.5,63.5C 1.90626,68.6773 -0.427078,74.6773 -0.5,81.5C -0.5,54.1667 -0.5,26.8333 -0.5,-0.5 Z"/></g>
<g><path style="opacity:1" fill="#50404d" d="M 315.5,62.5 C 314.167,62.5 312.833,62.5 311.5,62.5C 311.768,64.099 311.434,65.4324 310.5,66.5C 310.666,58.4931 310.5,50.4931 310,42.5C 309.653,40.8198 308.653,39.8198 307,39.5C 289.163,52.5032 269.663,61.8366 248.5,67.5C 247.167,67.5 245.833,67.5 244.5,67.5C 243.508,67.3284 242.842,67.6618 242.5,68.5C 241.229,66.8914 240.229,65.0581 239.5,63C 237.893,63.0187 236.226,63.1854 234.5,63.5C 234.859,61.629 235.859,60.129 237.5,59C 239.833,58.6667 242.167,58.3333 244.5,58C 250.443,56.2766 256.109,54.11 261.5,51.5C 273.238,47.9831 283.905,42.4831 293.5,35C 295.577,34.8078 297.577,34.3078 299.5,33.5C 298.754,32.2638 298.421,30.9305 298.5,29.5C 296.801,29.3398 295.134,29.5065 293.5,30C 291.983,31.6851 290.316,33.1851 288.5,34.5C 287.369,32.9255 287.202,31.2588 288,29.5C 289.919,27.3089 291.253,24.9755 292,22.5C 283.101,17.0897 273.435,14.0897 263,13.5C 258.515,13.6923 254.348,14.6923 250.5,16.5C 247.833,17.5 245.167,18.5 242.5,19.5C 241.833,19.5 241.5,19.1667 241.5,18.5C 242.749,16.8639 244.416,15.6972 246.5,15C 242.264,14.2572 240.597,11.7572 241.5,7.5C 240.209,7.26269 239.209,7.59603 238.5,8.5C 222.233,19.6621 211.9,34.9954 207.5,54.5C 205.095,59.1119 203.762,64.1119 203.5,69.5C 200.597,79.6457 199.93,89.979 201.5,100.5C 203.246,98.1459 205.579,97.1459 208.5,97.5C 208.98,88.3564 210.314,79.3564 212.5,70.5C 209.708,70.3775 207.708,69.0442 206.5,66.5C 206.207,63.2457 206.874,60.2457 208.5,57.5C 209.5,56.8333 210.5,56.1667 211.5,55.5C 212.93,55.4208 214.264,55.7542 215.5,56.5C 217.699,51.896 219.699,47.2293 221.5,42.5C 223.22,41.2493 223.553,39.7493 222.5,38C 223.448,37.5172 224.448,37.3505 225.5,37.5C 225.617,35.5165 224.95,33.8498 223.5,32.5C 223.624,31.8933 223.957,31.56 224.5,31.5C 224.833,32.5 225.5,33.1667 226.5,33.5C 227.551,34.2223 228.218,35.2223 228.5,36.5C 224.781,41.2708 222.115,46.6042 220.5,52.5C 218.087,58.876 216.42,65.5426 215.5,72.5C 213.891,75.1489 213.057,78.1489 213,81.5C 212.5,88.4921 212.334,95.4921 212.5,102.5C 212.358,110.208 212.858,117.875 214,125.5C 215.274,128.939 216.774,132.272 218.5,135.5C 216.304,137.545 213.97,137.878 211.5,136.5C 210.833,136.167 210.167,135.833 209.5,135.5C 211.179,133.305 212.179,130.805 212.5,128C 212.259,124.938 211.592,122.105 210.5,119.5C 209.612,116.946 209.279,114.279 209.5,111.5C 205.853,111.378 203.019,109.712 201,106.5C 201.351,112.139 201.851,117.806 202.5,123.5C 201.252,120.058 200.419,116.392 200,112.5C 199.51,113.793 199.343,115.127 199.5,116.5C 198.506,106.013 198.172,95.3464 198.5,84.5C 199.369,82.283 199.702,79.9496 199.5,77.5C 201.652,68.9246 203.486,60.258 205,51.5C 207.655,43.8538 211.155,36.5204 215.5,29.5C 215.167,29.1667 214.833,28.8333 214.5,28.5C 204.402,43.1897 198.735,59.5231 197.5,77.5C 195.767,87.9469 195.101,98.6136 195.5,109.5C 195.5,110.833 195.5,112.167 195.5,113.5C 194.833,104.833 194.167,96.1667 193.5,87.5C 193.5,84.5 193.5,81.5 193.5,78.5C 195.335,68.8593 198.002,59.3593 201.5,50C 200.668,49.3123 200.002,49.479 199.5,50.5C 195.556,59.0334 192.223,67.7001 189.5,76.5C 189.67,75.1779 189.337,74.0113 188.5,73C 189.867,70.6985 190.534,68.1985 190.5,65.5C 197.379,45.6996 208.046,28.1996 222.5,13C 232.113,4.78143 243.279,0.614761 256,0.5C 270.123,-0.189526 280.956,5.31047 288.5,17C 291.603,18.4394 294.436,20.2728 297,22.5C 299.238,27.6795 302.738,31.6795 307.5,34.5C 313.187,42.9026 315.854,52.2359 315.5,62.5 Z"/></g>
<g><path style="opacity:1" fill="#ac9fa9" d="M 238.5,8.5 C 239.209,7.59603 240.209,7.26269 241.5,7.5C 240.597,11.7572 242.264,14.2572 246.5,15C 244.416,15.6972 242.749,16.8639 241.5,18.5C 237.765,20.7246 234.432,23.558 231.5,27C 228.881,26.9167 226.214,26.75 223.5,26.5C 228.289,21.205 233.789,16.8717 240,13.5C 240.167,12.6667 240.333,11.8333 240.5,11C 240.316,9.62439 239.649,8.79106 238.5,8.5 Z"/></g>
<g><path style="opacity:1" fill="#877783" d="M 245.5,6.5 C 246.833,6.5 248.167,6.5 249.5,6.5C 249.5,7.83333 249.5,9.16667 249.5,10.5C 247.5,10.8333 245.5,11.1667 243.5,11.5C 243.365,9.4458 244.032,7.77914 245.5,6.5 Z"/></g>
<g><path style="opacity:1" fill="#9e8f9a" d="M 270.5,6.5 C 275.067,7.54917 278.734,10.0492 281.5,14C 277.952,13.2404 274.285,12.5738 270.5,12C 269.862,10.2933 269.862,8.46001 270.5,6.5 Z"/></g>
<g><path style="opacity:1" fill="#91828d" d="M 264.5,6.5 C 267.957,6.66721 268.29,7.66721 265.5,9.5C 264.614,8.67504 264.281,7.67504 264.5,6.5 Z"/></g>
<g><path style="opacity:1" fill="#a699a3" d="M 250.5,4.5 C 254.5,4.5 258.5,4.5 262.5,4.5C 262.5,6.83333 262.5,9.16667 262.5,11.5C 259.091,11.2493 255.758,11.5827 252.5,12.5C 251.619,9.86966 250.952,7.20299 250.5,4.5 Z"/></g>
<g><path style="opacity:1" fill="#dcd2d9" d="M 267.5,17.5 C 267.751,19.1703 268.418,20.6703 269.5,22C 268.234,22.3095 267.067,22.8095 266,23.5C 265,23.1667 264,22.8333 263,22.5C 262.131,25.7626 260.797,26.0959 259,23.5C 258.259,24.6405 257.425,24.6405 256.5,23.5C 253.945,24.7602 251.445,26.0936 249,27.5C 247.984,26.3659 247.317,26.6992 247,28.5C 245.913,26.0684 245.413,26.4017 245.5,29.5C 243.799,29.9662 242.299,29.9662 241,29.5C 240.316,31.359 239.316,33.0257 238,34.5C 235.314,35.6759 232.981,37.3425 231,39.5C 230.51,38.2068 230.343,36.8734 230.5,35.5C 230.557,34.391 230.89,33.391 231.5,32.5C 235.631,28.8704 239.631,25.037 243.5,21C 246.239,19.9741 248.572,18.4741 250.5,16.5C 253.647,16.0774 256.814,15.7441 260,15.5C 262.866,15.2999 265.366,15.9666 267.5,17.5 Z"/></g>
<g><path style="opacity:1" fill="#aea1aa" d="M 250.5,16.5 C 248.572,18.4741 246.239,19.9741 243.5,21C 239.631,25.037 235.631,28.8704 231.5,32.5C 234.768,27.8927 238.435,23.5594 242.5,19.5C 245.167,18.5 247.833,17.5 250.5,16.5 Z"/></g>
<g><path style="opacity:1" fill="#cec3cb" d="M 267.5,17.5 C 270.999,20.191 271.499,23.5243 269,27.5C 267.383,28.8513 266.216,30.518 265.5,32.5C 259.345,34.7476 253.345,37.2476 247.5,40C 244.344,40.6029 241.344,40.1029 238.5,38.5C 234.5,42.1667 230.5,45.8333 226.5,49.5C 225.359,47.5787 225.192,45.5787 226,43.5C 228.022,41.6066 229.188,39.2733 229.5,36.5C 229.5,35.8333 229.833,35.5 230.5,35.5C 230.343,36.8734 230.51,38.2068 231,39.5C 232.981,37.3425 235.314,35.6759 238,34.5C 239.316,33.0257 240.316,31.359 241,29.5C 242.299,29.9662 243.799,29.9662 245.5,29.5C 245.413,26.4017 245.913,26.0684 247,28.5C 247.317,26.6992 247.984,26.3659 249,27.5C 251.445,26.0936 253.945,24.7602 256.5,23.5C 257.425,24.6405 258.259,24.6405 259,23.5C 260.797,26.0959 262.131,25.7626 263,22.5C 264,22.8333 265,23.1667 266,23.5C 267.067,22.8095 268.234,22.3095 269.5,22C 268.418,20.6703 267.751,19.1703 267.5,17.5 Z"/></g>
<g><path style="opacity:1" fill="#614f5c" d="M 241.5,18.5 C 241.5,19.1667 241.833,19.5 242.5,19.5C 238.435,23.5594 234.768,27.8927 231.5,32.5C 230.89,33.391 230.557,34.391 230.5,35.5C 229.833,35.5 229.5,35.8333 229.5,36.5C 229.167,36.5 228.833,36.5 228.5,36.5C 228.218,35.2223 227.551,34.2223 226.5,33.5C 227.586,33.38 228.253,32.7133 228.5,31.5C 228.457,30.5836 228.124,29.9169 227.5,29.5C 226.292,28.218 224.958,28.218 223.5,29.5C 223.863,30.1835 224.196,30.8501 224.5,31.5C 223.957,31.56 223.624,31.8933 223.5,32.5C 224.95,33.8498 225.617,35.5165 225.5,37.5C 224.448,37.3505 223.448,37.5172 222.5,38C 223.553,39.7493 223.22,41.2493 221.5,42.5C 219.908,39.0336 219.242,35.3669 219.5,31.5C 220.124,29.246 221.457,27.5794 223.5,26.5C 226.214,26.75 228.881,26.9167 231.5,27C 234.432,23.558 237.765,20.7246 241.5,18.5 Z"/></g>
<g><path style="opacity:1" fill="#e3bc3f" d="M 33.5,53.5 C 32.1049,57.2901 30.4383,60.9568 28.5,64.5C 28.1667,64.5 27.8333,64.5 27.5,64.5C 28.7487,60.6906 30.082,56.8573 31.5,53C 31.1667,52.6667 30.8333,52.3333 30.5,52C 31.1667,49.6667 31.8333,47.3333 32.5,45C 29.8333,44.3333 29.8333,43.6667 32.5,43C 27.9321,40.9336 24.2654,41.9336 21.5,46C 22.4506,46.7175 22.6172,47.5509 22,48.5C 18.2626,49.4372 16.0959,51.7706 15.5,55.5C 14.8333,55.8333 14.1667,56.1667 13.5,56.5C 15.9756,50.2185 19.4756,44.5518 24,39.5C 24.4828,38.552 24.6495,37.552 24.5,36.5C 26.2393,33.7573 28.5726,31.7573 31.5,30.5C 35.4544,28.7886 39.2878,26.7886 43,24.5C 43.1667,24.8333 43.3333,25.1667 43.5,25.5C 40.1691,29.4916 37.3358,33.8249 35,38.5C 33.9502,43.4482 33.4502,48.4482 33.5,53.5 Z"/></g>
<g><path style="opacity:1" fill="#f1cb5c" d="M 73.5,23.5 C 75.0009,24.7515 76.6675,25.7515 78.5,26.5C 78.8417,27.3382 79.5084,27.6716 80.5,27.5C 83.0689,28.4619 85.4023,29.9619 87.5,32C 86.1667,32.6667 86.1667,33.3333 87.5,34C 86.4214,34.956 85.2547,35.7894 84,36.5C 81.9759,34.6419 79.8092,32.9752 77.5,31.5C 76.5224,31.9767 75.6891,32.6433 75,33.5C 73.9505,32.4829 72.7839,32.3162 71.5,33C 70.3333,34.1667 69.1667,35.3333 68,36.5C 66.3718,35.9034 64.7051,36.2367 63,37.5C 58.1523,37.4156 53.319,36.249 48.5,34C 47.9341,33.0053 47.2674,32.172 46.5,31.5C 49.0718,28.1433 52.0718,25.4766 55.5,23.5C 61.4866,22.2159 67.4866,22.2159 73.5,23.5 Z"/></g>
<g><path style="opacity:1" fill="#3b2c08" d="M 93.5,23.5 C 97.4558,25.7881 100.789,28.7881 103.5,32.5C 100.5,30.5 97.5,28.5 94.5,26.5C 94.5,25.8333 94.1667,25.5 93.5,25.5C 93.5,24.8333 93.5,24.1667 93.5,23.5 Z"/></g>
<g><path style="opacity:1" fill="#efc54c" d="M 80.5,24.5 C 83.4254,25.8904 85.9254,27.8904 88,30.5C 89.3097,34.5474 87.9764,37.2141 84,38.5C 80.8909,37.0288 77.7243,35.6954 74.5,34.5C 72.5283,35.3052 71.0283,36.6385 70,38.5C 68.6569,37.7865 67.3236,38.1198 66,39.5C 63.3635,39.4549 60.5302,39.2882 57.5,39C 53.7095,37.974 50.0429,36.8073 46.5,35.5C 46.7373,34.209 46.404,33.209 45.5,32.5C 45.5,31.8333 45.8333,31.5 46.5,31.5C 47.2674,32.172 47.9341,33.0053 48.5,34C 53.319,36.249 58.1523,37.4156 63,37.5C 64.7051,36.2367 66.3718,35.9034 68,36.5C 69.1667,35.3333 70.3333,34.1667 71.5,33C 72.7839,32.3162 73.9505,32.4829 75,33.5C 75.6891,32.6433 76.5224,31.9767 77.5,31.5C 79.8092,32.9752 81.9759,34.6419 84,36.5C 85.2547,35.7894 86.4214,34.956 87.5,34C 86.1667,33.3333 86.1667,32.6667 87.5,32C 85.4023,29.9619 83.0689,28.4619 80.5,27.5C 80.5,26.5 80.5,25.5 80.5,24.5 Z"/></g>
<g><path style="opacity:1" fill="#654d12" d="M 93.5,23.5 C 93.5,24.1667 93.5,24.8333 93.5,25.5C 88.9901,21.3125 83.8234,19.9792 78,21.5C 77.6666,23.0468 78.1666,24.3801 79.5,25.5C 79.3764,26.1067 79.0431,26.44 78.5,26.5C 76.6675,25.7515 75.0009,24.7515 73.5,23.5C 73.0825,22.7784 72.4158,22.2784 71.5,22C 66.4044,21.8606 62.071,21.3606 58.5,20.5C 64.5092,20.6662 70.5092,20.4995 76.5,20C 77.3279,19.0853 78.3279,18.4186 79.5,18C 76.2744,16.8011 72.941,16.3011 69.5,16.5C 63.7551,16.2111 58.0884,16.7111 52.5,18C 46.9849,20.9235 41.3182,23.5902 35.5,26C 33.3645,26.8763 32.0312,28.3763 31.5,30.5C 28.5726,31.7573 26.2393,33.7573 24.5,36.5C 19.0359,42.3235 14.7026,48.9902 11.5,56.5C 10.9164,60.334 9.24972,63.6673 6.5,66.5C 6.5,65.5 6.5,64.5 6.5,63.5C 14.4737,38.3977 31.1404,22.2311 56.5,15C 70.4059,11.9895 82.7392,14.8228 93.5,23.5 Z"/></g>
<g><path style="opacity:1" fill="#95741f" d="M 69.5,16.5 C 72.941,16.3011 76.2744,16.8011 79.5,18C 78.3279,18.4186 77.3279,19.0853 76.5,20C 70.5092,20.4995 64.5092,20.6662 58.5,20.5C 62.6845,19.8336 67.0178,19.1669 71.5,18.5C 70.7573,17.8182 70.0906,17.1515 69.5,16.5 Z"/></g>
<g><path style="opacity:1" fill="#c49f39" d="M 55.5,23.5 C 52.0718,25.4766 49.0718,28.1433 46.5,31.5C 45.8333,31.5 45.5,31.8333 45.5,32.5C 44.5,33.1667 43.5,33.8333 42.5,34.5C 45.2907,29.0451 49.624,25.3784 55.5,23.5 Z"/></g>
<g><path style="opacity:1" fill="#d8cdd5" d="M 227.5,29.5 C 227.027,30.9063 226.027,31.573 224.5,31.5C 224.196,30.8501 223.863,30.1835 223.5,29.5C 224.958,28.218 226.292,28.218 227.5,29.5 Z"/></g>
<g><path style="opacity:1" fill="#a497a0" d="M 261.5,51.5 C 258.305,52.0393 255.805,51.0393 254,48.5C 253.5,49 253,49.5 252.5,50C 253.337,51.0113 253.67,52.1779 253.5,53.5C 251.876,53.6399 250.71,52.9733 250,51.5C 247.895,52.3114 245.895,53.3114 244,54.5C 240.678,52.0202 237.344,50.3535 234,49.5C 232.941,49.6301 232.108,50.1301 231.5,51C 231.833,52 232.167,53 232.5,54C 230.321,56.5109 227.821,58.6776 225,60.5C 221.983,58.6581 220.483,55.9914 220.5,52.5C 222.115,46.6042 224.781,41.2708 228.5,36.5C 228.833,36.5 229.167,36.5 229.5,36.5C 229.188,39.2733 228.022,41.6066 226,43.5C 225.192,45.5787 225.359,47.5787 226.5,49.5C 230.5,45.8333 234.5,42.1667 238.5,38.5C 241.344,40.1029 244.344,40.6029 247.5,40C 253.345,37.2476 259.345,34.7476 265.5,32.5C 266.216,30.518 267.383,28.8513 269,27.5C 271.499,23.5243 270.999,20.191 267.5,17.5C 265.366,15.9666 262.866,15.2999 260,15.5C 256.814,15.7441 253.647,16.0774 250.5,16.5C 254.348,14.6923 258.515,13.6923 263,13.5C 273.435,14.0897 283.101,17.0897 292,22.5C 291.253,24.9755 289.919,27.3089 288,29.5C 287.202,31.2588 287.369,32.9255 288.5,34.5C 290.316,33.1851 291.983,31.6851 293.5,30C 295.134,29.5065 296.801,29.3398 298.5,29.5C 298.421,30.9305 298.754,32.2638 299.5,33.5C 297.577,34.3078 295.577,34.8078 293.5,35C 283.905,42.4831 273.238,47.9831 261.5,51.5 Z"/></g>
<g><path style="opacity:1" fill="#9e909a" d="M 227.5,29.5 C 228.124,29.9169 228.457,30.5836 228.5,31.5C 228.253,32.7133 227.586,33.38 226.5,33.5C 225.5,33.1667 224.833,32.5 224.5,31.5C 226.027,31.573 227.027,30.9063 227.5,29.5 Z"/></g>
<g><path style="opacity:1" fill="#cca73f" d="M 69.5,16.5 C 70.0906,17.1515 70.7573,17.8182 71.5,18.5C 67.0178,19.1669 62.6845,19.8336 58.5,20.5C 62.071,21.3606 66.4044,21.8606 71.5,22C 72.4158,22.2784 73.0825,22.7784 73.5,23.5C 67.4866,22.2159 61.4866,22.2159 55.5,23.5C 55.6107,22.8826 55.944,22.3826 56.5,22C 54.8333,21.3333 53.1667,21.3333 51.5,22C 40.5989,29.7265 34.5989,40.2265 33.5,53.5C 33.4502,48.4482 33.9502,43.4482 35,38.5C 37.3358,33.8249 40.1691,29.4916 43.5,25.5C 43.3333,25.1667 43.1667,24.8333 43,24.5C 39.2878,26.7886 35.4544,28.7886 31.5,30.5C 32.0312,28.3763 33.3645,26.8763 35.5,26C 41.3182,23.5902 46.9849,20.9235 52.5,18C 58.0884,16.7111 63.7551,16.2111 69.5,16.5 Z"/></g>
<g><path style="opacity:1" fill="#dbab24" d="M 91.5,27.5 C 94.0562,28.5434 96.2228,30.2101 98,32.5C 99.1395,36.1122 100.806,39.4456 103,42.5C 103.494,44.1341 103.66,45.8008 103.5,47.5C 104.5,47.5 105.5,47.5 106.5,47.5C 106.5,48.5 106.5,49.5 106.5,50.5C 103.161,50.8897 99.8273,51.3897 96.5,52C 95.244,52.4169 94.5774,53.2502 94.5,54.5C 88.1156,58.3414 85.7823,64.008 87.5,71.5C 87.5172,73.5648 87.8505,75.5648 88.5,77.5C 87.1516,78.6006 85.6516,79.6006 84,80.5C 83.6667,80.1667 83.3333,79.8333 83,79.5C 81.951,81.1066 80.451,81.7733 78.5,81.5C 78.2413,78.7282 77.2413,76.3949 75.5,74.5C 75.5,74.1667 75.5,73.8333 75.5,73.5C 74.7974,71.2843 73.4641,69.451 71.5,68C 68.594,65.3805 65.2607,63.5472 61.5,62.5C 57.3537,61.353 53.0204,61.1864 48.5,62C 44.9212,63.4098 42.5878,65.9098 41.5,69.5C 40.0221,70.4475 39.0221,71.7809 38.5,73.5C 37.6414,76.2116 36.4748,78.8782 35,81.5C 33.1879,80.0229 31.3545,78.6896 29.5,77.5C 29.4596,72.6401 30.7929,68.3068 33.5,64.5C 33.9382,64.4346 34.2716,64.6012 34.5,65C 33.4768,67.449 32.9768,69.949 33,72.5C 33.3333,72.8333 33.6667,73.1667 34,73.5C 36.4371,71.1073 38.6038,67.9406 40.5,64C 37.3119,59.2267 38.3119,55.7267 43.5,53.5C 46.3035,52.3622 49.3035,52.1955 52.5,53C 53.1552,54.4866 54.1552,55.6533 55.5,56.5C 56.1924,55.9747 56.6924,55.3081 57,54.5C 58.3333,54.5 59.6667,54.5 61,54.5C 62.7635,55.9437 64.7635,56.9437 67,57.5C 70.3404,56.3855 73.507,54.8855 76.5,53C 76.3842,51.7318 76.0509,50.3985 75.5,49C 77.3668,48.2888 78.8668,48.7888 80,50.5C 81.0086,48.9751 81.5086,47.3084 81.5,45.5C 82.9778,45.762 84.3112,45.4287 85.5,44.5C 88.8333,42.1667 92.1667,39.8333 95.5,37.5C 96.6309,35.9255 96.7975,34.2588 96,32.5C 94.2927,30.9625 92.7927,29.2959 91.5,27.5 Z"/></g>
<g><path style="opacity:1" fill="#ddd3da" d="M 238.5,8.5 C 239.649,8.79106 240.316,9.62439 240.5,11C 240.333,11.8333 240.167,12.6667 240,13.5C 233.789,16.8717 228.289,21.205 223.5,26.5C 221.457,27.5794 220.124,29.246 219.5,31.5C 216.488,39.2557 213.822,47.2557 211.5,55.5C 210.5,56.1667 209.5,56.8333 208.5,57.5C 207.596,56.791 207.263,55.791 207.5,54.5C 211.9,34.9954 222.233,19.6621 238.5,8.5 Z"/></g>
<g><path style="opacity:1" fill="#e7b831" d="M 91.5,27.5 C 92.7927,29.2959 94.2927,30.9625 96,32.5C 96.7975,34.2588 96.6309,35.9255 95.5,37.5C 92.1667,39.8333 88.8333,42.1667 85.5,44.5C 84.3112,45.4287 82.9778,45.762 81.5,45.5C 81.5086,47.3084 81.0086,48.9751 80,50.5C 78.8668,48.7888 77.3668,48.2888 75.5,49C 76.0509,50.3985 76.3842,51.7318 76.5,53C 73.507,54.8855 70.3404,56.3855 67,57.5C 64.7635,56.9437 62.7635,55.9437 61,54.5C 59.6667,54.5 58.3333,54.5 57,54.5C 56.6924,55.3081 56.1924,55.9747 55.5,56.5C 54.1552,55.6533 53.1552,54.4866 52.5,53C 49.3035,52.1955 46.3035,52.3622 43.5,53.5C 38.3119,55.7267 37.3119,59.2267 40.5,64C 38.6038,67.9406 36.4371,71.1073 34,73.5C 33.6667,73.1667 33.3333,72.8333 33,72.5C 32.9768,69.949 33.4768,67.449 34.5,65C 34.2716,64.6012 33.9382,64.4346 33.5,64.5C 34.7019,60.422 36.2019,56.422 38,52.5C 38.6552,47.0395 39.8218,41.7061 41.5,36.5C 41.3284,35.5084 41.6618,34.8417 42.5,34.5C 43.5,33.8333 44.5,33.1667 45.5,32.5C 46.404,33.209 46.7373,34.209 46.5,35.5C 50.0429,36.8073 53.7095,37.974 57.5,39C 60.5302,39.2882 63.3635,39.4549 66,39.5C 67.3236,38.1198 68.6569,37.7865 70,38.5C 71.0283,36.6385 72.5283,35.3052 74.5,34.5C 77.7243,35.6954 80.8909,37.0288 84,38.5C 87.9764,37.2141 89.3097,34.5474 88,30.5C 85.9254,27.8904 83.4254,25.8904 80.5,24.5C 84.7838,21.9101 88.4504,22.9101 91.5,27.5 Z"/></g>
<g><path style="opacity:1" fill="#8e7e8a" d="M 296.5,43.5 C 296.586,42.5041 296.252,41.6708 295.5,41C 293.866,40.5065 292.199,40.3398 290.5,40.5C 294.423,36.6091 299.089,35.6091 304.5,37.5C 301.804,39.509 299.137,41.509 296.5,43.5 Z"/></g>
<g><path style="opacity:1" fill="#c5a03b" d="M 24.5,36.5 C 24.6495,37.552 24.4828,38.552 24,39.5C 19.4756,44.5518 15.9756,50.2185 13.5,56.5C 12.8333,56.5 12.1667,56.5 11.5,56.5C 14.7026,48.9902 19.0359,42.3235 24.5,36.5 Z"/></g>
<g><path style="opacity:1" fill="#e8bc32" d="M 27.5,64.5 C 24.1641,63.8344 20.9974,63.8344 18,64.5C 16.513,63.7471 16.3463,62.9138 17.5,62C 15.771,60.2111 15.1043,58.0444 15.5,55.5C 16.0959,51.7706 18.2626,49.4372 22,48.5C 22.6172,47.5509 22.4506,46.7175 21.5,46C 24.2654,41.9336 27.9321,40.9336 32.5,43C 29.8333,43.6667 29.8333,44.3333 32.5,45C 31.8333,47.3333 31.1667,49.6667 30.5,52C 30.8333,52.3333 31.1667,52.6667 31.5,53C 30.082,56.8573 28.7487,60.6906 27.5,64.5 Z"/></g>
<g><path style="opacity:1" fill="#d8cdd5" d="M 290.5,40.5 C 292.199,40.3398 293.866,40.5065 295.5,41C 296.252,41.6708 296.586,42.5041 296.5,43.5C 295.167,44.1667 293.833,44.8333 292.5,45.5C 290.302,45.8799 288.635,45.2132 287.5,43.5C 288.167,42.1667 289.167,41.1667 290.5,40.5 Z"/></g>
<g><path style="opacity:1" fill="#6f4f08" d="M 103.5,36.5 C 110.969,40.9746 116.303,47.308 119.5,55.5C 117.034,53.2597 115.034,50.593 113.5,47.5C 112.833,47.8333 112.167,48.1667 111.5,48.5C 109.96,46.5628 107.96,45.3961 105.5,45C 106.623,43.9563 107.956,43.2896 109.5,43C 107.294,40.9633 105.294,38.7966 103.5,36.5 Z"/></g>
<g><path style="opacity:1" fill="#93848f" d="M 287.5,43.5 C 288.635,45.2132 290.302,45.8799 292.5,45.5C 289.876,47.1011 287.21,48.7678 284.5,50.5C 282.485,49.0762 280.152,48.4095 277.5,48.5C 280.795,46.8527 284.128,45.1861 287.5,43.5 Z"/></g>
<g><path style="opacity:1" fill="#ac9fa9" d="M 219.5,31.5 C 219.242,35.3669 219.908,39.0336 221.5,42.5C 219.699,47.2293 217.699,51.896 215.5,56.5C 214.264,55.7542 212.93,55.4208 211.5,55.5C 213.822,47.2557 216.488,39.2557 219.5,31.5 Z"/></g>
<g><path style="opacity:1" fill="#dfd4dc" d="M 277.5,48.5 C 280.152,48.4095 282.485,49.0762 284.5,50.5C 278.114,54.8536 271.114,57.8536 263.5,59.5C 261.067,59.7271 259.401,58.7271 258.5,56.5C 264.833,53.8333 271.167,51.1667 277.5,48.5 Z"/></g>
<g><path style="opacity:1" fill="#785407" d="M 55.5,23.5 C 49.624,25.3784 45.2907,29.0451 42.5,34.5C 41.6618,34.8417 41.3284,35.5084 41.5,36.5C 40.2101,37.0577 39.3768,38.0577 39,39.5C 37.8723,44.1386 36.8723,48.8053 36,53.5C 32.0692,60.7958 29.2358,68.4625 27.5,76.5C 25.2146,93.9756 24.8812,111.642 26.5,129.5C 24.9993,134.494 25.666,139.161 28.5,143.5C 26.39,142.547 25.2233,140.881 25,138.5C 24.5182,135.093 24.5182,131.76 25,128.5C 23.3968,129.886 22.5634,131.719 22.5,134C 22.7629,137.698 23.7629,141.198 25.5,144.5C 23.4503,145.663 21.4503,145.496 19.5,144C 17.6503,141.395 16.317,138.562 15.5,135.5C 18.5423,134.797 20.2089,132.797 20.5,129.5C 24.4304,127.887 25.4304,125.22 23.5,121.5C 22.6852,105.143 23.3519,88.8097 25.5,72.5C 27.0598,70.0465 28.0598,67.3798 28.5,64.5C 30.4383,60.9568 32.1049,57.2901 33.5,53.5C 34.5989,40.2265 40.5989,29.7265 51.5,22C 53.1667,21.3333 54.8333,21.3333 56.5,22C 55.944,22.3826 55.6107,22.8826 55.5,23.5 Z"/></g>
<g><path style="opacity:1" fill="#785408" d="M 43.5,53.5 C 49.4419,53.2116 49.7752,54.0449 44.5,56C 43.2125,57.4095 42.0458,58.9095 41,60.5C 40.3333,59.1667 40.3333,57.8333 41,56.5C 42.045,55.6266 42.8783,54.6266 43.5,53.5 Z"/></g>
<g><path style="opacity:1" fill="#f3e3bd" d="M 99.5,54.5 C 104.636,53.6634 108.969,54.9967 112.5,58.5C 113.171,59.8471 113.171,61.0138 112.5,62C 114.152,63.47 115.152,65.3033 115.5,67.5C 114.205,70.7156 113.538,74.0489 113.5,77.5C 111.5,78.8333 109.5,80.1667 107.5,81.5C 104.15,81.665 100.817,81.4983 97.5,81C 90.8561,76.1741 88.6895,69.6741 91,61.5C 92.8048,57.8571 95.6381,55.5237 99.5,54.5 Z"/></g>
<g><path style="opacity:1" fill="#968692" d="M 261.5,51.5 C 256.109,54.11 250.443,56.2766 244.5,58C 242.167,58.3333 239.833,58.6667 237.5,59C 235.859,60.129 234.859,61.629 234.5,63.5C 233.833,63.5 233.5,63.8333 233.5,64.5C 232.837,66.0419 232.17,67.7086 231.5,69.5C 231.167,68.8333 230.833,68.1667 230.5,67.5C 228.997,68.5901 228.664,69.7567 229.5,71C 227.567,71.7826 226.067,71.2826 225,69.5C 223.512,72.1942 223.679,74.5275 225.5,76.5C 225.167,76.8333 224.833,77.1667 224.5,77.5C 222.43,77.4286 219.763,77.4286 216.5,77.5C 215.548,75.9547 215.215,74.288 215.5,72.5C 216.42,65.5426 218.087,58.876 220.5,52.5C 220.483,55.9914 221.983,58.6581 225,60.5C 227.821,58.6776 230.321,56.5109 232.5,54C 232.167,53 231.833,52 231.5,51C 232.108,50.1301 232.941,49.6301 234,49.5C 237.344,50.3535 240.678,52.0202 244,54.5C 245.895,53.3114 247.895,52.3114 250,51.5C 250.71,52.9733 251.876,53.6399 253.5,53.5C 253.67,52.1779 253.337,51.0113 252.5,50C 253,49.5 253.5,49 254,48.5C 255.805,51.0393 258.305,52.0393 261.5,51.5 Z"/></g>
<g><path style="opacity:1" fill="#a698a2" d="M 199.5,77.5 C 198.698,78.9516 198.198,80.6183 198,82.5C 197.506,80.8659 197.34,79.1992 197.5,77.5C 198.735,59.5231 204.402,43.1897 214.5,28.5C 214.833,28.8333 215.167,29.1667 215.5,29.5C 211.155,36.5204 207.655,43.8538 205,51.5C 203.486,60.258 201.652,68.9246 199.5,77.5 Z"/></g>
<g><path style="opacity:1" fill="#968791" d="M 207.5,54.5 C 207.263,55.791 207.596,56.791 208.5,57.5C 206.874,60.2457 206.207,63.2457 206.5,66.5C 205.1,67.0998 204.1,68.0998 203.5,69.5C 203.762,64.1119 205.095,59.1119 207.5,54.5 Z"/></g>
<g><path style="opacity:1" fill="#9c8e98" d="M 210.5,57.5 C 211.833,57.5 213.167,57.5 214.5,57.5C 214.55,64.9689 213.216,64.9689 210.5,57.5 Z"/></g>
<g><path style="opacity:1" fill="#b8acb5" d="M 258.5,56.5 C 259.401,58.7271 261.067,59.7271 263.5,59.5C 260.785,61.0719 257.785,62.0719 254.5,62.5C 252.401,61.1851 252.067,59.5184 253.5,57.5C 255.216,57.3713 256.883,57.038 258.5,56.5 Z"/></g>
<g><path style="opacity:1" fill="#998a95" d="M 253.5,57.5 C 252.067,59.5184 252.401,61.1851 254.5,62.5C 249.607,65.4358 244.941,65.1024 240.5,61.5C 244.977,60.5627 249.31,59.2294 253.5,57.5 Z"/></g>
<g><path style="opacity:1" fill="#a07612" d="M 61.5,62.5 C 53.479,61.4771 46.8123,63.8105 41.5,69.5C 42.5878,65.9098 44.9212,63.4098 48.5,62C 53.0204,61.1864 57.3537,61.353 61.5,62.5 Z"/></g>
<g><path style="opacity:1" fill="#ccbd9e" d="M 112.5,58.5 C 118.809,64.4411 119.142,70.7745 113.5,77.5C 113.538,74.0489 114.205,70.7156 115.5,67.5C 115.152,65.3033 114.152,63.47 112.5,62C 113.171,61.0138 113.171,59.8471 112.5,58.5 Z"/></g>
<g><path style="opacity:1" fill="#d6ccd4" d="M 317.5,63.5 C 317.5,65.1667 317.5,66.8333 317.5,68.5C 316.661,67.3588 315.994,66.0255 315.5,64.5C 315.957,63.7025 316.624,63.3691 317.5,63.5 Z"/></g>
<g><path style="opacity:1" fill="#4e3c0f" d="M 6.5,63.5 C 6.5,64.5 6.5,65.5 6.5,66.5C 2.10201,71.6006 0.435344,77.6006 1.5,84.5C 0.166667,97.5 0.166667,110.5 1.5,123.5C 1.5,125.167 1.5,126.833 1.5,128.5C 0.833333,127.5 0.166667,126.5 -0.5,125.5C -0.5,110.833 -0.5,96.1667 -0.5,81.5C -0.427078,74.6773 1.90626,68.6773 6.5,63.5 Z"/></g>
<g><path style="opacity:1" fill="#ce9f1c" d="M 15.5,55.5 C 15.1043,58.0444 15.771,60.2111 17.5,62C 16.3463,62.9138 16.513,63.7471 18,64.5C 20.9974,63.8344 24.1641,63.8344 27.5,64.5C 26.9724,68.5817 24.8057,71.2484 21,72.5C 17.9067,72.0145 14.4067,71.8479 10.5,72C 9.2899,70.9609 8.2899,69.7942 7.5,68.5C 10.9253,65.3134 12.2587,61.3134 11.5,56.5C 12.1667,56.5 12.8333,56.5 13.5,56.5C 14.1667,56.1667 14.8333,55.8333 15.5,55.5 Z"/></g>
<g><path style="opacity:1" fill="#f5e6bf" d="M 68.5,68.5 C 68.8588,70.371 69.8588,71.871 71.5,73C 68.2577,73.2833 67.9244,74.1166 70.5,75.5C 72.0372,83.0469 69.7039,89.2136 63.5,94C 59.8269,94.974 56.1602,95.8074 52.5,96.5C 46.9799,95.149 43.1465,91.8156 41,86.5C 39.1139,70.386 46.2806,63.2194 62.5,65C 64.6917,65.926 66.6917,67.0927 68.5,68.5 Z"/></g>
<g><path style="opacity:1" fill="#594753" d="M 303.5,46.5 C 304.631,54.0873 304.798,61.754 304,69.5C 301.116,72.685 297.949,75.5184 294.5,78C 291.049,78.7472 290.716,78.0805 293.5,76C 292.906,75.5357 292.239,75.369 291.5,75.5C 290.833,75.5 290.5,75.1667 290.5,74.5C 293.937,73.2729 296.937,71.2729 299.5,68.5C 300.495,62.8722 300.829,57.2055 300.5,51.5C 296.189,53.3205 291.855,55.1538 287.5,57C 285.602,58.417 283.936,59.917 282.5,61.5C 279.011,60.9254 275.678,61.7588 272.5,64C 271.177,64.8159 270.511,65.9826 270.5,67.5C 262.907,68.4842 255.907,70.8175 249.5,74.5C 248.511,79.9753 248.178,85.642 248.5,91.5C 247.539,93.2646 247.205,95.2646 247.5,97.5C 246.507,89.0161 246.174,80.3494 246.5,71.5C 247.833,71.1667 249.167,70.8333 250.5,70.5C 269.297,64.7988 286.963,56.7988 303.5,46.5 Z"/></g>
<g><path style="opacity:1" fill="#f0e1be" d="M 290.5,74.5 C 285.063,71.9748 282.397,67.6415 282.5,61.5C 283.936,59.917 285.602,58.417 287.5,57C 291.855,55.1538 296.189,53.3205 300.5,51.5C 300.829,57.2055 300.495,62.8722 299.5,68.5C 296.937,71.2729 293.937,73.2729 290.5,74.5 Z"/></g>
<g><path style="opacity:1" fill="#59451c" d="M 102.5,66.5 C 103.5,66.5 104.5,66.5 105.5,66.5C 105.5,67.5 105.5,68.5 105.5,69.5C 104.5,69.5 103.5,69.5 102.5,69.5C 102.5,68.5 102.5,67.5 102.5,66.5 Z"/></g>
<g><path style="opacity:1" fill="#513a4f" d="M 242.5,68.5 C 242.5,69.8333 242.5,71.1667 242.5,72.5C 241.51,78.31 241.177,84.31 241.5,90.5C 240.833,84.3208 240.167,77.9875 239.5,71.5C 238.522,71.0233 237.689,70.3567 237,69.5C 236.383,77.0131 236.55,84.5131 237.5,92C 237.477,94.9254 236.977,97.7587 236,100.5C 234.685,88.2052 234.185,75.8719 234.5,63.5C 236.226,63.1854 237.893,63.0187 239.5,63C 240.229,65.0581 241.229,66.8914 242.5,68.5 Z"/></g>
<g><path style="opacity:1" fill="#b98e1d" d="M 284.5,81.5 C 282.973,81.427 281.973,82.0937 281.5,83.5C 279.401,84.2309 277.401,84.2309 275.5,83.5C 277.191,77.3581 276.191,71.6914 272.5,66.5C 274.607,64.1132 277.273,62.7799 280.5,62.5C 281.111,68.3947 283.778,73.0613 288.5,76.5C 287.047,78.1848 285.714,79.8514 284.5,81.5 Z"/></g>
<g><path style="opacity:1" fill="#e2d8e0" d="M 244.5,67.5 C 245.833,67.5 247.167,67.5 248.5,67.5C 249.552,67.3505 250.552,67.5172 251.5,68C 250.748,68.6708 250.414,69.5041 250.5,70.5C 249.167,70.8333 247.833,71.1667 246.5,71.5C 245.521,74.6248 245.187,77.9581 245.5,81.5C 244.883,81.6107 244.383,81.944 244,82.5C 243.222,77.4158 243.389,72.4158 244.5,67.5 Z"/></g>
<g><path style="opacity:1" fill="#bb8b0b" d="M 27.5,64.5 C 27.8333,64.5 28.1667,64.5 28.5,64.5C 28.0598,67.3798 27.0598,70.0465 25.5,72.5C 23.6026,74.2688 22.436,76.6021 22,79.5C 21.0695,89.9092 20.4029,100.576 20,111.5C 14.9025,112.843 10.0692,112.177 5.5,109.5C 3.96426,105.283 2.96426,100.95 2.5,96.5C 2.2455,87.7302 3.07883,79.0636 5,70.5C 5.41691,69.244 6.25025,68.5774 7.5,68.5C 8.2899,69.7942 9.2899,70.9609 10.5,72C 14.4067,71.8479 17.9067,72.0145 21,72.5C 24.8057,71.2484 26.9724,68.5817 27.5,64.5 Z"/></g>
<g><path style="opacity:1" fill="#634e60" d="M 234.5,63.5 C 234.185,75.8719 234.685,88.2052 236,100.5C 236.977,97.7587 237.477,94.9254 237.5,92C 236.55,84.5131 236.383,77.0131 237,69.5C 237.689,70.3567 238.522,71.0233 239.5,71.5C 240.167,77.9875 240.833,84.3208 241.5,90.5C 241.282,95.2115 241.615,99.8781 242.5,104.5C 242.267,105.932 241.6,106.432 240.5,106C 238.68,105.021 237.513,103.521 237,101.5C 236.51,102.793 236.343,104.127 236.5,105.5C 234.941,102.132 234.108,98.4651 234,94.5C 233.5,84.5056 233.334,74.5056 233.5,64.5C 233.5,63.8333 233.833,63.5 234.5,63.5 Z"/></g>
<g><path style="opacity:1" fill="#eee0c1" d="M 270.5,67.5 C 273.604,73.5344 274.27,79.8678 272.5,86.5C 272.167,86.5 271.833,86.5 271.5,86.5C 269.611,87.604 267.945,88.9373 266.5,90.5C 262.698,92.3995 258.698,93.7328 254.5,94.5C 253.508,94.6716 252.842,94.3382 252.5,93.5C 252.189,92.5222 251.522,91.8555 250.5,91.5C 249.505,85.8722 249.171,80.2055 249.5,74.5C 255.907,70.8175 262.907,68.4842 270.5,67.5 Z"/></g>
<g><path style="opacity:1" fill="#fdeec7" d="M 259.5,77.5 C 260.5,77.5 261.5,77.5 262.5,77.5C 262.5,76.5 262.5,75.5 262.5,74.5C 262.78,70.7747 264.78,69.608 268.5,71C 269,71.5 269.5,72 270,72.5C 269.959,75.8041 269.626,79.1374 269,82.5C 266.715,84.9066 264.549,87.4066 262.5,90C 258.453,92.0732 254.62,91.9065 251,89.5C 250.333,85.1667 250.333,80.8333 251,76.5C 253.228,74.8866 255.728,74.22 258.5,74.5C 258.263,75.791 258.596,76.791 259.5,77.5 Z"/></g>
<g><path style="opacity:1" fill="#614a1a" d="M 282.5,61.5 C 282.397,67.6415 285.063,71.9748 290.5,74.5C 290.5,75.1667 290.833,75.5 291.5,75.5C 289.761,78.2427 287.427,80.2427 284.5,81.5C 285.714,79.8514 287.047,78.1848 288.5,76.5C 283.778,73.0613 281.111,68.3947 280.5,62.5C 277.273,62.7799 274.607,64.1132 272.5,66.5C 276.191,71.6914 277.191,77.3581 275.5,83.5C 277.401,84.2309 279.401,84.2309 281.5,83.5C 279.155,86.075 276.155,87.075 272.5,86.5C 274.27,79.8678 273.604,73.5344 270.5,67.5C 270.511,65.9826 271.177,64.8159 272.5,64C 275.678,61.7588 279.011,60.9254 282.5,61.5 Z"/></g>
<g><path style="opacity:1" fill="#cbbfc7" d="M 193.5,78.5 C 192.917,82.737 191.417,86.737 189,90.5C 188.505,88.5273 188.338,86.5273 188.5,84.5C 188.833,81.8333 189.167,79.1667 189.5,76.5C 192.223,67.7001 195.556,59.0334 199.5,50.5C 200.002,49.479 200.668,49.3123 201.5,50C 198.002,59.3593 195.335,68.8593 193.5,78.5 Z"/></g>
<g><path style="opacity:1" fill="#b0a3ad" d="M 244.5,67.5 C 243.389,72.4158 243.222,77.4158 244,82.5C 244.383,81.944 244.883,81.6107 245.5,81.5C 245.179,83.0481 244.179,83.7148 242.5,83.5C 242.5,79.8333 242.5,76.1667 242.5,72.5C 242.5,71.1667 242.5,69.8333 242.5,68.5C 242.842,67.6618 243.508,67.3284 244.5,67.5 Z"/></g>
<g><path style="opacity:1" fill="#8a7a85" d="M 233.5,64.5 C 233.334,74.5056 233.5,84.5056 234,94.5C 234.108,98.4651 234.941,102.132 236.5,105.5C 238.657,107.412 240.991,109.079 243.5,110.5C 242.828,111.267 241.995,111.934 241,112.5C 238.888,111.777 236.888,110.777 235,109.5C 232.527,110.384 230.193,110.717 228,110.5C 225.482,106.766 222.316,105.933 218.5,108C 219.833,108.667 220.833,109.667 221.5,111C 219.593,112.122 217.593,112.955 215.5,113.5C 214.223,109.806 213.223,106.139 212.5,102.5C 212.334,95.4921 212.5,88.4921 213,81.5C 213.057,78.1489 213.891,75.1489 215.5,72.5C 215.215,74.288 215.548,75.9547 216.5,77.5C 219.763,77.4286 222.43,77.4286 224.5,77.5C 224.833,77.1667 225.167,76.8333 225.5,76.5C 223.679,74.5275 223.512,72.1942 225,69.5C 226.067,71.2826 227.567,71.7826 229.5,71C 228.664,69.7567 228.997,68.5901 230.5,67.5C 230.833,68.1667 231.167,68.8333 231.5,69.5C 232.17,67.7086 232.837,66.0419 233.5,64.5 Z"/></g>
<g><path style="opacity:1" fill="#d1c3a4" d="M 68.5,68.5 C 70.9486,69.94 72.6153,71.94 73.5,74.5C 75.3976,90.0877 68.3976,97.7544 52.5,97.5C 52.5,97.1667 52.5,96.8333 52.5,96.5C 56.1602,95.8074 59.8269,94.974 63.5,94C 69.7039,89.2136 72.0372,83.0469 70.5,75.5C 67.9244,74.1166 68.2577,73.2833 71.5,73C 69.8588,71.871 68.8588,70.371 68.5,68.5 Z"/></g>
<g><path style="opacity:1" fill="#ad8212" d="M 25.5,72.5 C 23.3519,88.8097 22.6852,105.143 23.5,121.5C 23.5,123.167 23.5,124.833 23.5,126.5C 17.6229,126.794 15.1229,124.128 16,118.5C 17.0672,117.057 18.2338,115.724 19.5,114.5C 16.4023,114.155 13.0689,113.655 9.5,113C 7.67634,112.34 6.34301,111.173 5.5,109.5C 10.0692,112.177 14.9025,112.843 20,111.5C 20.4029,100.576 21.0695,89.9092 22,79.5C 22.436,76.6021 23.6026,74.2688 25.5,72.5 Z"/></g>
<g><path style="opacity:1" fill="#9f909b" d="M 206.5,66.5 C 207.708,69.0442 209.708,70.3775 212.5,70.5C 210.314,79.3564 208.98,88.3564 208.5,97.5C 205.579,97.1459 203.246,98.1459 201.5,100.5C 199.93,89.979 200.597,79.6457 203.5,69.5C 204.1,68.0998 205.1,67.0998 206.5,66.5 Z"/></g>
<g><path style="opacity:1" fill="#5f4714" d="M 99.5,54.5 C 102.625,53.5206 105.958,53.1872 109.5,53.5C 117.32,57.4727 120.653,63.8061 119.5,72.5C 115.672,82.2473 108.672,85.914 98.5,83.5C 101.5,82.8333 104.5,82.1667 107.5,81.5C 109.5,80.1667 111.5,78.8333 113.5,77.5C 119.142,70.7745 118.809,64.4411 112.5,58.5C 108.969,54.9967 104.636,53.6634 99.5,54.5 Z"/></g>
<g><path style="opacity:1" fill="#6d5014" d="M 61.5,62.5 C 65.2607,63.5472 68.594,65.3805 71.5,68C 73.4641,69.451 74.7974,71.2843 75.5,73.5C 74.0755,71.9689 73.4088,72.3023 73.5,74.5C 72.6153,71.94 70.9486,69.94 68.5,68.5C 66.6917,67.0927 64.6917,65.926 62.5,65C 46.2806,63.2194 39.1139,70.386 41,86.5C 43.1465,91.8156 46.9799,95.149 52.5,96.5C 52.5,96.8333 52.5,97.1667 52.5,97.5C 51.5084,97.3284 50.8417,97.6618 50.5,98.5C 47.5251,97.3449 44.8584,95.6782 42.5,93.5C 39.0826,87.3245 37.7493,80.6578 38.5,73.5C 39.0221,71.7809 40.0221,70.4475 41.5,69.5C 46.8123,63.8105 53.479,61.4771 61.5,62.5 Z"/></g>
<g><path style="opacity:1" fill="#7a5c21" d="M 109.5,53.5 C 105.958,53.1872 102.625,53.5206 99.5,54.5C 95.6381,55.5237 92.8048,57.8571 91,61.5C 88.6895,69.6741 90.8561,76.1741 97.5,81C 100.817,81.4983 104.15,81.665 107.5,81.5C 104.5,82.1667 101.5,82.8333 98.5,83.5C 93.4402,80.7737 89.7736,76.7737 87.5,71.5C 85.7823,64.008 88.1156,58.3414 94.5,54.5C 99.4936,52.407 104.494,52.0736 109.5,53.5 Z"/></g>
<g><path style="opacity:1" fill="#897984" d="M 316.5,91.5 C 316.663,93.8568 316.497,96.1902 316,98.5C 312.117,107.321 307.951,115.987 303.5,124.5C 302.008,129.995 298.675,133.995 293.5,136.5C 292.702,136.043 292.369,135.376 292.5,134.5C 297.057,130.054 300.057,124.721 301.5,118.5C 302.434,117.432 302.768,116.099 302.5,114.5C 299.886,114.723 298.219,113.556 297.5,111C 298.93,109.12 298.596,107.62 296.5,106.5C 295.335,107.491 294.168,108.491 293,109.5C 290.47,108.906 288.47,107.572 287,105.5C 286.05,106.022 285.216,106.689 284.5,107.5C 283.566,105.905 283.566,104.239 284.5,102.5C 287.009,101.079 289.343,99.4121 291.5,97.5C 299.957,91.5836 306.291,83.917 310.5,74.5C 311.606,71.946 312.439,69.2794 313,66.5C 315.658,74.6244 316.825,82.9578 316.5,91.5 Z"/></g>
<g><path style="opacity:1" fill="#9d7615" d="M 11.5,56.5 C 12.2587,61.3134 10.9253,65.3134 7.5,68.5C 6.25025,68.5774 5.41691,69.244 5,70.5C 3.07883,79.0636 2.2455,87.7302 2.5,96.5C 1.51658,92.7016 1.18325,88.7016 1.5,84.5C 0.435344,77.6006 2.10201,71.6006 6.5,66.5C 9.24972,63.6673 10.9164,60.334 11.5,56.5 Z"/></g>
<g><path style="opacity:1" fill="#644504" d="M 124.5,64.5 C 126.134,65.9717 127.634,67.6383 129,69.5C 129.333,74.5 129.667,79.5 130,84.5C 131.459,87.747 132.626,91.0804 133.5,94.5C 131.131,106.723 129.631,119.056 129,131.5C 127.181,136.478 125.348,141.478 123.5,146.5C 122.448,146.351 121.448,146.517 120.5,147C 116.372,152.484 111.706,157.317 106.5,161.5C 108.353,156.806 111.52,153.139 116,150.5C 117.305,146.901 119.305,144.567 122,143.5C 125.428,139 126.762,134 126,128.5C 124.734,126.804 124.9,124.971 126.5,123C 125.361,117.584 125.194,112.084 126,106.5C 126.374,107.416 126.874,108.25 127.5,109C 126.446,110.388 126.28,111.888 127,113.5C 128.727,110.651 128.894,107.651 127.5,104.5C 125.568,103.855 124.401,102.521 124,100.5C 122.477,102.569 121.643,104.903 121.5,107.5C 120.35,102.684 120.184,97.6842 121,92.5C 122.481,91.5291 123.315,90.1958 123.5,88.5C 127.138,80.7298 127.472,72.7298 124.5,64.5 Z"/></g>
<g><path style="opacity:1" fill="#6b5b68" d="M 310.5,74.5 C 306.291,83.917 299.957,91.5836 291.5,97.5C 291.338,95.4727 291.505,93.4727 292,91.5C 298.989,86.6756 305.156,81.0089 310.5,74.5 Z"/></g>
<g><path style="opacity:1" fill="#4d3b48" d="M 247.5,97.5 C 247.205,95.2646 247.539,93.2646 248.5,91.5C 248.5,92.1667 248.833,92.5 249.5,92.5C 249.191,98.4692 250.857,99.1359 254.5,94.5C 258.698,93.7328 262.698,92.3995 266.5,90.5C 268.117,89.962 269.784,89.6287 271.5,89.5C 271.5,88.5 271.5,87.5 271.5,86.5C 271.833,86.5 272.167,86.5 272.5,86.5C 276.155,87.075 279.155,86.075 281.5,83.5C 283.027,83.573 284.027,82.9063 284.5,81.5C 287.427,80.2427 289.761,78.2427 291.5,75.5C 292.239,75.369 292.906,75.5357 293.5,76C 290.716,78.0805 291.049,78.7472 294.5,78C 297.949,75.5184 301.116,72.685 304,69.5C 304.798,61.754 304.631,54.0873 303.5,46.5C 304.566,45.3079 305.399,45.6412 306,47.5C 306.896,55.2464 306.563,62.913 305,70.5C 292.223,83.2899 277.389,92.7899 260.5,99C 256.278,100.638 251.945,101.805 247.5,102.5C 247.5,100.833 247.5,99.1667 247.5,97.5 Z"/></g>
<g><path style="opacity:1" fill="#91828d" d="M 193.5,78.5 C 193.5,81.5 193.5,84.5 193.5,87.5C 192.833,87.5 192.5,87.8333 192.5,88.5C 191.883,88.6107 191.383,88.944 191,89.5C 190,93.5 189,97.5 188,101.5C 187.617,100.944 187.117,100.611 186.5,100.5C 186.156,94.9016 186.822,89.5683 188.5,84.5C 188.338,86.5273 188.505,88.5273 189,90.5C 191.417,86.737 192.917,82.737 193.5,78.5 Z"/></g>
<g><path style="opacity:1" fill="#84747f" d="M 197.5,77.5 C 197.34,79.1992 197.506,80.8659 198,82.5C 198.198,80.6183 198.698,78.9516 199.5,77.5C 199.702,79.9496 199.369,82.283 198.5,84.5C 197.67,93.6577 197.17,102.991 197,112.5C 196.768,111.263 196.268,110.263 195.5,109.5C 195.101,98.6136 195.767,87.9469 197.5,77.5 Z"/></g>
<g><path style="opacity:1" fill="#43313e" d="M 315.5,62.5 C 316.167,62.5 316.833,62.5 317.5,62.5C 317.5,62.8333 317.5,63.1667 317.5,63.5C 316.624,63.3691 315.957,63.7025 315.5,64.5C 315.994,66.0255 316.661,67.3588 317.5,68.5C 317.5,76.1667 317.5,83.8333 317.5,91.5C 317.167,91.5 316.833,91.5 316.5,91.5C 316.825,82.9578 315.658,74.6244 313,66.5C 312.439,69.2794 311.606,71.946 310.5,74.5C 305.156,81.0089 298.989,86.6756 292,91.5C 291.505,93.4727 291.338,95.4727 291.5,97.5C 289.343,99.4121 287.009,101.079 284.5,102.5C 281.131,104.173 277.798,105.84 274.5,107.5C 272.744,106.448 272.077,104.781 272.5,102.5C 264.57,105.366 256.57,108.032 248.5,110.5C 246.833,110.5 245.167,110.5 243.5,110.5C 240.991,109.079 238.657,107.412 236.5,105.5C 236.343,104.127 236.51,102.793 237,101.5C 237.513,103.521 238.68,105.021 240.5,106C 241.6,106.432 242.267,105.932 242.5,104.5C 241.615,99.8781 241.282,95.2115 241.5,90.5C 241.177,84.31 241.51,78.31 242.5,72.5C 242.5,76.1667 242.5,79.8333 242.5,83.5C 243.823,91.3955 244.49,99.3955 244.5,107.5C 268.236,102.384 288.736,91.3841 306,74.5C 307.795,71.9007 309.295,69.2341 310.5,66.5C 311.434,65.4324 311.768,64.099 311.5,62.5C 312.833,62.5 314.167,62.5 315.5,62.5 Z"/></g>
<g><path style="opacity:1" fill="#b6870c" d="M 41.5,36.5 C 39.8218,41.7061 38.6552,47.0395 38,52.5C 36.2019,56.422 34.7019,60.422 33.5,64.5C 30.7929,68.3068 29.4596,72.6401 29.5,77.5C 27.8382,87.4496 27.3382,97.7829 28,108.5C 29.1447,110.926 30.478,113.259 32,115.5C 36.5247,116.215 41.0247,117.215 45.5,118.5C 47.8566,117.905 50.0233,116.905 52,115.5C 55.2617,116.024 58.095,114.857 60.5,112C 61.448,111.517 62.448,111.351 63.5,111.5C 63.9662,109.799 63.9662,108.299 63.5,107C 68.7835,105.877 72.1169,102.377 73.5,96.5C 76.0048,91.8136 77.6715,86.8136 78.5,81.5C 80.451,81.7733 81.951,81.1066 83,79.5C 83.3333,79.8333 83.6667,80.1667 84,80.5C 85.6516,79.6006 87.1516,78.6006 88.5,77.5C 90.4093,80.3753 92.7427,82.8753 95.5,85C 105.787,88.8814 113.953,86.3814 120,77.5C 120.494,75.8659 120.66,74.1992 120.5,72.5C 121.209,71.596 122.209,71.2627 123.5,71.5C 123.708,73.9201 123.374,76.2534 122.5,78.5C 123.167,79.8333 123.833,81.1667 124.5,82.5C 123.675,83.3857 122.675,83.719 121.5,83.5C 121.487,86.3613 120.321,87.3613 118,86.5C 115.613,88.1704 113.279,89.837 111,91.5C 109.439,91.3469 107.605,91.0136 105.5,90.5C 100.186,91.1781 94.8525,91.6781 89.5,92C 87.418,93.8311 85.0846,94.9978 82.5,95.5C 82.5,96.5 82.5,97.5 82.5,98.5C 81.9162,100.743 80.7495,102.743 79,104.5C 78.7401,108.25 78.0734,111.916 77,115.5C 75.7025,116.784 74.5358,116.617 73.5,115C 74.0626,113.23 75.0626,111.23 76.5,109C 75.7365,104.59 74.4032,104.423 72.5,108.5C 72.6082,109.442 72.9415,110.275 73.5,111C 69.2573,114.167 67.2573,118.167 67.5,123C 66.552,123.483 65.552,123.649 64.5,123.5C 64.7077,127.144 66.7077,129.311 70.5,130C 69.1667,131.333 69.1667,132.667 70.5,134C 69.6667,134.167 68.8333,134.333 68,134.5C 65.5217,132.512 62.6884,131.512 59.5,131.5C 56.5647,131.717 53.7313,132.383 51,133.5C 48.3079,132.901 45.8079,131.901 43.5,130.5C 42.8333,130.833 42.1667,131.167 41.5,131.5C 43.4752,134.805 45.8085,137.805 48.5,140.5C 51.9478,141.731 54.9478,143.731 57.5,146.5C 53.4499,147.773 49.4499,147.606 45.5,146C 41.6227,140.415 38.1227,134.582 35,128.5C 33.3005,127.594 31.4672,127.261 29.5,127.5C 28.008,118.437 27.008,109.27 26.5,100C 26.9614,92.1694 27.2948,84.3361 27.5,76.5C 29.2358,68.4625 32.0692,60.7958 36,53.5C 36.8723,48.8053 37.8723,44.1386 39,39.5C 39.3768,38.0577 40.2101,37.0577 41.5,36.5 Z"/></g>
<g><path style="opacity:1" fill="#c29c37" d="M 87.5,71.5 C 89.7736,76.7737 93.4402,80.7737 98.5,83.5C 108.672,85.914 115.672,82.2473 119.5,72.5C 119.833,72.5 120.167,72.5 120.5,72.5C 120.66,74.1992 120.494,75.8659 120,77.5C 113.953,86.3814 105.787,88.8814 95.5,85C 92.7427,82.8753 90.4093,80.3753 88.5,77.5C 87.8505,75.5648 87.5172,73.5648 87.5,71.5 Z"/></g>
<g><path style="opacity:1" fill="#bc8d0c" d="M 38.5,73.5 C 37.7493,80.6578 39.0826,87.3245 42.5,93.5C 45.2179,99.6928 50.0512,103.026 57,103.5C 63.8435,103.927 69.3435,101.594 73.5,96.5C 72.1169,102.377 68.7835,105.877 63.5,107C 63.9662,108.299 63.9662,109.799 63.5,111.5C 62.448,111.351 61.448,111.517 60.5,112C 58.095,114.857 55.2617,116.024 52,115.5C 50.0233,116.905 47.8566,117.905 45.5,118.5C 41.0247,117.215 36.5247,116.215 32,115.5C 30.478,113.259 29.1447,110.926 28,108.5C 27.3382,97.7829 27.8382,87.4496 29.5,77.5C 31.3545,78.6896 33.1879,80.0229 35,81.5C 36.4748,78.8782 37.6414,76.2116 38.5,73.5 Z"/></g>
<g><path style="opacity:1" fill="#685327" d="M 59.5,77.5 C 60.5,77.5 61.5,77.5 62.5,77.5C 62.5,78.5 62.5,79.5 62.5,80.5C 61.5,80.5 60.5,80.5 59.5,80.5C 59.5,79.5 59.5,78.5 59.5,77.5 Z"/></g>
<g><path style="opacity:1" fill="#6f4e07" d="M 82.5,98.5 C 82.5,97.5 82.5,96.5 82.5,95.5C 83.8175,95.821 85.1508,96.1543 86.5,96.5C 89.5582,94.9503 92.7249,93.617 96,92.5C 96.5,92.8333 97,93.1667 97.5,93.5C 92.9519,97.3115 87.9519,98.9782 82.5,98.5 Z"/></g>
<g><path style="opacity:1" fill="#5b4512" d="M 75.5,73.5 C 75.5,73.8333 75.5,74.1667 75.5,74.5C 78.4238,89.6564 72.2571,98.3231 57,100.5C 55.1667,100.333 53.3333,100.167 51.5,100C 50.944,99.6174 50.6107,99.1174 50.5,98.5C 50.8417,97.6618 51.5084,97.3284 52.5,97.5C 68.3976,97.7544 75.3976,90.0877 73.5,74.5C 73.4088,72.3023 74.0755,71.9689 75.5,73.5 Z"/></g>
<g><path style="opacity:1" fill="#b9acb5" d="M 207.5,99.5 C 207.737,100.791 207.404,101.791 206.5,102.5C 203.662,100.694 203.995,99.6941 207.5,99.5 Z"/></g>
<g><path style="opacity:1" fill="#bd9632" d="M 75.5,74.5 C 77.2413,76.3949 78.2413,78.7282 78.5,81.5C 77.6715,86.8136 76.0048,91.8136 73.5,96.5C 69.3435,101.594 63.8435,103.927 57,103.5C 50.0512,103.026 45.2179,99.6928 42.5,93.5C 44.8584,95.6782 47.5251,97.3449 50.5,98.5C 50.6107,99.1174 50.944,99.6174 51.5,100C 53.3333,100.167 55.1667,100.333 57,100.5C 72.2571,98.3231 78.4238,89.6564 75.5,74.5 Z"/></g>
<g><path style="opacity:1" fill="#b0820e" d="M 93.5,25.5 C 94.1667,25.5 94.5,25.8333 94.5,26.5C 97.5285,29.859 100.529,33.1924 103.5,36.5C 105.294,38.7966 107.294,40.9633 109.5,43C 107.956,43.2896 106.623,43.9563 105.5,45C 107.96,45.3961 109.96,46.5628 111.5,48.5C 112.167,48.1667 112.833,47.8333 113.5,47.5C 115.034,50.593 117.034,53.2597 119.5,55.5C 120.738,58.7378 122.404,61.7378 124.5,64.5C 127.472,72.7298 127.138,80.7298 123.5,88.5C 122.206,89.2899 121.039,90.2899 120,91.5C 119.667,96.5 119.333,101.5 119,106.5C 115.946,109.942 113.946,113.942 113,118.5C 110.411,120.211 107.911,122.045 105.5,124C 107.256,124.202 108.922,124.702 110.5,125.5C 107.313,128.853 104.313,132.353 101.5,136C 99.4817,136.505 97.4817,137.005 95.5,137.5C 92.2774,138.821 88.944,140.154 85.5,141.5C 81.0303,141.463 79.697,139.463 81.5,135.5C 82.404,134.791 82.7373,133.791 82.5,132.5C 78.133,134.266 73.633,135.599 69,136.5C 64.7441,136.79 61.5774,135.123 59.5,131.5C 62.6884,131.512 65.5217,132.512 68,134.5C 68.8333,134.333 69.6667,134.167 70.5,134C 69.1667,132.667 69.1667,131.333 70.5,130C 66.7077,129.311 64.7077,127.144 64.5,123.5C 65.552,123.649 66.552,123.483 67.5,123C 67.2573,118.167 69.2573,114.167 73.5,111C 72.9415,110.275 72.6082,109.442 72.5,108.5C 74.4032,104.423 75.7365,104.59 76.5,109C 75.0626,111.23 74.0626,113.23 73.5,115C 74.5358,116.617 75.7025,116.784 77,115.5C 78.0734,111.916 78.7401,108.25 79,104.5C 80.7495,102.743 81.9162,100.743 82.5,98.5C 87.9519,98.9782 92.9519,97.3115 97.5,93.5C 97,93.1667 96.5,92.8333 96,92.5C 92.7249,93.617 89.5582,94.9503 86.5,96.5C 85.1508,96.1543 83.8175,95.821 82.5,95.5C 85.0846,94.9978 87.418,93.8311 89.5,92C 94.8525,91.6781 100.186,91.1781 105.5,90.5C 107.605,91.0136 109.439,91.3469 111,91.5C 113.279,89.837 115.613,88.1704 118,86.5C 120.321,87.3613 121.487,86.3613 121.5,83.5C 122.675,83.719 123.675,83.3857 124.5,82.5C 123.833,81.1667 123.167,79.8333 122.5,78.5C 123.374,76.2534 123.708,73.9201 123.5,71.5C 122.209,71.2627 121.209,71.596 120.5,72.5C 120.167,72.5 119.833,72.5 119.5,72.5C 120.653,63.8061 117.32,57.4727 109.5,53.5C 104.494,52.0736 99.4936,52.407 94.5,54.5C 94.5774,53.2502 95.244,52.4169 96.5,52C 99.8273,51.3897 103.161,50.8897 106.5,50.5C 106.5,49.5 106.5,48.5 106.5,47.5C 105.5,47.5 104.5,47.5 103.5,47.5C 103.66,45.8008 103.494,44.1341 103,42.5C 100.806,39.4456 99.1395,36.1122 98,32.5C 96.2228,30.2101 94.0562,28.5434 91.5,27.5C 88.4504,22.9101 84.7838,21.9101 80.5,24.5C 80.5,25.5 80.5,26.5 80.5,27.5C 79.5084,27.6716 78.8417,27.3382 78.5,26.5C 79.0431,26.44 79.3764,26.1067 79.5,25.5C 78.1666,24.3801 77.6666,23.0468 78,21.5C 83.8234,19.9792 88.9901,21.3125 93.5,25.5 Z"/></g>
<g><path style="opacity:1" fill="#b58509" d="M 95.5,137.5 C 92.2893,137.012 89.456,137.679 87,139.5C 85.6081,136.722 85.1081,133.722 85.5,130.5C 82.7952,130.62 82.1285,129.62 83.5,127.5C 82.8551,126.354 82.0217,125.354 81,124.5C 81.6667,121.167 81.6667,117.833 81,114.5C 81.3742,113.584 81.8742,112.75 82.5,112C 84.7981,110.562 86.9648,109.729 89,109.5C 88.8047,107.874 88.8047,106.207 89,104.5C 90.0084,104.018 91.175,103.852 92.5,104C 92.1321,102.527 92.6321,101.027 94,99.5C 94.3333,100.167 94.6667,100.833 95,101.5C 96.3333,100.167 97.6667,98.8333 99,97.5C 99.3333,98.5 99.6667,99.5 100,100.5C 100.941,98.9386 102.108,97.6053 103.5,96.5C 104.167,96.8333 104.833,97.1667 105.5,97.5C 106.522,100.441 107.355,103.441 108,106.5C 109.798,104.028 112.132,102.361 115,101.5C 115.034,103.18 115.201,104.68 115.5,106C 113.965,109.681 112.798,113.514 112,117.5C 107.885,119.948 104.052,122.781 100.5,126C 103.417,128.169 103.917,130.669 102,133.5C 99.5746,134.643 97.4079,135.976 95.5,137.5 Z"/></g>
<g><path style="opacity:1" fill="#897984" d="M 310.5,66.5 C 309.295,69.2341 307.795,71.9007 306,74.5C 288.736,91.3841 268.236,102.384 244.5,107.5C 244.49,99.3955 243.823,91.3955 242.5,83.5C 244.179,83.7148 245.179,83.0481 245.5,81.5C 245.187,77.9581 245.521,74.6248 246.5,71.5C 246.174,80.3494 246.507,89.0161 247.5,97.5C 247.5,99.1667 247.5,100.833 247.5,102.5C 251.945,101.805 256.278,100.638 260.5,99C 277.389,92.7899 292.223,83.2899 305,70.5C 306.563,62.913 306.896,55.2464 306,47.5C 305.399,45.6412 304.566,45.3079 303.5,46.5C 286.963,56.7988 269.297,64.7988 250.5,70.5C 250.414,69.5041 250.748,68.6708 251.5,68C 250.552,67.5172 249.552,67.3505 248.5,67.5C 269.663,61.8366 289.163,52.5032 307,39.5C 308.653,39.8198 309.653,40.8198 310,42.5C 310.5,50.4931 310.666,58.4931 310.5,66.5 Z"/></g>
<g><path style="opacity:1" fill="#5c492e" d="M 249.5,92.5 C 250.391,93.1098 251.391,93.4431 252.5,93.5C 252.842,94.3382 253.508,94.6716 254.5,94.5C 250.857,99.1359 249.191,98.4692 249.5,92.5 Z"/></g>
<g><path style="opacity:1" fill="#b6a78c" d="M 249.5,74.5 C 249.171,80.2055 249.505,85.8722 250.5,91.5C 251.522,91.8555 252.189,92.5222 252.5,93.5C 251.391,93.4431 250.391,93.1098 249.5,92.5C 248.833,92.5 248.5,92.1667 248.5,91.5C 248.178,85.642 248.511,79.9753 249.5,74.5 Z"/></g>
<g><path style="opacity:1" fill="#8b7c87" d="M 271.5,86.5 C 271.5,87.5 271.5,88.5 271.5,89.5C 269.784,89.6287 268.117,89.962 266.5,90.5C 267.945,88.9373 269.611,87.604 271.5,86.5 Z"/></g>
<g><path style="opacity:1" fill="#503d18" d="M 284.5,81.5 C 284.027,82.9063 283.027,83.573 281.5,83.5C 281.973,82.0937 282.973,81.427 284.5,81.5 Z"/></g>
<g><path style="opacity:1" fill="#806d43" d="M 262.5,74.5 C 262.5,75.5 262.5,76.5 262.5,77.5C 261.5,77.5 260.5,77.5 259.5,77.5C 259.5,76.5 259.5,75.5 259.5,74.5C 260.5,74.5 261.5,74.5 262.5,74.5 Z"/></g>
<g><path style="opacity:1" fill="#7d6c78" d="M 207.5,99.5 C 210.082,101.288 210.749,103.622 209.5,106.5C 208.476,105.148 207.476,103.815 206.5,102.5C 207.404,101.791 207.737,100.791 207.5,99.5 Z"/></g>
<g><path style="opacity:1" fill="#6f5d6b" d="M 274.5,107.5 C 274.082,108.222 273.416,108.722 272.5,109C 267.489,109.585 262.489,110.251 257.5,111C 254.304,111.805 251.304,111.638 248.5,110.5C 256.57,108.032 264.57,105.366 272.5,102.5C 272.077,104.781 272.744,106.448 274.5,107.5 Z"/></g>
<g><path style="opacity:1" fill="#80707b" d="M 284.5,102.5 C 283.566,104.239 283.566,105.905 284.5,107.5C 285.216,106.689 286.05,106.022 287,105.5C 288.47,107.572 290.47,108.906 293,109.5C 294.168,108.491 295.335,107.491 296.5,106.5C 298.596,107.62 298.93,109.12 297.5,111C 298.219,113.556 299.886,114.723 302.5,114.5C 302.768,116.099 302.434,117.432 301.5,118.5C 301.728,116.645 301.061,115.812 299.5,116C 295.348,119.826 292.348,124.326 290.5,129.5C 289.417,129.461 288.417,129.127 287.5,128.5C 285.948,123.113 283.448,122.447 280,126.5C 279.415,124.871 278.581,123.371 277.5,122C 277.833,121.5 278.167,121 278.5,120.5C 280.407,122.76 282.407,122.927 284.5,121C 281.88,118.729 278.88,118.062 275.5,119C 276.517,120.049 276.684,121.216 276,122.5C 275.333,121.167 274.667,121.167 274,122.5C 273.79,121.197 273.957,119.864 274.5,118.5C 274.444,117.263 273.944,116.263 273,115.5C 272.343,120.895 269.51,122.895 264.5,121.5C 263.784,122.311 262.95,122.978 262,123.5C 260.121,121.987 257.954,121.321 255.5,121.5C 255.628,127.453 254.961,127.787 253.5,122.5C 251.058,122.646 250.391,121.813 251.5,120C 249.662,117.697 247.328,117.031 244.5,118C 242.814,122.041 240.647,125.874 238,129.5C 237.667,129.167 237.333,128.833 237,128.5C 235.209,131.827 233.043,132.16 230.5,129.5C 229.502,127.51 228.502,125.51 227.5,123.5C 227.833,123.167 228.167,122.833 228.5,122.5C 229.757,124.679 231.257,126.679 233,128.5C 233.986,125.258 233.152,122.592 230.5,120.5C 231.376,119.749 232.376,119.249 233.5,119C 230.307,117.974 228.974,115.808 229.5,112.5C 228.325,112.281 227.325,112.614 226.5,113.5C 228.256,115.191 228.756,117.191 228,119.5C 226.578,119.594 225.078,119.928 223.5,120.5C 225.004,123.506 224.337,124.172 221.5,122.5C 219.5,119.5 217.5,116.5 215.5,113.5C 217.593,112.955 219.593,112.122 221.5,111C 220.833,109.667 219.833,108.667 218.5,108C 222.316,105.933 225.482,106.766 228,110.5C 230.193,110.717 232.527,110.384 235,109.5C 236.888,110.777 238.888,111.777 241,112.5C 241.995,111.934 242.828,111.267 243.5,110.5C 245.167,110.5 246.833,110.5 248.5,110.5C 251.304,111.638 254.304,111.805 257.5,111C 262.489,110.251 267.489,109.585 272.5,109C 273.416,108.722 274.082,108.222 274.5,107.5C 277.798,105.84 281.131,104.173 284.5,102.5 Z"/></g>
<g><path style="opacity:1" fill="#6c5b68" d="M 198.5,84.5 C 198.172,95.3464 198.506,106.013 199.5,116.5C 200.54,123.516 201.373,130.516 202,137.5C 197.64,130.059 195.474,122.059 195.5,113.5C 195.5,112.167 195.5,110.833 195.5,109.5C 196.268,110.263 196.768,111.263 197,112.5C 197.17,102.991 197.67,93.6577 198.5,84.5 Z"/></g>
<g><path style="opacity:1" fill="#8d7d88" d="M 210.5,119.5 C 210.689,123.348 210.689,127.015 210.5,130.5C 208.506,128.083 206.673,128.083 205,130.5C 204.302,127.996 203.469,125.663 202.5,123.5C 201.851,117.806 201.351,112.139 201,106.5C 203.019,109.712 205.853,111.378 209.5,111.5C 209.279,114.279 209.612,116.946 210.5,119.5 Z"/></g>
<g><path style="opacity:1" fill="#7a5a14" d="M 1.5,84.5 C 1.18325,88.7016 1.51658,92.7016 2.5,96.5C 2.11922,105.498 1.78588,114.498 1.5,123.5C 0.166667,110.5 0.166667,97.5 1.5,84.5 Z"/></g>
<g><path style="opacity:1" fill="#634f60" d="M 316.5,91.5 C 316.833,91.5 317.167,91.5 317.5,91.5C 317.5,96.1667 317.5,100.833 317.5,105.5C 316.976,113.293 315.643,120.959 313.5,128.5C 313.095,127.45 312.429,127.45 311.5,128.5C 310.667,126.5 309.833,124.5 309,122.5C 307.267,122.554 305.434,123.22 303.5,124.5C 307.951,115.987 312.117,107.321 316,98.5C 316.497,96.1902 316.663,93.8568 316.5,91.5 Z"/></g>
<g><path style="opacity:1" fill="#4a3608" d="M 94.5,26.5 C 97.5,28.5 100.5,30.5 103.5,32.5C 108.136,36.3043 112.303,40.6377 116,45.5C 120.264,53.0283 125.264,60.0283 131,66.5C 132.238,72.7577 133.238,79.091 134,85.5C 135.471,88.1008 136.637,90.7675 137.5,93.5C 135.803,103.704 134.136,113.87 132.5,124C 133.491,131.689 131.991,139.189 128,146.5C 123.981,151.767 119.814,156.933 115.5,162C 109.103,165.859 102.77,169.692 96.5,173.5C 79.8333,173.5 63.1667,173.5 46.5,173.5C 43.397,171.345 40.397,169.011 37.5,166.5C 39.8868,165.839 42.2202,166.339 44.5,168C 48.6888,168.812 52.6888,168.645 56.5,167.5C 56.5,167.167 56.5,166.833 56.5,166.5C 57.1667,166.5 57.8333,166.5 58.5,166.5C 61.2615,168.212 64.2615,169.378 67.5,170C 76.5464,170.807 85.5464,170.474 94.5,169C 98.9598,167.001 102.96,164.501 106.5,161.5C 111.706,157.317 116.372,152.484 120.5,147C 121.448,146.517 122.448,146.351 123.5,146.5C 125.348,141.478 127.181,136.478 129,131.5C 129.631,119.056 131.131,106.723 133.5,94.5C 132.626,91.0804 131.459,87.747 130,84.5C 129.667,79.5 129.333,74.5 129,69.5C 127.634,67.6383 126.134,65.9717 124.5,64.5C 122.404,61.7378 120.738,58.7378 119.5,55.5C 116.303,47.308 110.969,40.9746 103.5,36.5C 100.529,33.1924 97.5285,29.859 94.5,26.5 Z"/></g>
<g><path style="opacity:1" fill="#796975" d="M 290.5,129.5 C 290.5,130.167 290.5,130.833 290.5,131.5C 289.751,132.531 289.085,133.698 288.5,135C 286.359,135.573 284.359,136.406 282.5,137.5C 281.549,136.081 281.216,134.415 281.5,132.5C 277.03,132.03 276.53,133.03 280,135.5C 280.749,136.635 280.583,137.635 279.5,138.5C 277.568,139.52 275.568,139.687 273.5,139C 273.934,136.704 274.268,134.038 274.5,131C 271.69,127.557 269.69,128.057 268.5,132.5C 266.954,133.684 265.287,134.684 263.5,135.5C 265.636,136.852 265.97,138.518 264.5,140.5C 262.353,141.835 260.353,141.669 258.5,140C 259.448,139.517 260.448,139.351 261.5,139.5C 262.001,134.14 261.001,128.807 258.5,123.5C 257.391,126.108 255.724,128.274 253.5,130C 254.424,131.15 254.424,132.15 253.5,133C 251.888,133.72 250.388,133.554 249,132.5C 248.667,133.5 248.333,134.5 248,135.5C 244.779,132.272 243.279,132.938 243.5,137.5C 242.167,137.5 240.833,137.5 239.5,137.5C 232.378,134.062 226.378,129.062 221.5,122.5C 224.337,124.172 225.004,123.506 223.5,120.5C 225.078,119.928 226.578,119.594 228,119.5C 228.756,117.191 228.256,115.191 226.5,113.5C 227.325,112.614 228.325,112.281 229.5,112.5C 228.974,115.808 230.307,117.974 233.5,119C 232.376,119.249 231.376,119.749 230.5,120.5C 233.152,122.592 233.986,125.258 233,128.5C 231.257,126.679 229.757,124.679 228.5,122.5C 228.167,122.833 227.833,123.167 227.5,123.5C 228.502,125.51 229.502,127.51 230.5,129.5C 233.043,132.16 235.209,131.827 237,128.5C 237.333,128.833 237.667,129.167 238,129.5C 240.647,125.874 242.814,122.041 244.5,118C 247.328,117.031 249.662,117.697 251.5,120C 250.391,121.813 251.058,122.646 253.5,122.5C 254.961,127.787 255.628,127.453 255.5,121.5C 257.954,121.321 260.121,121.987 262,123.5C 262.95,122.978 263.784,122.311 264.5,121.5C 269.51,122.895 272.343,120.895 273,115.5C 273.944,116.263 274.444,117.263 274.5,118.5C 273.957,119.864 273.79,121.197 274,122.5C 274.667,121.167 275.333,121.167 276,122.5C 276.684,121.216 276.517,120.049 275.5,119C 278.88,118.062 281.88,118.729 284.5,121C 282.407,122.927 280.407,122.76 278.5,120.5C 278.167,121 277.833,121.5 277.5,122C 278.581,123.371 279.415,124.871 280,126.5C 283.448,122.447 285.948,123.113 287.5,128.5C 288.417,129.127 289.417,129.461 290.5,129.5 Z"/></g>
<g><path style="opacity:1" fill="#8d6407" d="M 2.5,96.5 C 2.96426,100.95 3.96426,105.283 5.5,109.5C 6.34301,111.173 7.67634,112.34 9.5,113C 13.0689,113.655 16.4023,114.155 19.5,114.5C 18.2338,115.724 17.0672,117.057 16,118.5C 15.1229,124.128 17.6229,126.794 23.5,126.5C 23.5,124.833 23.5,123.167 23.5,121.5C 25.4304,125.22 24.4304,127.887 20.5,129.5C 20.2089,132.797 18.5423,134.797 15.5,135.5C 14.448,135.649 13.448,135.483 12.5,135C 11.6005,132.808 10.6005,130.642 9.5,128.5C 7.89178,127.758 6.22511,127.591 4.5,128C 3.60064,126.348 2.60064,124.848 1.5,123.5C 1.78588,114.498 2.11922,105.498 2.5,96.5 Z"/></g>
<g><path style="opacity:1" fill="#3d2c39" d="M 190.5,65.5 C 190.534,68.1985 189.867,70.6985 188.5,73C 189.337,74.0113 189.67,75.1779 189.5,76.5C 189.167,79.1667 188.833,81.8333 188.5,84.5C 186.822,89.5683 186.156,94.9016 186.5,100.5C 186.197,110.625 188.697,119.959 194,128.5C 192.755,115.246 192.255,101.913 192.5,88.5C 192.5,87.8333 192.833,87.5 193.5,87.5C 194.167,96.1667 194.833,104.833 195.5,113.5C 195.474,122.059 197.64,130.059 202,137.5C 201.373,130.516 200.54,123.516 199.5,116.5C 199.343,115.127 199.51,113.793 200,112.5C 200.419,116.392 201.252,120.058 202.5,123.5C 202.443,125.884 202.777,128.218 203.5,130.5C 205.715,135.818 207.715,141.152 209.5,146.5C 208.265,146.721 207.265,147.388 206.5,148.5C 203.397,144.211 200.897,139.544 199,134.5C 198.667,135.167 198.333,135.833 198,136.5C 197.023,135.226 196.189,135.226 195.5,136.5C 191.859,131.187 188.859,125.853 186.5,120.5C 186.886,116.763 186.053,113.097 184,109.5C 181.991,94.0765 184.158,79.4099 190.5,65.5 Z"/></g>
<g><path style="opacity:1" fill="#604a5e" d="M 192.5,88.5 C 192.255,101.913 192.755,115.246 194,128.5C 188.697,119.959 186.197,110.625 186.5,100.5C 187.117,100.611 187.617,100.944 188,101.5C 189,97.5 190,93.5 191,89.5C 191.383,88.944 191.883,88.6107 192.5,88.5 Z"/></g>
<g><path style="opacity:1" fill="#010000" d="M -0.5,125.5 C 0.166667,126.5 0.833333,127.5 1.5,128.5C 6.79426,141.916 15.1276,153.083 26.5,162C 29.975,164.074 33.6417,165.574 37.5,166.5C 40.397,169.011 43.397,171.345 46.5,173.5C 30.8333,173.5 15.1667,173.5 -0.5,173.5C -0.5,157.5 -0.5,141.5 -0.5,125.5 Z"/></g>
<g><path style="opacity:1" fill="#705f6c" d="M 282.5,137.5 C 280.779,139.694 278.445,140.861 275.5,141C 268.88,142.137 262.214,142.637 255.5,142.5C 249.99,141.218 244.657,139.551 239.5,137.5C 240.833,137.5 242.167,137.5 243.5,137.5C 243.279,132.938 244.779,132.272 248,135.5C 248.333,134.5 248.667,133.5 249,132.5C 250.388,133.554 251.888,133.72 253.5,133C 254.424,132.15 254.424,131.15 253.5,130C 255.724,128.274 257.391,126.108 258.5,123.5C 261.001,128.807 262.001,134.14 261.5,139.5C 260.448,139.351 259.448,139.517 258.5,140C 260.353,141.669 262.353,141.835 264.5,140.5C 265.97,138.518 265.636,136.852 263.5,135.5C 265.287,134.684 266.954,133.684 268.5,132.5C 269.69,128.057 271.69,127.557 274.5,131C 274.268,134.038 273.934,136.704 273.5,139C 275.568,139.687 277.568,139.52 279.5,138.5C 280.583,137.635 280.749,136.635 280,135.5C 276.53,133.03 277.03,132.03 281.5,132.5C 281.216,134.415 281.549,136.081 282.5,137.5 Z"/></g>
<g><path style="opacity:1" fill="#3e2d39" d="M 301.5,118.5 C 300.057,124.721 297.057,130.054 292.5,134.5C 290.952,134.179 290.285,133.179 290.5,131.5C 290.5,130.833 290.5,130.167 290.5,129.5C 292.348,124.326 295.348,119.826 299.5,116C 301.061,115.812 301.728,116.645 301.5,118.5 Z"/></g>
<g><path style="opacity:1" fill="#a97d0e" d="M 27.5,76.5 C 27.2948,84.3361 26.9614,92.1694 26.5,100C 27.008,109.27 28.008,118.437 29.5,127.5C 31.4672,127.261 33.3005,127.594 35,128.5C 38.1227,134.582 41.6227,140.415 45.5,146C 49.4499,147.606 53.4499,147.773 57.5,146.5C 54.9478,143.731 51.9478,141.731 48.5,140.5C 51.2469,140.187 53.9135,140.52 56.5,141.5C 60.1895,144.675 64.1895,147.342 68.5,149.5C 60.7492,150.241 53.0826,149.574 45.5,147.5C 43.8333,146.167 42.1667,144.833 40.5,143.5C 37.9822,138.973 35.3155,134.473 32.5,130C 30.5273,129.505 28.5273,129.338 26.5,129.5C 24.8812,111.642 25.2146,93.9756 27.5,76.5 Z"/></g>
<g><path style="opacity:1" fill="#010000" d="M 317.5,133.5 C 317.5,146.833 317.5,160.167 317.5,173.5C 305.833,173.5 294.167,173.5 282.5,173.5C 291.181,167.021 299.348,159.687 307,151.5C 310.361,146.112 313.194,140.446 315.5,134.5C 315.957,133.702 316.624,133.369 317.5,133.5 Z"/></g>
<g><path style="opacity:1" fill="#8e7f8a" d="M 211.5,136.5 C 211.694,134.088 213.027,133.088 215.5,133.5C 215.5,134.5 215.5,135.5 215.5,136.5C 214.167,136.5 212.833,136.5 211.5,136.5 Z"/></g>
<g><path style="opacity:1" fill="#543d53" d="M 212.5,102.5 C 213.223,106.139 214.223,109.806 215.5,113.5C 217.5,116.5 219.5,119.5 221.5,122.5C 226.378,129.062 232.378,134.062 239.5,137.5C 244.657,139.551 249.99,141.218 255.5,142.5C 253.5,142.5 251.5,142.5 249.5,142.5C 249.5,143.5 249.5,144.5 249.5,145.5C 252.967,145.446 255.634,146.946 257.5,150C 256.5,150.833 255.5,151.667 254.5,152.5C 256.499,154.496 257.999,156.829 259,159.5C 259.49,158.207 259.657,156.873 259.5,155.5C 262.049,155.613 264.382,154.946 266.5,153.5C 267.876,154.842 269.209,156.175 270.5,157.5C 268.138,157.974 265.805,158.308 263.5,158.5C 263.148,161.309 261.982,163.642 260,165.5C 259.163,163.993 257.996,163.493 256.5,164C 257.423,166.041 257.756,168.208 257.5,170.5C 255.389,169.62 253.389,169.62 251.5,170.5C 245.275,170.47 240.109,168.137 236,163.5C 235.689,161.444 235.189,159.444 234.5,157.5C 231.94,156.253 229.273,155.253 226.5,154.5C 221.973,148.965 219.306,142.632 218.5,135.5C 216.774,132.272 215.274,128.939 214,125.5C 212.858,117.875 212.358,110.208 212.5,102.5 Z"/></g>
<g><path style="opacity:1" fill="#563d06" d="M 1.5,128.5 C 5.62477,129.621 7.29144,132.121 6.5,136C 8.60887,137.141 10.4422,138.641 12,140.5C 13.2606,143.211 15.094,145.378 17.5,147C 17.0426,147.414 16.7093,147.914 16.5,148.5C 19.2448,151.412 22.4115,153.746 26,155.5C 27.487,154.747 27.6537,153.914 26.5,153C 27.2744,150.595 27.7744,148.095 28,145.5C 28.8602,148.084 30.0269,150.417 31.5,152.5C 35.2908,158.125 39.9575,162.958 45.5,167C 49.1516,167.499 52.8183,167.665 56.5,167.5C 52.6888,168.645 48.6888,168.812 44.5,168C 42.2202,166.339 39.8868,165.839 37.5,166.5C 33.6417,165.574 29.975,164.074 26.5,162C 15.1276,153.083 6.79426,141.916 1.5,128.5 Z"/></g>
<g><path style="opacity:1" fill="#674604" d="M 1.5,123.5 C 2.60064,124.848 3.60064,126.348 4.5,128C 6.22511,127.591 7.89178,127.758 9.5,128.5C 10.6005,130.642 11.6005,132.808 12.5,135C 13.448,135.483 14.448,135.649 15.5,135.5C 16.317,138.562 17.6503,141.395 19.5,144C 21.4503,145.496 23.4503,145.663 25.5,144.5C 23.7629,141.198 22.7629,137.698 22.5,134C 22.5634,131.719 23.3968,129.886 25,128.5C 24.5182,131.76 24.5182,135.093 25,138.5C 25.2233,140.881 26.39,142.547 28.5,143.5C 30.12,146.228 31.12,149.228 31.5,152.5C 30.0269,150.417 28.8602,148.084 28,145.5C 27.7744,148.095 27.2744,150.595 26.5,153C 27.6537,153.914 27.487,154.747 26,155.5C 22.4115,153.746 19.2448,151.412 16.5,148.5C 16.7093,147.914 17.0426,147.414 17.5,147C 15.094,145.378 13.2606,143.211 12,140.5C 10.4422,138.641 8.60887,137.141 6.5,136C 7.29144,132.121 5.62477,129.621 1.5,128.5C 1.5,126.833 1.5,125.167 1.5,123.5 Z"/></g>
<g><path style="opacity:1" fill="#855c05" d="M 123.5,88.5 C 123.315,90.1958 122.481,91.5291 121,92.5C 120.184,97.6842 120.35,102.684 121.5,107.5C 122.821,110.598 123.488,114.098 123.5,118C 123.411,124.201 122.911,130.368 122,136.5C 119.22,138.801 117.553,141.801 117,145.5C 115.89,147.037 114.39,147.703 112.5,147.5C 112.649,148.552 112.483,149.552 112,150.5C 110.37,148.794 108.87,147.127 107.5,145.5C 106.307,147.527 104.64,149.027 102.5,150C 99.142,153.116 98.642,156.282 101,159.5C 101.667,158.167 102.333,156.833 103,155.5C 103.273,157.101 103.773,158.601 104.5,160C 100.645,163.096 96.3117,165.43 91.5,167C 85.355,168.408 79.0217,168.908 72.5,168.5C 67.8427,168.859 63.5094,167.859 59.5,165.5C 58.8933,165.624 58.56,165.957 58.5,166.5C 57.8333,166.5 57.1667,166.5 56.5,166.5C 56.8247,164.868 57.8247,163.868 59.5,163.5C 62.1667,164.5 64.8333,165.5 67.5,166.5C 70.2511,166.045 72.4178,164.711 74,162.5C 75.7683,163.131 76.935,162.298 77.5,160C 77.2409,158.739 76.5742,157.739 75.5,157C 72.8999,157.353 70.2332,157.853 67.5,158.5C 64.8762,158.711 63.2095,157.544 62.5,155C 66.1087,155.238 69.7754,155.405 73.5,155.5C 73.4208,154.07 73.7542,152.736 74.5,151.5C 73.7261,150.289 72.8928,150.289 72,151.5C 69.9774,149.987 70.1441,148.654 72.5,147.5C 71.3845,146.402 71.3845,145.235 72.5,144C 71.2974,142.632 70.2974,141.132 69.5,139.5C 72.855,137.758 76.355,136.091 80,134.5C 80.3826,135.056 80.8826,135.389 81.5,135.5C 79.697,139.463 81.0303,141.463 85.5,141.5C 88.944,140.154 92.2774,138.821 95.5,137.5C 97.4817,137.005 99.4817,136.505 101.5,136C 104.313,132.353 107.313,128.853 110.5,125.5C 108.922,124.702 107.256,124.202 105.5,124C 107.911,122.045 110.411,120.211 113,118.5C 113.946,113.942 115.946,109.942 119,106.5C 119.333,101.5 119.667,96.5 120,91.5C 121.039,90.2899 122.206,89.2899 123.5,88.5 Z"/></g>
<g><path style="opacity:1" fill="#50384e" d="M 313.5,128.5 C 311.485,141.033 305.485,151.199 295.5,159C 285.862,165.987 275.195,170.487 263.5,172.5C 259.239,172.589 255.239,171.922 251.5,170.5C 253.389,169.62 255.389,169.62 257.5,170.5C 257.756,168.208 257.423,166.041 256.5,164C 257.996,163.493 259.163,163.993 260,165.5C 261.982,163.642 263.148,161.309 263.5,158.5C 265.805,158.308 268.138,157.974 270.5,157.5C 269.209,156.175 267.876,154.842 266.5,153.5C 264.382,154.946 262.049,155.613 259.5,155.5C 259.657,156.873 259.49,158.207 259,159.5C 257.999,156.829 256.499,154.496 254.5,152.5C 255.5,151.667 256.5,150.833 257.5,150C 255.634,146.946 252.967,145.446 249.5,145.5C 249.5,144.5 249.5,143.5 249.5,142.5C 251.5,142.5 253.5,142.5 255.5,142.5C 262.214,142.637 268.88,142.137 275.5,141C 278.445,140.861 280.779,139.694 282.5,137.5C 284.359,136.406 286.359,135.573 288.5,135C 289.085,133.698 289.751,132.531 290.5,131.5C 290.285,133.179 290.952,134.179 292.5,134.5C 292.369,135.376 292.702,136.043 293.5,136.5C 298.675,133.995 302.008,129.995 303.5,124.5C 305.434,123.22 307.267,122.554 309,122.5C 309.833,124.5 310.667,126.5 311.5,128.5C 312.429,127.45 313.095,127.45 313.5,128.5 Z"/></g>
<g><path style="opacity:1" fill="#705f6c" d="M 210.5,119.5 C 211.592,122.105 212.259,124.938 212.5,128C 212.179,130.805 211.179,133.305 209.5,135.5C 209.298,137.989 209.798,140.323 211,142.5C 213.667,143.833 216.333,145.167 219,146.5C 219.892,149.952 221.558,152.952 224,155.5C 224.49,156.793 224.657,158.127 224.5,159.5C 219.656,156.902 215.323,153.569 211.5,149.5C 210.833,148.5 210.167,147.5 209.5,146.5C 207.715,141.152 205.715,135.818 203.5,130.5C 202.777,128.218 202.443,125.884 202.5,123.5C 203.469,125.663 204.302,127.996 205,130.5C 206.673,128.083 208.506,128.083 210.5,130.5C 210.689,127.015 210.689,123.348 210.5,119.5 Z"/></g>
<g><path style="opacity:1" fill="#6f4d05" d="M 106.5,161.5 C 102.96,164.501 98.9598,167.001 94.5,169C 85.5464,170.474 76.5464,170.807 67.5,170C 64.2615,169.378 61.2615,168.212 58.5,166.5C 58.56,165.957 58.8933,165.624 59.5,165.5C 63.5094,167.859 67.8427,168.859 72.5,168.5C 79.0217,168.908 85.355,168.408 91.5,167C 96.3117,165.43 100.645,163.096 104.5,160C 103.773,158.601 103.273,157.101 103,155.5C 102.333,156.833 101.667,158.167 101,159.5C 98.642,156.282 99.142,153.116 102.5,150C 104.64,149.027 106.307,147.527 107.5,145.5C 108.87,147.127 110.37,148.794 112,150.5C 112.483,149.552 112.649,148.552 112.5,147.5C 114.39,147.703 115.89,147.037 117,145.5C 117.553,141.801 119.22,138.801 122,136.5C 122.911,130.368 123.411,124.201 123.5,118C 123.488,114.098 122.821,110.598 121.5,107.5C 121.643,104.903 122.477,102.569 124,100.5C 124.401,102.521 125.568,103.855 127.5,104.5C 128.894,107.651 128.727,110.651 127,113.5C 126.28,111.888 126.446,110.388 127.5,109C 126.874,108.25 126.374,107.416 126,106.5C 125.194,112.084 125.361,117.584 126.5,123C 124.9,124.971 124.734,126.804 126,128.5C 126.762,134 125.428,139 122,143.5C 119.305,144.567 117.305,146.901 116,150.5C 111.52,153.139 108.353,156.806 106.5,161.5 Z"/></g>
<g><path style="opacity:1" fill="#8a6106" d="M 26.5,129.5 C 28.5273,129.338 30.5273,129.505 32.5,130C 35.3155,134.473 37.9822,138.973 40.5,143.5C 40.0618,143.435 39.7284,143.601 39.5,144C 41.8201,147.976 44.4867,151.643 47.5,155C 49.1667,155.667 50.8333,155.667 52.5,155C 49.1428,153.45 46.8095,150.95 45.5,147.5C 53.0826,149.574 60.7492,150.241 68.5,149.5C 64.1895,147.342 60.1895,144.675 56.5,141.5C 53.9135,140.52 51.2469,140.187 48.5,140.5C 45.8085,137.805 43.4752,134.805 41.5,131.5C 42.1667,131.167 42.8333,130.833 43.5,130.5C 45.8079,131.901 48.3079,132.901 51,133.5C 53.7313,132.383 56.5647,131.717 59.5,131.5C 61.5774,135.123 64.7441,136.79 69,136.5C 73.633,135.599 78.133,134.266 82.5,132.5C 82.7373,133.791 82.404,134.791 81.5,135.5C 80.8826,135.389 80.3826,135.056 80,134.5C 76.355,136.091 72.855,137.758 69.5,139.5C 70.2974,141.132 71.2974,142.632 72.5,144C 71.3845,145.235 71.3845,146.402 72.5,147.5C 70.1441,148.654 69.9774,149.987 72,151.5C 72.8928,150.289 73.7261,150.289 74.5,151.5C 73.7542,152.736 73.4208,154.07 73.5,155.5C 69.7754,155.405 66.1087,155.238 62.5,155C 63.2095,157.544 64.8762,158.711 67.5,158.5C 70.2332,157.853 72.8999,157.353 75.5,157C 76.5742,157.739 77.2409,158.739 77.5,160C 76.935,162.298 75.7683,163.131 74,162.5C 72.4178,164.711 70.2511,166.045 67.5,166.5C 64.8333,165.5 62.1667,164.5 59.5,163.5C 57.8247,163.868 56.8247,164.868 56.5,166.5C 56.5,166.833 56.5,167.167 56.5,167.5C 52.8183,167.665 49.1516,167.499 45.5,167C 39.9575,162.958 35.2908,158.125 31.5,152.5C 31.12,149.228 30.12,146.228 28.5,143.5C 25.666,139.161 24.9993,134.494 26.5,129.5 Z"/></g>
<g><path style="opacity:1" fill="#654604" d="M 40.5,143.5 C 42.1667,144.833 43.8333,146.167 45.5,147.5C 46.8095,150.95 49.1428,153.45 52.5,155C 50.8333,155.667 49.1667,155.667 47.5,155C 44.4867,151.643 41.8201,147.976 39.5,144C 39.7284,143.601 40.0618,143.435 40.5,143.5 Z"/></g>
<g><path style="opacity:1" fill="#30212b" d="M 209.5,146.5 C 210.167,147.5 210.833,148.5 211.5,149.5C 217.082,159.083 224.415,167.083 233.5,173.5C 229.5,173.5 225.5,173.5 221.5,173.5C 216.171,168.003 211.004,162.336 206,156.5C 202.225,149.949 198.725,143.282 195.5,136.5C 196.189,135.226 197.023,135.226 198,136.5C 198.333,135.833 198.667,135.167 199,134.5C 200.897,139.544 203.397,144.211 206.5,148.5C 207.265,147.388 208.265,146.721 209.5,146.5 Z"/></g>
<g><path style="opacity:1" fill="#4e384c" d="M 211.5,149.5 C 215.323,153.569 219.656,156.902 224.5,159.5C 224.84,161.679 225.84,163.512 227.5,165C 231.723,166.944 236.056,168.611 240.5,170C 241.823,170.816 242.489,171.983 242.5,173.5C 239.5,173.5 236.5,173.5 233.5,173.5C 224.415,167.083 217.082,159.083 211.5,149.5 Z"/></g>
<g><path style="opacity:1" fill="#362632" d="M 317.5,105.5 C 317.5,114.833 317.5,124.167 317.5,133.5C 316.624,133.369 315.957,133.702 315.5,134.5C 313.194,140.446 310.361,146.112 307,151.5C 299.348,159.687 291.181,167.021 282.5,173.5C 269.167,173.5 255.833,173.5 242.5,173.5C 242.489,171.983 241.823,170.816 240.5,170C 236.056,168.611 231.723,166.944 227.5,165C 225.84,163.512 224.84,161.679 224.5,159.5C 224.657,158.127 224.49,156.793 224,155.5C 221.558,152.952 219.892,149.952 219,146.5C 216.333,145.167 213.667,143.833 211,142.5C 209.798,140.323 209.298,137.989 209.5,135.5C 210.167,135.833 210.833,136.167 211.5,136.5C 213.97,137.878 216.304,137.545 218.5,135.5C 219.306,142.632 221.973,148.965 226.5,154.5C 229.273,155.253 231.94,156.253 234.5,157.5C 235.189,159.444 235.689,161.444 236,163.5C 240.109,168.137 245.275,170.47 251.5,170.5C 255.239,171.922 259.239,172.589 263.5,172.5C 275.195,170.487 285.862,165.987 295.5,159C 305.485,151.199 311.485,141.033 313.5,128.5C 315.643,120.959 316.976,113.293 317.5,105.5 Z"/></g>
<g><path style="opacity:1" fill="#82737f" d="M 226.5,157.5 C 228.429,157.231 230.095,157.731 231.5,159C 230.667,159.167 229.833,159.333 229,159.5C 227.624,159.316 226.791,158.649 226.5,157.5 Z"/></g>
</svg>
