<?xml version="1.0" encoding="UTF-8"?>
<!DOCTYPE svg PUBLIC "-//W3C//DTD SVG 1.1//EN" "http://www.w3.org/Graphics/SVG/1.1/DTD/svg11.dtd">
<svg xmlns="http://www.w3.org/2000/svg" version="1.1" width="1022px" height="1024px" style="shape-rendering:geometricPrecision; text-rendering:geometricPrecision; image-rendering:optimizeQuality; fill-rule:evenodd; clip-rule:evenodd" xmlns:xlink="http://www.w3.org/1999/xlink">
<g><path style="opacity:1" fill="#000000" d="M -0.5,-0.5 C 161.833,-0.5 324.167,-0.5 486.5,-0.5C 486.5,-0.166667 486.5,0.166667 486.5,0.5C 464.633,1.15196 442.966,3.48529 421.5,7.5C 418.848,7.40953 416.515,8.07619 414.5,9.5C 306.987,30.2938 215.487,79.9604 140,158.5C 131.623,168.039 123.456,177.706 115.5,187.5C 101.289,204.046 88.6228,221.713 77.5,240.5C 67.2345,256.022 58.2345,272.355 50.5,289.5C 40.7591,308.041 32.7591,327.375 26.5,347.5C 20.1104,364.682 15.1104,382.348 11.5,400.5C 8.88206,410.256 6.88206,420.256 5.5,430.5C 4.47505,433.974 3.80838,437.64 3.5,441.5C 2.16132,453.301 0.827984,464.967 -0.5,476.5C -0.5,317.5 -0.5,158.5 -0.5,-0.5 Z"/></g>
<g><path style="opacity:1" fill="#000000" d="M 534.5,-0.5 C 696.833,-0.5 859.167,-0.5 1021.5,-0.5C 1021.5,163.833 1021.5,328.167 1021.5,492.5C 1020.07,479.348 1019.07,466.015 1018.5,452.5C 1018.09,443.425 1017.09,434.425 1015.5,425.5C 1012.56,406.052 1008.23,387.052 1002.5,368.5C 1002.3,364.908 1001.3,361.574 999.5,358.5C 993.921,338.419 986.588,319.086 977.5,300.5C 971.374,284.911 963.708,270.245 954.5,256.5C 945.659,239.471 935.326,223.471 923.5,208.5C 914.036,193.692 902.702,180.359 889.5,168.5C 874.302,150.802 857.636,134.636 839.5,120C 821.49,105.811 802.824,92.6443 783.5,80.5C 782.833,79.1667 781.833,78.1667 780.5,77.5C 769.962,70.3968 758.962,64.0634 747.5,58.5C 732.615,49.6421 716.949,42.3087 700.5,36.5C 680.619,27.6515 659.952,20.9848 638.5,16.5C 638.389,15.8826 638.056,15.3826 637.5,15C 618.576,10.9148 599.576,7.41475 580.5,4.5C 575.367,3.33514 570.034,2.66848 564.5,2.5C 554.302,2.04146 544.302,1.04146 534.5,-0.5 Z"/></g>
<g><path style="opacity:1" fill="#ec2368" d="M 486.5,0.5 C 497.172,0.333496 507.839,0.500163 518.5,1C 499.167,10 479.833,19 460.5,28C 466.5,28.3333 472.5,28.6667 478.5,29C 472.319,29.1724 466.319,29.6724 460.5,30.5C 418.773,35.0202 379.773,47.8535 343.5,69C 323.98,79.6876 306.313,92.8543 290.5,108.5C 232.293,134.602 174.293,161.268 116.5,188.5C 115.893,188.376 115.56,188.043 115.5,187.5C 123.456,177.706 131.623,168.039 140,158.5C 215.487,79.9604 306.987,30.2938 414.5,9.5C 417.152,9.59047 419.485,8.92381 421.5,7.5C 442.966,3.48529 464.633,1.15196 486.5,0.5 Z"/></g>
<g><path style="opacity:1" fill="#a01d46" d="M 564.5,2.5 C 570.034,2.66848 575.367,3.33514 580.5,4.5C 574.902,4.84428 569.568,4.17761 564.5,2.5 Z"/></g>
<g><path style="opacity:1" fill="#ec2d67" d="M 486.5,0.5 C 486.5,0.166667 486.5,-0.166667 486.5,-0.5C 502.5,-0.5 518.5,-0.5 534.5,-0.5C 544.302,1.04146 554.302,2.04146 564.5,2.5C 569.568,4.17761 574.902,4.84428 580.5,4.5C 599.576,7.41475 618.576,10.9148 637.5,15C 638.056,15.3826 638.389,15.8826 638.5,16.5C 608.508,30.8294 578.508,45.1627 548.5,59.5C 523.152,38.2733 493.818,28.6066 460.5,30.5C 466.319,29.6724 472.319,29.1724 478.5,29C 472.5,28.6667 466.5,28.3333 460.5,28C 479.833,19 499.167,10 518.5,1C 507.839,0.500163 497.172,0.333496 486.5,0.5 Z"/></g>
<g><path style="opacity:1" fill="#951542" d="M 421.5,7.5 C 419.485,8.92381 417.152,9.59047 414.5,9.5C 416.515,8.07619 418.848,7.40953 421.5,7.5 Z"/></g>
<g><path style="opacity:1" fill="#ed3566" d="M 638.5,16.5 C 659.952,20.9848 680.619,27.6515 700.5,36.5C 659.17,56.1651 617.836,75.8317 576.5,95.5C 569.046,82.0453 559.713,70.0453 548.5,59.5C 578.508,45.1627 608.508,30.8294 638.5,16.5 Z"/></g>
<g><path style="opacity:1" fill="#fefefe" d="M 460.5,30.5 C 493.818,28.6066 523.152,38.2733 548.5,59.5C 559.713,70.0453 569.046,82.0453 576.5,95.5C 582.088,107.598 587.088,119.931 591.5,132.5C 594.087,142.559 597.42,152.226 601.5,161.5C 606.539,179.599 611.539,197.599 616.5,215.5C 621.49,234.793 626.157,254.126 630.5,273.5C 630.954,277.815 631.954,281.981 633.5,286C 678.477,292.095 708.144,273.928 722.5,231.5C 728.988,207.216 735.321,182.883 741.5,158.5C 746.115,135.139 755.281,113.806 769,94.5C 773.702,89.6301 778.535,84.9634 783.5,80.5C 802.824,92.6443 821.49,105.811 839.5,120C 857.636,134.636 874.302,150.802 889.5,168.5C 886.975,190.272 883.642,211.939 879.5,233.5C 873.411,257.092 864.745,279.758 853.5,301.5C 846.641,312.541 839.141,323.207 831,333.5C 815.039,353.294 798.539,372.627 781.5,391.5C 757.867,415.3 734.367,439.3 711,463.5C 705.821,471.058 704.154,479.391 706,488.5C 706.608,490.066 707.442,491.4 708.5,492.5C 710.033,496.704 712.7,500.037 716.5,502.5C 730.142,513.804 743.809,525.137 757.5,536.5C 765.602,544.39 773.935,552.057 782.5,559.5C 789.159,567.492 796.159,575.159 803.5,582.5C 810.082,591.333 816.415,600.333 822.5,609.5C 826.459,617.084 830.126,624.75 833.5,632.5C 835.285,639.588 836.951,646.588 838.5,653.5C 839.426,669.471 842.759,684.804 848.5,699.5C 853.274,716.832 859.608,733.498 867.5,749.5C 869.395,755.618 872.061,761.285 875.5,766.5C 878.126,774.419 881.793,781.752 886.5,788.5C 892.833,800.5 899.167,812.5 905.5,824.5C 905.676,829.88 905.342,835.213 904.5,840.5C 887.786,863.716 868.12,884.216 845.5,902C 832.822,911.668 819.822,920.835 806.5,929.5C 794.295,931.927 781.961,932.927 769.5,932.5C 753.505,930.957 739.838,924.624 728.5,913.5C 721.913,904.991 716.913,895.658 713.5,885.5C 712.5,878.166 711.5,870.832 710.5,863.5C 709.462,851.118 708.462,838.785 707.5,826.5C 707.288,814.248 705.621,802.248 702.5,790.5C 698.67,769.527 691.003,750.193 679.5,732.5C 676.27,726.273 672.27,720.607 667.5,715.5C 652.361,698.431 633.361,689.098 610.5,687.5C 604.69,686.51 598.69,686.177 592.5,686.5C 592.19,689.713 592.523,692.713 593.5,695.5C 595.78,714.417 596.78,733.417 596.5,752.5C 595.467,760.655 594.8,768.988 594.5,777.5C 592.091,799.057 588.424,820.39 583.5,841.5C 576.663,867.511 564.329,890.511 546.5,910.5C 531.814,925.987 514.48,937.821 494.5,946C 467.816,958.679 440.15,968.512 411.5,975.5C 385.127,981.701 358.461,983.534 331.5,981C 321.245,979.436 311.245,976.936 301.5,973.5C 273.899,961.23 255.899,940.563 247.5,911.5C 244.47,902.403 242.47,893.07 241.5,883.5C 240.417,870.754 242.084,858.421 246.5,846.5C 260.854,822.302 282.187,808.636 310.5,805.5C 315.731,805.556 320.731,804.889 325.5,803.5C 339.503,802.916 353.503,802.083 367.5,801C 409.19,791.084 427.857,764.918 423.5,722.5C 422.264,713.454 419.264,705.121 414.5,697.5C 407.263,681.357 399.263,665.69 390.5,650.5C 388.336,645.5 385.669,640.833 382.5,636.5C 372.92,618.333 362.587,600.666 351.5,583.5C 344.971,570.993 337.305,559.327 328.5,548.5C 275.991,565.583 227.991,590.749 184.5,624C 168.833,638.333 153.167,652.667 137.5,667C 120.421,680.709 101.421,691.043 80.5,698C 63.6922,702.741 47.6922,700.908 32.5,692.5C 20.375,655.33 11.7084,617.33 6.5,578.5C 5.88575,574.865 5.55241,571.198 5.5,567.5C 57.3339,513.25 117.001,469.75 184.5,437C 220.5,423 256.5,409 292.5,395C 293.022,394.439 293.355,393.772 293.5,393C 289.838,383.839 286.505,374.672 283.5,365.5C 278.301,347.023 272.968,328.69 267.5,310.5C 265.271,298.689 262.938,287.023 260.5,275.5C 258.234,261.429 256.567,247.429 255.5,233.5C 255.5,221.833 255.5,210.167 255.5,198.5C 255.833,197.167 256.167,195.833 256.5,194.5C 257.889,189.731 258.556,184.731 258.5,179.5C 259.694,171.725 261.361,164.059 263.5,156.5C 269.921,138.985 278.921,122.985 290.5,108.5C 306.313,92.8543 323.98,79.6876 343.5,69C 379.773,47.8535 418.773,35.0202 460.5,30.5 Z"/></g>
<g><path style="opacity:1" fill="#ee3b65" d="M 700.5,36.5 C 716.949,42.3087 732.615,49.6421 747.5,58.5C 744.194,61.1577 740.527,63.3244 736.5,65C 687.9,86.9672 639.567,109.467 591.5,132.5C 587.088,119.931 582.088,107.598 576.5,95.5C 617.836,75.8317 659.17,56.1651 700.5,36.5 Z"/></g>
<g><path style="opacity:1" fill="#ee4164" d="M 747.5,58.5 C 758.962,64.0634 769.962,70.3968 780.5,77.5C 780.64,79.1238 779.973,80.2904 778.5,81C 742.864,97.4835 707.197,113.983 671.5,130.5C 670.583,129.873 669.583,129.539 668.5,129.5C 667.657,127.827 666.324,126.66 664.5,126C 654.319,124.078 649.319,128.245 649.5,138.5C 648.842,139.398 648.176,140.398 647.5,141.5C 632.833,148.5 618.167,155.5 603.5,162.5C 602.808,161.975 602.308,161.308 602,160.5C 601.601,160.728 601.435,161.062 601.5,161.5C 597.42,152.226 594.087,142.559 591.5,132.5C 639.567,109.467 687.9,86.9672 736.5,65C 740.527,63.3244 744.194,61.1577 747.5,58.5 Z"/></g>
<g><path style="opacity:1" fill="#ee3369" d="M 498.5,92.5 C 494.083,93.3561 489.75,94.8561 485.5,97C 465.074,107.213 444.408,116.88 423.5,126C 406.103,134.032 389.103,142.532 372.5,151.5C 387.287,123.228 409.954,104.061 440.5,94C 459.766,88.6232 479.099,88.1232 498.5,92.5 Z"/></g>
<g><path style="opacity:1" fill="#ee3567" d="M 498.5,92.5 C 515.331,95.0697 528.331,103.403 537.5,117.5C 538.171,118.847 538.171,120.014 537.5,121C 532.927,123.454 528.261,125.621 523.5,127.5C 520.28,124.117 516.614,121.284 512.5,119C 499.49,119.192 495.49,125.358 500.5,137.5C 500.53,138.497 500.03,139.164 499,139.5C 453.194,160.655 407.361,181.655 361.5,202.5C 361.665,205.518 361.498,208.518 361,211.5C 360.5,204.174 360.334,196.841 360.5,189.5C 361.515,175.793 365.515,163.127 372.5,151.5C 389.103,142.532 406.103,134.032 423.5,126C 444.408,116.88 465.074,107.213 485.5,97C 489.75,94.8561 494.083,93.3561 498.5,92.5 Z"/></g>
<g><path style="opacity:1" fill="#ef4863" d="M 780.5,77.5 C 781.833,78.1667 782.833,79.1667 783.5,80.5C 778.535,84.9634 773.702,89.6301 769,94.5C 755.281,113.806 746.115,135.139 741.5,158.5C 740.778,158.082 740.278,157.416 740,156.5C 704.575,173.129 669.075,189.629 633.5,206C 627.448,208.687 621.781,211.854 616.5,215.5C 611.539,197.599 606.539,179.599 601.5,161.5C 601.435,161.062 601.601,160.728 602,160.5C 602.308,161.308 602.808,161.975 603.5,162.5C 618.167,155.5 632.833,148.5 647.5,141.5C 648.176,140.398 648.842,139.398 649.5,138.5C 654.551,147.869 661.051,148.869 669,141.5C 671.12,137.289 670.953,133.289 668.5,129.5C 669.583,129.539 670.583,129.873 671.5,130.5C 707.197,113.983 742.864,97.4835 778.5,81C 779.973,80.2904 780.64,79.1238 780.5,77.5 Z"/></g>
<g><path style="opacity:1" fill="#ed2968" d="M 290.5,108.5 C 278.921,122.985 269.921,138.985 263.5,156.5C 201.389,184.486 139.556,213.152 78,242.5C 77.5357,241.906 77.369,241.239 77.5,240.5C 88.6228,221.713 101.289,204.046 115.5,187.5C 115.56,188.043 115.893,188.376 116.5,188.5C 174.293,161.268 232.293,134.602 290.5,108.5 Z"/></g>
<g><path style="opacity:1" fill="#fefafb" d="M 523.5,127.5 C 525.575,130.646 527.408,133.979 529,137.5C 530.675,150.493 525.175,155.993 512.5,154C 507.121,149.371 503.121,143.871 500.5,137.5C 495.49,125.358 499.49,119.192 512.5,119C 516.614,121.284 520.28,124.117 523.5,127.5 Z"/></g>
<g><path style="opacity:1" fill="#ee3c65" d="M 537.5,117.5 C 545.643,128.115 551.976,139.781 556.5,152.5C 556.67,153.822 556.337,154.989 555.5,156C 492.474,185.514 429.474,215.014 366.5,244.5C 360.256,226.545 358.256,208.212 360.5,189.5C 360.334,196.841 360.5,204.174 361,211.5C 361.498,208.518 361.665,205.518 361.5,202.5C 407.361,181.655 453.194,160.655 499,139.5C 500.03,139.164 500.53,138.497 500.5,137.5C 503.121,143.871 507.121,149.371 512.5,154C 525.175,155.993 530.675,150.493 529,137.5C 527.408,133.979 525.575,130.646 523.5,127.5C 528.261,125.621 532.927,123.454 537.5,121C 538.171,120.014 538.171,118.847 537.5,117.5 Z"/></g>
<g><path style="opacity:1" fill="#fef7f8" d="M 668.5,129.5 C 670.953,133.289 671.12,137.289 669,141.5C 661.051,148.869 654.551,147.869 649.5,138.5C 649.319,128.245 654.319,124.078 664.5,126C 666.324,126.66 667.657,127.827 668.5,129.5 Z"/></g>
<g><path style="opacity:1" fill="#ef4164" d="M 556.5,152.5 C 560.669,160.669 563.669,169.336 565.5,178.5C 565.777,181.448 565.444,184.281 564.5,187C 560.469,188.432 556.636,190.266 553,192.5C 552.583,191.244 551.75,190.577 550.5,190.5C 544.718,176.732 536.551,175.065 526,185.5C 525.294,189.887 525.46,194.22 526.5,198.5C 526.756,200.792 526.423,202.959 525.5,205C 477.14,228.175 428.473,250.675 379.5,272.5C 373.262,264.151 368.929,254.818 366.5,244.5C 429.474,215.014 492.474,185.514 555.5,156C 556.337,154.989 556.67,153.822 556.5,152.5 Z"/></g>
<g><path style="opacity:1" fill="#ed2e67" d="M 263.5,156.5 C 261.361,164.059 259.694,171.725 258.5,179.5C 257.111,184.269 256.444,189.269 256.5,194.5C 256.167,195.833 255.833,197.167 255.5,198.5C 254.849,197.909 254.182,197.243 253.5,196.5C 186.273,227.697 119.107,259.03 52,290.5C 51.2352,290.43 50.7352,290.097 50.5,289.5C 58.2345,272.355 67.2345,256.022 77.5,240.5C 77.369,241.239 77.5357,241.906 78,242.5C 139.556,213.152 201.389,184.486 263.5,156.5 Z"/></g>
<g><path style="opacity:1" fill="#ef4e60" d="M 741.5,158.5 C 735.321,182.883 728.988,207.216 722.5,231.5C 692.092,246.037 661.425,260.037 630.5,273.5C 626.157,254.126 621.49,234.793 616.5,215.5C 621.781,211.854 627.448,208.687 633.5,206C 669.075,189.629 704.575,173.129 740,156.5C 740.278,157.416 740.778,158.082 741.5,158.5 Z"/></g>
<g><path style="opacity:1" fill="#ee565e" d="M 889.5,168.5 C 902.702,180.359 914.036,193.692 923.5,208.5C 910.082,214.04 896.748,219.873 883.5,226C 882.384,228.739 881.051,231.239 879.5,233.5C 883.642,211.939 886.975,190.272 889.5,168.5 Z"/></g>
<g><path style="opacity:1" fill="#fefbfc" d="M 550.5,190.5 C 555.32,203.917 555.82,217.584 552,231.5C 550.833,234 549,235.833 546.5,237C 535.905,239.888 529.905,236.055 528.5,225.5C 529.509,218.518 529.675,211.518 529,204.5C 528.434,202.277 527.6,200.277 526.5,198.5C 525.46,194.22 525.294,189.887 526,185.5C 536.551,175.065 544.718,176.732 550.5,190.5 Z"/></g>
<g><path style="opacity:1" fill="#fcc8d2" d="M 258.5,179.5 C 258.556,184.731 257.889,189.731 256.5,194.5C 256.444,189.269 257.111,184.269 258.5,179.5 Z"/></g>
<g><path style="opacity:1" fill="#ef4963" d="M 565.5,178.5 C 571.155,194.597 573.322,211.263 572,228.5C 570.071,237.859 565.904,246.026 559.5,253C 522.989,282.622 481.156,299.122 434,302.5C 410.075,302.463 391.908,292.463 379.5,272.5C 428.473,250.675 477.14,228.175 525.5,205C 526.423,202.959 526.756,200.792 526.5,198.5C 527.6,200.277 528.434,202.277 529,204.5C 529.675,211.518 529.509,218.518 528.5,225.5C 529.905,236.055 535.905,239.888 546.5,237C 549,235.833 550.833,234 552,231.5C 555.82,217.584 555.32,203.917 550.5,190.5C 551.75,190.577 552.583,191.244 553,192.5C 556.636,190.266 560.469,188.432 564.5,187C 565.444,184.281 565.777,181.448 565.5,178.5 Z"/></g>
<g><path style="opacity:1" fill="#ed3466" d="M 255.5,198.5 C 255.5,210.167 255.5,221.833 255.5,233.5C 255.666,238.179 255.499,242.845 255,247.5C 254.692,246.692 254.192,246.025 253.5,245.5C 177.94,280.74 102.44,316.074 27,351.5C 26.51,350.207 26.3433,348.873 26.5,347.5C 32.7591,327.375 40.7591,308.041 50.5,289.5C 50.7352,290.097 51.2352,290.43 52,290.5C 119.107,259.03 186.273,227.697 253.5,196.5C 254.182,197.243 254.849,197.909 255.5,198.5 Z"/></g>
<g><path style="opacity:1" fill="#fef3f5" d="M 191.5,205.5 C 198.065,204.422 200.232,207.089 198,213.5C 193.294,216.892 190.461,215.725 189.5,210C 189.519,208.167 190.185,206.667 191.5,205.5 Z"/></g>
<g><path style="opacity:1" fill="#f05b5b" d="M 923.5,208.5 C 935.326,223.471 945.659,239.471 954.5,256.5C 920.826,271.753 887.326,287.42 854,303.5C 853.536,302.906 853.369,302.239 853.5,301.5C 864.745,279.758 873.411,257.092 879.5,233.5C 881.051,231.239 882.384,228.739 883.5,226C 896.748,219.873 910.082,214.04 923.5,208.5 Z"/></g>
<g><path style="opacity:1" fill="#f05460" d="M 722.5,231.5 C 708.144,273.928 678.477,292.095 633.5,286C 631.954,281.981 630.954,277.815 630.5,273.5C 661.425,260.037 692.092,246.037 722.5,231.5 Z"/></g>
<g><path style="opacity:1" fill="#ee3b65" d="M 255.5,233.5 C 256.567,247.429 258.234,261.429 260.5,275.5C 260.782,279.296 260.782,282.963 260.5,286.5C 177.833,325.167 95.1667,363.833 12.5,402.5C 11.7025,402.043 11.3691,401.376 11.5,400.5C 15.1104,382.348 20.1104,364.682 26.5,347.5C 26.3433,348.873 26.51,350.207 27,351.5C 102.44,316.074 177.94,280.74 253.5,245.5C 254.192,246.025 254.692,246.692 255,247.5C 255.499,242.845 255.666,238.179 255.5,233.5 Z"/></g>
<g><path style="opacity:1" fill="#f16158" d="M 954.5,256.5 C 963.708,270.245 971.374,284.911 977.5,300.5C 940.916,316.461 904.916,333.461 869.5,351.5C 869.167,351.5 868.833,351.5 868.5,351.5C 867.683,353.969 867.183,356.635 867,359.5C 866.667,356.833 866.333,354.167 866,351.5C 837.799,364.946 809.633,378.279 781.5,391.5C 798.539,372.627 815.039,353.294 831,333.5C 839.141,323.207 846.641,312.541 853.5,301.5C 853.369,302.239 853.536,302.906 854,303.5C 887.326,287.42 920.826,271.753 954.5,256.5 Z"/></g>
<g><path style="opacity:1" fill="#ee4164" d="M 260.5,275.5 C 262.938,287.023 265.271,298.689 267.5,310.5C 268.291,313.417 268.291,316.25 267.5,319C 218.254,342.124 168.921,364.958 119.5,387.5C 119.806,384.615 119.473,381.948 118.5,379.5C 117.746,376.909 116.079,375.076 113.5,374C 101.84,371.329 97.0069,375.829 99,387.5C 99.9959,389.66 101.496,391.327 103.5,392.5C 103.414,393.496 103.748,394.329 104.5,395C 71.2606,410.788 37.9273,426.288 4.5,441.5C 5.24362,437.881 5.57695,434.215 5.5,430.5C 6.88206,420.256 8.88206,410.256 11.5,400.5C 11.3691,401.376 11.7025,402.043 12.5,402.5C 95.1667,363.833 177.833,325.167 260.5,286.5C 260.782,282.963 260.782,279.296 260.5,275.5 Z"/></g>
<g><path style="opacity:1" fill="#f16754" d="M 977.5,300.5 C 986.588,319.086 993.921,338.419 999.5,358.5C 997.966,357.797 996.299,357.964 994.5,359C 955.812,376.784 917.312,394.951 879,413.5C 878.501,409.848 878.335,406.182 878.5,402.5C 878.644,395.344 881.644,389.844 887.5,386C 892.068,383.548 896.735,381.382 901.5,379.5C 902.043,379.44 902.376,379.107 902.5,378.5C 899.572,377.516 896.572,377.183 893.5,377.5C 887.348,378.592 882.182,376.925 878,372.5C 874.476,365.756 871.642,358.756 869.5,351.5C 904.916,333.461 940.916,316.461 977.5,300.5 Z"/></g>
<g><path style="opacity:1" fill="#ee4862" d="M 267.5,310.5 C 272.968,328.69 278.301,347.023 283.5,365.5C 283.657,366.873 283.49,368.207 283,369.5C 188.756,414.186 94.2557,458.186 -0.5,501.5C -0.5,493.167 -0.5,484.833 -0.5,476.5C 0.827984,464.967 2.16132,453.301 3.5,441.5C 3.83333,441.5 4.16667,441.5 4.5,441.5C 37.9273,426.288 71.2606,410.788 104.5,395C 103.748,394.329 103.414,393.496 103.5,392.5C 113.669,394.339 118.669,390.006 118.5,379.5C 119.473,381.948 119.806,384.615 119.5,387.5C 168.921,364.958 218.254,342.124 267.5,319C 268.291,316.25 268.291,313.417 267.5,310.5 Z"/></g>
<g><path style="opacity:1" fill="#f26855" d="M 868.5,351.5 C 868.989,360.197 867.489,368.531 864,376.5C 858.115,381.026 851.615,384.359 844.5,386.5C 843.624,386.369 842.957,386.702 842.5,387.5C 845.428,388.484 848.428,388.817 851.5,388.5C 858.289,388.646 864.122,390.979 869,395.5C 872.015,400.525 874.182,405.858 875.5,411.5C 875.67,412.822 875.337,413.989 874.5,415C 819.265,441.118 763.932,466.952 708.5,492.5C 707.442,491.4 706.608,490.066 706,488.5C 704.154,479.391 705.821,471.058 711,463.5C 734.367,439.3 757.867,415.3 781.5,391.5C 809.633,378.279 837.799,364.946 866,351.5C 866.333,354.167 866.667,356.833 867,359.5C 867.183,356.635 867.683,353.969 868.5,351.5 Z"/></g>
<g><path style="opacity:1" fill="#fef9f8" d="M 868.5,351.5 C 868.833,351.5 869.167,351.5 869.5,351.5C 871.642,358.756 874.476,365.756 878,372.5C 882.182,376.925 887.348,378.592 893.5,377.5C 896.167,378.167 898.833,378.833 901.5,379.5C 896.735,381.382 892.068,383.548 887.5,386C 881.644,389.844 878.644,395.344 878.5,402.5C 877.677,405.977 877.177,409.644 877,413.5C 876.722,412.584 876.222,411.918 875.5,411.5C 874.182,405.858 872.015,400.525 869,395.5C 864.122,390.979 858.289,388.646 851.5,388.5C 849.167,387.833 846.833,387.167 844.5,386.5C 851.615,384.359 858.115,381.026 864,376.5C 867.489,368.531 868.989,360.197 868.5,351.5 Z"/></g>
<g><path style="opacity:1" fill="#f16b52" d="M 999.5,358.5 C 1001.3,361.574 1002.3,364.908 1002.5,368.5C 909.522,411.655 816.522,454.822 723.5,498C 720.761,499.026 718.428,500.526 716.5,502.5C 712.7,500.037 710.033,496.704 708.5,492.5C 763.932,466.952 819.265,441.118 874.5,415C 875.337,413.989 875.67,412.822 875.5,411.5C 876.222,411.918 876.722,412.584 877,413.5C 877.177,409.644 877.677,405.977 878.5,402.5C 878.335,406.182 878.501,409.848 879,413.5C 917.312,394.951 955.812,376.784 994.5,359C 996.299,357.964 997.966,357.797 999.5,358.5 Z"/></g>
<g><path style="opacity:1" fill="#f26d4f" d="M 1002.5,368.5 C 1008.23,387.052 1012.56,406.052 1015.5,425.5C 1014.11,423.123 1013.28,420.457 1013,417.5C 927.958,457.359 842.792,497.026 757.5,536.5C 743.809,525.137 730.142,513.804 716.5,502.5C 718.428,500.526 720.761,499.026 723.5,498C 816.522,454.822 909.522,411.655 1002.5,368.5 Z"/></g>
<g><path style="opacity:1" fill="#ee4d61" d="M 283.5,365.5 C 286.505,374.672 289.838,383.839 293.5,393C 293.355,393.772 293.022,394.439 292.5,395C 256.5,409 220.5,423 184.5,437C 117.001,469.75 57.3339,513.25 5.5,567.5C 5.16667,567.5 4.83333,567.5 4.5,567.5C 2.60977,555.395 0.943108,543.395 -0.5,531.5C -0.5,521.5 -0.5,511.5 -0.5,501.5C 94.2557,458.186 188.756,414.186 283,369.5C 283.49,368.207 283.657,366.873 283.5,365.5 Z"/></g>
<g><path style="opacity:1" fill="#fefafa" d="M 118.5,379.5 C 118.669,390.006 113.669,394.339 103.5,392.5C 101.496,391.327 99.9959,389.66 99,387.5C 97.0069,375.829 101.84,371.329 113.5,374C 116.079,375.076 117.746,376.909 118.5,379.5 Z"/></g>
<g><path style="opacity:1" fill="#f8b1a2" d="M 893.5,377.5 C 896.572,377.183 899.572,377.516 902.5,378.5C 902.376,379.107 902.043,379.44 901.5,379.5C 898.833,378.833 896.167,378.167 893.5,377.5 Z"/></g>
<g><path style="opacity:1" fill="#f8ada0" d="M 844.5,386.5 C 846.833,387.167 849.167,387.833 851.5,388.5C 848.428,388.817 845.428,388.484 842.5,387.5C 842.957,386.702 843.624,386.369 844.5,386.5 Z"/></g>
<g><path style="opacity:1" fill="#f2714b" d="M 1015.5,425.5 C 1017.09,434.425 1018.09,443.425 1018.5,452.5C 1017.71,451.391 1017.21,450.058 1017,448.5C 1011.45,452.028 1005.62,455.194 999.5,458C 926.835,491.335 854.502,525.168 782.5,559.5C 773.935,552.057 765.602,544.39 757.5,536.5C 842.792,497.026 927.958,457.359 1013,417.5C 1013.28,420.457 1014.11,423.123 1015.5,425.5 Z"/></g>
<g><path style="opacity:1" fill="#92293d" d="M 5.5,430.5 C 5.57695,434.215 5.24362,437.881 4.5,441.5C 4.16667,441.5 3.83333,441.5 3.5,441.5C 3.80838,437.64 4.47505,433.974 5.5,430.5 Z"/></g>
<g><path style="opacity:1" fill="#f27448" d="M 1018.5,452.5 C 1019.07,466.015 1020.07,479.348 1021.5,492.5C 1021.5,508.167 1021.5,523.833 1021.5,539.5C 1021.17,539.5 1020.83,539.5 1020.5,539.5C 1020.5,531.5 1020.5,523.5 1020.5,515.5C 1020.32,504.472 1019.66,493.472 1018.5,482.5C 946.901,516.135 875.234,549.468 803.5,582.5C 796.159,575.159 789.159,567.492 782.5,559.5C 854.502,525.168 926.835,491.335 999.5,458C 1005.62,455.194 1011.45,452.028 1017,448.5C 1017.21,450.058 1017.71,451.391 1018.5,452.5 Z"/></g>
<g><path style="opacity:1" fill="#fefbf9" d="M 787.5,492.5 C 800.396,491.226 805.896,496.893 804,509.5C 799.021,516.99 792.521,518.49 784.5,514C 778.351,505.68 779.351,498.513 787.5,492.5 Z"/></g>
<g><path style="opacity:1" fill="#f37845" d="M 1020.5,515.5 C 954.646,545.511 888.979,576.011 823.5,607C 822.748,607.671 822.414,608.504 822.5,609.5C 816.415,600.333 810.082,591.333 803.5,582.5C 875.234,549.468 946.901,516.135 1018.5,482.5C 1019.66,493.472 1020.32,504.472 1020.5,515.5 Z"/></g>
<g><path style="opacity:1" fill="#f37a42" d="M 1020.5,515.5 C 1020.5,523.5 1020.5,531.5 1020.5,539.5C 1020.81,543.042 1020.48,546.375 1019.5,549.5C 1019.76,548.022 1019.43,546.689 1018.5,545.5C 956.656,574.257 894.989,603.257 833.5,632.5C 830.126,624.75 826.459,617.084 822.5,609.5C 822.414,608.504 822.748,607.671 823.5,607C 888.979,576.011 954.646,545.511 1020.5,515.5 Z"/></g>
<g><path style="opacity:1" fill="#000000" d="M -0.5,531.5 C 0.943108,543.395 2.60977,555.395 4.5,567.5C 4.11636,571.489 4.78303,575.155 6.5,578.5C 11.7084,617.33 20.375,655.33 32.5,692.5C 36.9359,703.83 41.9359,714.83 47.5,725.5C 56.0582,745.627 66.3915,764.627 78.5,782.5C 80.0002,786.173 82.0002,789.506 84.5,792.5C 93.7031,807.695 104.036,822.028 115.5,835.5C 122.487,844.485 129.821,853.152 137.5,861.5C 145.221,869.887 153.221,877.887 161.5,885.5C 167.371,892.427 174.037,898.427 181.5,903.5C 191.901,912.898 202.901,921.565 214.5,929.5C 240.08,947.698 267.414,963.032 296.5,975.5C 318.352,985.787 341.019,994.12 364.5,1000.5C 372.519,1003.59 380.852,1005.92 389.5,1007.5C 403.479,1011.63 417.812,1014.63 432.5,1016.5C 437.985,1017.9 443.651,1019.07 449.5,1020C 463.657,1021.11 477.657,1022.28 491.5,1023.5C 327.5,1023.5 163.5,1023.5 -0.5,1023.5C -0.5,859.5 -0.5,695.5 -0.5,531.5 Z"/></g>
<g><path style="opacity:1" fill="#f37d3f" d="M 1019.5,549.5 C 1019.54,556.711 1018.88,563.711 1017.5,570.5C 1017.72,569.325 1017.39,568.325 1016.5,567.5C 957.5,595 898.5,622.5 839.5,650C 838.663,651.011 838.33,652.178 838.5,653.5C 836.951,646.588 835.285,639.588 833.5,632.5C 894.989,603.257 956.656,574.257 1018.5,545.5C 1019.43,546.689 1019.76,548.022 1019.5,549.5 Z"/></g>
<g><path style="opacity:1" fill="#000000" d="M 1020.5,539.5 C 1020.83,539.5 1021.17,539.5 1021.5,539.5C 1021.5,700.833 1021.5,862.167 1021.5,1023.5C 860.833,1023.5 700.167,1023.5 539.5,1023.5C 558.486,1022.11 577.486,1019.77 596.5,1016.5C 672.631,1001.91 742.631,972.912 806.5,929.5C 819.822,920.835 832.822,911.668 845.5,902C 868.12,884.216 887.786,863.716 904.5,840.5C 905.833,839.833 906.833,838.833 907.5,837.5C 926.925,810.991 944.591,783.325 960.5,754.5C 967.642,742.752 973.642,730.419 978.5,717.5C 982.287,710.916 985.287,703.916 987.5,696.5C 993.409,682.595 998.575,668.262 1003,653.5C 1005.8,644.316 1007.96,634.983 1009.5,625.5C 1011.58,616.363 1013.25,607.029 1014.5,597.5C 1016.22,594.155 1016.88,590.489 1016.5,586.5C 1017.19,581.195 1017.53,575.862 1017.5,570.5C 1018.88,563.711 1019.54,556.711 1019.5,549.5C 1020.48,546.375 1020.81,543.042 1020.5,539.5 Z"/></g>
<g><path style="opacity:1" fill="#f16259" d="M 351.5,583.5 C 351.631,584.239 351.464,584.906 351,585.5C 350.275,583.842 349.108,583.342 347.5,584C 249.689,629.838 151.689,675.504 53.5,721C 50.8936,721.792 48.8936,723.292 47.5,725.5C 41.9359,714.83 36.9359,703.83 32.5,692.5C 47.6922,700.908 63.6922,702.741 80.5,698C 101.421,691.043 120.421,680.709 137.5,667C 153.167,652.667 168.833,638.333 184.5,624C 227.991,590.749 275.991,565.583 328.5,548.5C 337.305,559.327 344.971,570.993 351.5,583.5 Z"/></g>
<g><path style="opacity:1" fill="#f4803b" d="M 1017.5,570.5 C 1017.53,575.862 1017.19,581.195 1016.5,586.5C 1015.48,589.974 1014.81,593.64 1014.5,597.5C 1013.25,607.029 1011.58,616.363 1009.5,625.5C 955.628,650.616 901.962,675.283 848.5,699.5C 842.759,684.804 839.426,669.471 838.5,653.5C 838.33,652.178 838.663,651.011 839.5,650C 898.5,622.5 957.5,595 1016.5,567.5C 1017.39,568.325 1017.72,569.325 1017.5,570.5 Z"/></g>
<g><path style="opacity:1" fill="#484848" d="M 4.5,567.5 C 4.83333,567.5 5.16667,567.5 5.5,567.5C 5.55241,571.198 5.88575,574.865 6.5,578.5C 4.78303,575.155 4.11636,571.489 4.5,567.5 Z"/></g>
<g><path style="opacity:1" fill="#f16754" d="M 351.5,583.5 C 362.587,600.666 372.92,618.333 382.5,636.5C 382.719,637.675 382.386,638.675 381.5,639.5C 280.833,686.5 180.167,733.5 79.5,780.5C 78.7025,780.957 78.3691,781.624 78.5,782.5C 66.3915,764.627 56.0582,745.627 47.5,725.5C 48.8936,723.292 50.8936,721.792 53.5,721C 151.689,675.504 249.689,629.838 347.5,584C 349.108,583.342 350.275,583.842 351,585.5C 351.464,584.906 351.631,584.239 351.5,583.5 Z"/></g>
<g><path style="opacity:1" fill="#472714" d="M 1016.5,586.5 C 1016.88,590.489 1016.22,594.155 1014.5,597.5C 1014.81,593.64 1015.48,589.974 1016.5,586.5 Z"/></g>
<g><path style="opacity:1" fill="#f48534" d="M 1009.5,625.5 C 1007.96,634.983 1005.8,644.316 1003,653.5C 998.575,668.262 993.409,682.595 987.5,696.5C 987.631,695.761 987.464,695.094 987,694.5C 947.135,713.697 907.301,732.03 867.5,749.5C 859.608,733.498 853.274,716.832 848.5,699.5C 901.962,675.283 955.628,650.616 1009.5,625.5 Z"/></g>
<g><path style="opacity:1" fill="#f16b52" d="M 382.5,636.5 C 385.669,640.833 388.336,645.5 390.5,650.5C 389.85,650.196 389.183,649.863 388.5,649.5C 286.804,696.685 185.47,744.352 84.5,792.5C 82.0002,789.506 80.0002,786.173 78.5,782.5C 78.3691,781.624 78.7025,780.957 79.5,780.5C 180.167,733.5 280.833,686.5 381.5,639.5C 382.386,638.675 382.719,637.675 382.5,636.5 Z"/></g>
<g><path style="opacity:1" fill="#f26e4f" d="M 390.5,650.5 C 399.263,665.69 407.263,681.357 414.5,697.5C 413.504,697.586 412.671,697.252 412,696.5C 312.799,742.383 213.966,788.716 115.5,835.5C 104.036,822.028 93.7031,807.695 84.5,792.5C 185.47,744.352 286.804,696.685 388.5,649.5C 389.183,649.863 389.85,650.196 390.5,650.5 Z"/></g>
<g><path style="opacity:1" fill="#f9b294" d="M 610.5,687.5 C 604.833,687.5 599.167,687.5 593.5,687.5C 593.5,690.167 593.5,692.833 593.5,695.5C 592.523,692.713 592.19,689.713 592.5,686.5C 598.69,686.177 604.69,686.51 610.5,687.5 Z"/></g>
<g><path style="opacity:1" fill="#fff6f4" d="M 204.5,686.5 C 212.594,686.097 216.428,689.764 216,697.5C 211.175,705.061 205.841,705.394 200,698.5C 198.474,693.239 199.974,689.239 204.5,686.5 Z"/></g>
<g><path style="opacity:1" fill="#f58830" d="M 987.5,696.5 C 985.287,703.916 982.287,710.916 978.5,717.5C 978.631,716.624 978.298,715.957 977.5,715.5C 943.833,731.333 910.167,747.167 876.5,763C 875.663,764.011 875.33,765.178 875.5,766.5C 872.061,761.285 869.395,755.618 867.5,749.5C 907.301,732.03 947.135,713.697 987,694.5C 987.464,695.094 987.631,695.761 987.5,696.5 Z"/></g>
<g><path style="opacity:1" fill="#f47b43" d="M 610.5,687.5 C 633.361,689.098 652.361,698.431 667.5,715.5C 644.375,725.896 621.375,736.562 598.5,747.5C 597.83,749.291 597.163,750.958 596.5,752.5C 596.78,733.417 595.78,714.417 593.5,695.5C 593.5,692.833 593.5,690.167 593.5,687.5C 599.167,687.5 604.833,687.5 610.5,687.5 Z"/></g>
<g><path style="opacity:1" fill="#f2724b" d="M 414.5,697.5 C 419.264,705.121 422.264,713.454 423.5,722.5C 423.617,724.484 422.95,726.15 421.5,727.5C 328.923,770.957 236.256,814.123 143.5,857C 141.141,858.242 139.141,859.742 137.5,861.5C 129.821,853.152 122.487,844.485 115.5,835.5C 213.966,788.716 312.799,742.383 412,696.5C 412.671,697.252 413.504,697.586 414.5,697.5 Z"/></g>
<g><path style="opacity:1" fill="#f47e40" d="M 667.5,715.5 C 672.27,720.607 676.27,726.273 679.5,732.5C 652.13,744.589 624.63,757.256 597,770.5C 596.667,770.167 596.333,769.833 596,769.5C 595.817,772.365 595.317,775.031 594.5,777.5C 594.8,768.988 595.467,760.655 596.5,752.5C 597.163,750.958 597.83,749.291 598.5,747.5C 621.375,736.562 644.375,725.896 667.5,715.5 Z"/></g>
<g><path style="opacity:1" fill="#f58a2d" d="M 978.5,717.5 C 973.642,730.419 967.642,742.752 960.5,754.5C 960.44,753.957 960.107,753.624 959.5,753.5C 934.892,764.974 910.559,776.64 886.5,788.5C 881.793,781.752 878.126,774.419 875.5,766.5C 875.33,765.178 875.663,764.011 876.5,763C 910.167,747.167 943.833,731.333 977.5,715.5C 978.298,715.957 978.631,716.624 978.5,717.5 Z"/></g>
<g><path style="opacity:1" fill="#f27549" d="M 423.5,722.5 C 427.857,764.918 409.19,791.084 367.5,801C 353.503,802.083 339.503,802.916 325.5,803.5C 320.269,803.444 315.269,804.111 310.5,805.5C 282.187,808.636 260.854,822.302 246.5,846.5C 245.883,846.389 245.383,846.056 245,845.5C 216.878,858.48 189.044,871.813 161.5,885.5C 153.221,877.887 145.221,869.887 137.5,861.5C 139.141,859.742 141.141,858.242 143.5,857C 236.256,814.123 328.923,770.957 421.5,727.5C 422.95,726.15 423.617,724.484 423.5,722.5 Z"/></g>
<g><path style="opacity:1" fill="#f4813c" d="M 679.5,732.5 C 691.003,750.193 698.67,769.527 702.5,790.5C 701.351,785.85 698.684,784.683 694.5,787C 658.62,804.107 622.62,820.94 586.5,837.5C 585.85,839.184 584.85,840.517 583.5,841.5C 588.424,820.39 592.091,799.057 594.5,777.5C 595.317,775.031 595.817,772.365 596,769.5C 596.333,769.833 596.667,770.167 597,770.5C 624.63,757.256 652.13,744.589 679.5,732.5 Z"/></g>
<g><path style="opacity:1" fill="#f48d28" d="M 960.5,754.5 C 944.591,783.325 926.925,810.991 907.5,837.5C 906.833,833.167 906.167,828.833 905.5,824.5C 899.167,812.5 892.833,800.5 886.5,788.5C 910.559,776.64 934.892,764.974 959.5,753.5C 960.107,753.624 960.44,753.957 960.5,754.5 Z"/></g>
<g><path style="opacity:1" fill="#f58635" d="M 702.5,790.5 C 705.621,802.248 707.288,814.248 707.5,826.5C 706.809,830.899 706.142,835.399 705.5,840C 683.045,850.645 660.545,861.145 638,871.5C 637.96,868.445 637.127,866.445 635.5,865.5C 631.228,861.726 626.228,860.559 620.5,862C 614.254,867.536 613.921,873.37 619.5,879.5C 596.345,890.91 573.012,902.076 549.5,913C 546.049,913.747 545.716,913.08 548.5,911C 547.906,910.536 547.239,910.369 546.5,910.5C 564.329,890.511 576.663,867.511 583.5,841.5C 584.85,840.517 585.85,839.184 586.5,837.5C 622.62,820.94 658.62,804.107 694.5,787C 698.684,784.683 701.351,785.85 702.5,790.5 Z"/></g>
<g><path style="opacity:1" fill="#fdd1bf" d="M 325.5,803.5 C 320.731,804.889 315.731,805.556 310.5,805.5C 315.269,804.111 320.269,803.444 325.5,803.5 Z"/></g>
<g><path style="opacity:1" fill="#f58931" d="M 707.5,826.5 C 708.462,838.785 709.462,851.118 710.5,863.5C 710.018,860.954 709.018,858.621 707.5,856.5C 601.015,906.574 494.348,956.407 387.5,1006C 388.416,1006.28 389.082,1006.78 389.5,1007.5C 380.852,1005.92 372.519,1003.59 364.5,1000.5C 364.369,999.624 364.702,998.957 365.5,998.5C 381.452,991.857 396.785,984.191 411.5,975.5C 440.15,968.512 467.816,958.679 494.5,946C 514.48,937.821 531.814,925.987 546.5,910.5C 547.239,910.369 547.906,910.536 548.5,911C 545.716,913.08 546.049,913.747 549.5,913C 573.012,902.076 596.345,890.91 619.5,879.5C 631.807,883.205 637.141,878.539 635.5,865.5C 637.127,866.445 637.96,868.445 638,871.5C 660.545,861.145 683.045,850.645 705.5,840C 706.142,835.399 706.809,830.899 707.5,826.5 Z"/></g>
<g><path style="opacity:1" fill="#e7a45f" d="M 905.5,824.5 C 906.167,828.833 906.833,833.167 907.5,837.5C 906.833,838.833 905.833,839.833 904.5,840.5C 905.342,835.213 905.676,829.88 905.5,824.5 Z"/></g>
<g><path style="opacity:1" fill="#f27746" d="M 246.5,846.5 C 242.084,858.421 240.417,870.754 241.5,883.5C 240.674,879.018 240.174,874.351 240,869.5C 239.749,871.433 239.249,873.266 238.5,875C 221.621,883.273 204.621,891.273 187.5,899C 184.823,899.814 182.823,901.314 181.5,903.5C 174.037,898.427 167.371,892.427 161.5,885.5C 189.044,871.813 216.878,858.48 245,845.5C 245.383,846.056 245.883,846.389 246.5,846.5 Z"/></g>
<g><path style="opacity:1" fill="#f58a2d" d="M 710.5,863.5 C 711.5,870.832 712.5,878.166 713.5,885.5C 619.613,928.947 525.947,972.613 432.5,1016.5C 417.812,1014.63 403.479,1011.63 389.5,1007.5C 389.082,1006.78 388.416,1006.28 387.5,1006C 494.348,956.407 601.015,906.574 707.5,856.5C 709.018,858.621 710.018,860.954 710.5,863.5 Z"/></g>
<g><path style="opacity:1" fill="#fffaf6" d="M 635.5,865.5 C 637.141,878.539 631.807,883.205 619.5,879.5C 613.921,873.37 614.254,867.536 620.5,862C 626.228,860.559 631.228,861.726 635.5,865.5 Z"/></g>
<g><path style="opacity:1" fill="#f37a43" d="M 241.5,883.5 C 242.47,893.07 244.47,902.403 247.5,911.5C 236.074,916.378 224.74,921.545 213.5,927C 214.252,927.671 214.586,928.504 214.5,929.5C 202.901,921.565 191.901,912.898 181.5,903.5C 182.823,901.314 184.823,899.814 187.5,899C 204.621,891.273 221.621,883.273 238.5,875C 239.249,873.266 239.749,871.433 240,869.5C 240.174,874.351 240.674,879.018 241.5,883.5 Z"/></g>
<g><path style="opacity:1" fill="#f58d28" d="M 713.5,885.5 C 716.913,895.658 721.913,904.991 728.5,913.5C 651.084,949.578 573.751,985.745 496.5,1022C 501.684,1022.17 506.684,1022.67 511.5,1023.5C 504.833,1023.5 498.167,1023.5 491.5,1023.5C 477.657,1022.28 463.657,1021.11 449.5,1020C 443.651,1019.07 437.985,1017.9 432.5,1016.5C 525.947,972.613 619.613,928.947 713.5,885.5 Z"/></g>
<g><path style="opacity:1" fill="#f69022" d="M 728.5,913.5 C 739.838,924.624 753.505,930.957 769.5,932.5C 769.586,933.496 769.252,934.329 768.5,935C 715.589,959.957 662.589,984.623 609.5,1009C 604.777,1011.02 600.443,1013.52 596.5,1016.5C 577.486,1019.77 558.486,1022.11 539.5,1023.5C 530.167,1023.5 520.833,1023.5 511.5,1023.5C 506.684,1022.67 501.684,1022.17 496.5,1022C 573.751,985.745 651.084,949.578 728.5,913.5 Z"/></g>
<g><path style="opacity:1" fill="#f07e3e" d="M 247.5,911.5 C 255.899,940.563 273.899,961.23 301.5,973.5C 299.856,973.714 298.356,973.38 297,972.5C 295.272,973.352 295.105,974.352 296.5,975.5C 267.414,963.032 240.08,947.698 214.5,929.5C 214.586,928.504 214.252,927.671 213.5,927C 224.74,921.545 236.074,916.378 247.5,911.5 Z"/></g>
<g><path style="opacity:1" fill="#f3911e" d="M 806.5,929.5 C 742.631,972.912 672.631,1001.91 596.5,1016.5C 600.443,1013.52 604.777,1011.02 609.5,1009C 662.589,984.623 715.589,959.957 768.5,935C 769.252,934.329 769.586,933.496 769.5,932.5C 781.961,932.927 794.295,931.927 806.5,929.5 Z"/></g>
<g><path style="opacity:1" fill="#f18534" d="M 301.5,973.5 C 311.245,976.936 321.245,979.436 331.5,981C 358.461,983.534 385.127,981.701 411.5,975.5C 396.785,984.191 381.452,991.857 365.5,998.5C 364.702,998.957 364.369,999.624 364.5,1000.5C 341.019,994.12 318.352,985.787 296.5,975.5C 295.105,974.352 295.272,973.352 297,972.5C 298.356,973.38 299.856,973.714 301.5,973.5 Z"/></g>
</svg>
