<?xml version="1.0" encoding="UTF-8"?>
<!DOCTYPE svg PUBLIC "-//W3C//DTD SVG 1.1//EN" "http://www.w3.org/Graphics/SVG/1.1/DTD/svg11.dtd">
<svg xmlns="http://www.w3.org/2000/svg" version="1.1" width="277px" height="255px" style="shape-rendering:geometricPrecision; text-rendering:geometricPrecision; image-rendering:optimizeQuality; fill-rule:evenodd; clip-rule:evenodd" xmlns:xlink="http://www.w3.org/1999/xlink">
<g><path style="opacity:0.857" fill="#4d0000" d="M 132.5,68.5 C 131.209,68.2627 130.209,68.596 129.5,69.5C 122.967,71.2056 116.301,71.8722 109.5,71.5C 108.167,71.1667 106.833,70.8333 105.5,70.5C 86.9399,63.7396 78.7733,50.4062 81,30.5C 87.8004,7.67697 102.967,-1.48969 126.5,3C 142.372,8.72838 150.705,20.0617 151.5,37C 150.68,50.9538 144.347,61.4538 132.5,68.5 Z"/></g>
<g><path style="opacity:1" fill="#de2d0b" d="M 143.5,21.5 C 143.003,23.5972 142.67,25.4305 142.5,27C 139.655,27.6693 137.988,26.5027 137.5,23.5C 135.486,20.6534 132.986,18.3201 130,16.5C 118.056,25.4396 106.389,34.7729 95,44.5C 94.3582,48.5497 95.8582,51.5497 99.5,53.5C 102.004,56.238 104.671,58.738 107.5,61C 106.571,63.9088 104.571,65.0755 101.5,64.5C 92.4965,60.3218 86.9965,53.3218 85,43.5C 82.3989,24.86 89.8989,12.36 107.5,6C 123.197,2.94389 135.197,8.11056 143.5,21.5 Z"/></g>
<g><path style="opacity:1" fill="#fef9f8" d="M 102.5,12.5 C 110.064,13.7188 112.564,18.0521 110,25.5C 106.295,33.8771 100.629,35.8771 93,31.5C 90.9189,22.3275 94.0856,15.9942 102.5,12.5 Z"/></g>
<g><path style="opacity:1" fill="#bc1a05" d="M 137.5,23.5 C 125.121,33.881 112.454,43.881 99.5,53.5C 95.8582,51.5497 94.3582,48.5497 95,44.5C 106.389,34.7729 118.056,25.4396 130,16.5C 132.986,18.3201 135.486,20.6534 137.5,23.5 Z"/></g>
<g><path style="opacity:1" fill="#880100" d="M 147.5,40.5 C 144.846,55.3213 136.179,64.488 121.5,68C 116.98,68.8136 112.646,68.647 108.5,67.5C 112.326,67.2033 115.326,65.3699 117.5,62C 115.5,61.6667 113.5,61.3333 111.5,61C 110.044,60.5774 109.544,59.7441 110,58.5C 120,50.5 130,42.5 140,34.5C 140.176,37.8818 140.676,41.2152 141.5,44.5C 143.264,42.7224 145.264,41.3891 147.5,40.5 Z"/></g>
<g><path style="opacity:1" fill="#a20e02" d="M 143.5,21.5 C 146.977,27.2529 148.31,33.5862 147.5,40.5C 145.264,41.3891 143.264,42.7224 141.5,44.5C 140.676,41.2152 140.176,37.8818 140,34.5C 130,42.5 120,50.5 110,58.5C 109.544,59.7441 110.044,60.5774 111.5,61C 113.5,61.3333 115.5,61.6667 117.5,62C 115.326,65.3699 112.326,67.2033 108.5,67.5C 105.654,67.4484 103.32,66.4484 101.5,64.5C 104.571,65.0755 106.571,63.9088 107.5,61C 104.671,58.738 102.004,56.238 99.5,53.5C 112.454,43.881 125.121,33.881 137.5,23.5C 137.988,26.5027 139.655,27.6693 142.5,27C 142.67,25.4305 143.003,23.5972 143.5,21.5 Z"/></g>
<g><path style="opacity:0.932" fill="#373635" d="M 132.5,68.5 C 133.586,75.7746 134.252,83.108 134.5,90.5C 134.232,92.099 134.566,93.4324 135.5,94.5C 135.5,98.1667 135.5,101.833 135.5,105.5C 135.714,107.144 135.38,108.644 134.5,110C 135.094,110.464 135.761,110.631 136.5,110.5C 136.5,111.833 136.5,113.167 136.5,114.5C 135.209,114.737 134.209,114.404 133.5,113.5C 131.746,98.8743 130.413,84.2076 129.5,69.5C 130.209,68.596 131.209,68.2627 132.5,68.5 Z"/></g>
<g><path style="opacity:1" fill="#656464" d="M 129.5,69.5 C 130.413,84.2076 131.746,98.8743 133.5,113.5C 131.167,113.5 128.833,113.5 126.5,113.5C 125.397,106.88 124.73,100.214 124.5,93.5C 120.167,93.5 115.833,93.5 111.5,93.5C 110.893,86.1599 110.227,78.8265 109.5,71.5C 116.301,71.8722 122.967,71.2056 129.5,69.5 Z"/></g>
<g><path style="opacity:0.928" fill="#383736" d="M 105.5,70.5 C 106.833,70.8333 108.167,71.1667 109.5,71.5C 110.227,78.8265 110.893,86.1599 111.5,93.5C 112.214,100.49 112.88,107.49 113.5,114.5C 112.391,114.557 111.391,114.89 110.5,115.5C 110.672,114.508 110.338,113.842 109.5,113.5C 109.779,108.405 109.445,103.405 108.5,98.5C 108.768,96.901 108.434,95.5676 107.5,94.5C 107.49,86.3955 106.823,78.3955 105.5,70.5 Z"/></g>
<g><path style="opacity:0.878" fill="#493704" d="M 134.5,90.5 C 181.407,94.5272 216.574,116.861 240,157.5C 241.958,156.048 243.958,155.715 246,156.5C 246.771,159.859 247.605,163.192 248.5,166.5C 249.991,167.244 251.491,167.91 253,168.5C 257,173.833 261,179.167 265,184.5C 266.153,187.711 266.82,191.044 267,194.5C 275.578,200.551 276.911,207.884 271,216.5C 267.31,214.969 263.477,214.469 259.5,215C 257.833,217.333 256.167,219.667 254.5,222C 250.459,222.173 246.459,222.673 242.5,223.5C 240.31,225.856 238.31,228.356 236.5,231C 232.514,231.499 228.514,231.666 224.5,231.5C 224.785,233.288 224.452,234.955 223.5,236.5C 219.167,239.333 214.833,242.167 210.5,245C 202.74,245.264 195.074,244.43 187.5,242.5C 185.038,245.138 182.704,247.972 180.5,251C 176.789,251.825 173.122,251.659 169.5,250.5C 169.135,249.098 168.301,248.098 167,247.5C 162.19,248.937 157.356,250.27 152.5,251.5C 146.858,250.512 141.858,248.178 137.5,244.5C 126.831,250.151 116.331,249.818 106,243.5C 103.602,244.856 101.102,246.023 98.5,247C 90.8333,247.667 83.1667,247.667 75.5,247C 72.93,244.933 70.93,242.433 69.5,239.5C 61.7047,239.036 54.0381,237.869 46.5,236C 41.9424,230.201 35.9424,227.868 28.5,229C 25.9658,223.462 21.6325,220.962 15.5,221.5C 13.6829,216.298 10.0162,214.131 4.5,215C 3.97814,214.439 3.6448,213.772 3.5,213C 4.20366,209.872 4.70366,206.706 5,203.5C 7.7383,202.518 10.5716,201.852 13.5,201.5C 12.7053,196.851 12.5386,192.184 13,187.5C 18.4952,184.753 23.8286,181.753 29,178.5C 33.3511,146.824 49.5178,123.324 77.5,108C 87.3086,102.798 97.3086,98.2981 107.5,94.5C 108.434,95.5676 108.768,96.901 108.5,98.5C 99.2589,101.457 90.5923,105.457 82.5,110.5C 75.6786,113.331 69.6786,117.331 64.5,122.5C 40.2837,140.461 30.2837,164.461 34.5,194.5C 38.2009,192.097 42.2009,191.263 46.5,192C 49.6908,195.69 52.6908,199.523 55.5,203.5C 60.1315,204.328 64.7982,204.828 69.5,205C 71.0412,206.579 72.2078,208.413 73,210.5C 75.7992,207.02 79.1326,204.353 83,202.5C 91.5204,204.926 99.1871,208.926 106,214.5C 112.266,206.395 119.766,204.562 128.5,209C 130.293,210.78 131.96,212.613 133.5,214.5C 136.024,212.81 138.024,210.643 139.5,208C 145.891,207.644 152.224,208.144 158.5,209.5C 163.316,210.326 168.316,210.826 173.5,211C 175.993,213.08 178.659,214.914 181.5,216.5C 185.658,211.509 190.325,207.009 195.5,203C 201.845,202.556 208.178,202.723 214.5,203.5C 214.5,203.833 214.5,204.167 214.5,204.5C 216.99,208.138 219.49,211.805 222,215.5C 221.898,219.956 222.732,223.956 224.5,227.5C 227.85,227.665 231.183,227.498 234.5,227C 236.31,224.356 238.31,221.856 240.5,219.5C 235.879,213.717 231.879,207.55 228.5,201C 224.108,200.704 219.942,201.538 216,203.5C 215.601,203.272 215.435,202.938 215.5,202.5C 216.29,201.206 217.29,200.039 218.5,199C 222.573,198.212 226.573,197.212 230.5,196C 231.996,192.851 233.496,189.684 235,186.5C 236.11,184.757 237.61,183.424 239.5,182.5C 238.881,175.155 238.048,167.821 237,160.5C 231.275,149.696 224.108,140.029 215.5,131.5C 193.724,108.95 167.058,96.6169 135.5,94.5C 134.566,93.4324 134.232,92.099 134.5,90.5 Z"/></g>
<g><path style="opacity:1" fill="#babab6" d="M 111.5,93.5 C 115.833,93.5 120.167,93.5 124.5,93.5C 124.73,100.214 125.397,106.88 126.5,113.5C 122.102,113.294 117.768,113.627 113.5,114.5C 112.88,107.49 112.214,100.49 111.5,93.5 Z"/></g>
<g><path style="opacity:1" fill="#d4b776" d="M 135.5,94.5 C 167.058,96.6169 193.724,108.95 215.5,131.5C 199.977,120.241 182.644,113.741 163.5,112C 170.833,116.667 178.167,121.333 185.5,126C 188.631,130.133 192.131,133.966 196,137.5C 199.371,153.316 203.204,168.983 207.5,184.5C 200.122,187.959 192.455,190.626 184.5,192.5C 184.5,194.167 184.5,195.833 184.5,197.5C 178.221,200.976 171.888,204.476 165.5,208C 163.26,208.977 160.927,209.477 158.5,209.5C 152.224,208.144 145.891,207.644 139.5,208C 138.024,210.643 136.024,212.81 133.5,214.5C 131.96,212.613 130.293,210.78 128.5,209C 119.766,204.562 112.266,206.395 106,214.5C 99.1871,208.926 91.5204,204.926 83,202.5C 79.1326,204.353 75.7992,207.02 73,210.5C 72.2078,208.413 71.0412,206.579 69.5,205C 64.7982,204.828 60.1315,204.328 55.5,203.5C 52.6908,199.523 49.6908,195.69 46.5,192C 42.2009,191.263 38.2009,192.097 34.5,194.5C 30.2837,164.461 40.2837,140.461 64.5,122.5C 57.8883,131.868 57.8883,141.201 64.5,150.5C 69.8784,155.808 76.3784,158.141 84,157.5C 95.9953,157.752 105.495,153.085 112.5,143.5C 113.167,143.5 113.5,143.833 113.5,144.5C 113.5,146.5 113.5,148.5 113.5,150.5C 120.588,151.652 126.922,150.152 132.5,146C 133.685,144.647 135.019,143.48 136.5,142.5C 135.113,140.79 133.779,139.123 132.5,137.5C 132.813,134.753 132.48,132.086 131.5,129.5C 128.171,131.506 125.171,133.839 122.5,136.5C 120.379,136.325 118.379,136.659 116.5,137.5C 117.295,132.851 117.461,128.184 117,123.5C 116.208,120.894 114.708,118.894 112.5,117.5C 120.679,116.243 129.012,116.243 137.5,117.5C 138.5,117.333 139.5,117.167 140.5,117C 139.142,116.066 137.808,115.232 136.5,114.5C 136.5,113.167 136.5,111.833 136.5,110.5C 141.046,110.732 145.379,109.899 149.5,108C 145.221,105.91 141.054,106.077 137,108.5C 136.768,107.263 136.268,106.263 135.5,105.5C 135.5,101.833 135.5,98.1667 135.5,94.5 Z"/></g>
<g><path style="opacity:1" fill="#d0b474" d="M 108.5,98.5 C 109.445,103.405 109.779,108.405 109.5,113.5C 101.033,108.337 92.0326,107.337 82.5,110.5C 90.5923,105.457 99.2589,101.457 108.5,98.5 Z"/></g>
<g><path style="opacity:1" fill="#53410f" d="M 135.5,105.5 C 136.268,106.263 136.768,107.263 137,108.5C 141.054,106.077 145.221,105.91 149.5,108C 145.379,109.899 141.046,110.732 136.5,110.5C 135.761,110.631 135.094,110.464 134.5,110C 135.38,108.644 135.714,107.144 135.5,105.5 Z"/></g>
<g><path style="opacity:1" fill="#e3d1a7" d="M 109.5,113.5 C 110.338,113.842 110.672,114.508 110.5,115.5C 109.711,115.783 109.044,116.283 108.5,117C 109.793,117.49 111.127,117.657 112.5,117.5C 114.708,118.894 116.208,120.894 117,123.5C 117.461,128.184 117.295,132.851 116.5,137.5C 114.413,138.585 113.08,140.251 112.5,142.5C 112.5,142.833 112.5,143.167 112.5,143.5C 105.495,153.085 95.9953,157.752 84,157.5C 76.3784,158.141 69.8784,155.808 64.5,150.5C 57.8883,141.201 57.8883,131.868 64.5,122.5C 69.6786,117.331 75.6786,113.331 82.5,110.5C 92.0326,107.337 101.033,108.337 109.5,113.5 Z"/></g>
<g><path style="opacity:1" fill="#9c8156" d="M 215.5,131.5 C 224.108,140.029 231.275,149.696 237,160.5C 238.048,167.821 238.881,175.155 239.5,182.5C 237.61,183.424 236.11,184.757 235,186.5C 233.496,189.684 231.996,192.851 230.5,196C 226.573,197.212 222.573,198.212 218.5,199C 217.29,200.039 216.29,201.206 215.5,202.5C 214.833,202.5 214.5,202.833 214.5,203.5C 208.178,202.723 201.845,202.556 195.5,203C 190.325,207.009 185.658,211.509 181.5,216.5C 178.659,214.914 175.993,213.08 173.5,211C 168.316,210.826 163.316,210.326 158.5,209.5C 160.927,209.477 163.26,208.977 165.5,208C 171.888,204.476 178.221,200.976 184.5,197.5C 185.15,197.804 185.817,198.137 186.5,198.5C 187.452,196.955 187.785,195.288 187.5,193.5C 190.982,193.172 194.315,193.172 197.5,193.5C 199.094,196.764 201.427,199.431 204.5,201.5C 209.864,199.736 214.698,197.069 219,193.5C 219.87,189.361 219.037,185.694 216.5,182.5C 216.167,182.5 215.833,182.5 215.5,182.5C 217.603,181.35 219.603,180.017 221.5,178.5C 220.68,176.889 219.346,176.222 217.5,176.5C 217.719,177.675 217.386,178.675 216.5,179.5C 213.312,180.925 210.312,182.592 207.5,184.5C 203.204,168.983 199.371,153.316 196,137.5C 192.131,133.966 188.631,130.133 185.5,126C 178.167,121.333 170.833,116.667 163.5,112C 182.644,113.741 199.977,120.241 215.5,131.5 Z"/></g>
<g><path style="opacity:1" fill="#493907" d="M 126.5,113.5 C 128.833,113.5 131.167,113.5 133.5,113.5C 134.209,114.404 135.209,114.737 136.5,114.5C 137.808,115.232 139.142,116.066 140.5,117C 139.5,117.167 138.5,117.333 137.5,117.5C 129.012,116.243 120.679,116.243 112.5,117.5C 111.127,117.657 109.793,117.49 108.5,117C 109.044,116.283 109.711,115.783 110.5,115.5C 111.391,114.89 112.391,114.557 113.5,114.5C 117.768,113.627 122.102,113.294 126.5,113.5 Z"/></g>
<g><path style="opacity:1" fill="#9e8358" d="M 61.5,137.5 C 63.498,135.4 65.6647,133.4 68,131.5C 68.6917,130.563 68.525,129.897 67.5,129.5C 72.6866,123.6 74.3533,124.6 72.5,132.5C 70.2885,137.387 66.6218,140.387 61.5,141.5C 61.5,140.167 61.5,138.833 61.5,137.5 Z"/></g>
<g><path style="opacity:1" fill="#503e0b" d="M 67.5,129.5 C 68.525,129.897 68.6917,130.563 68,131.5C 65.6647,133.4 63.498,135.4 61.5,137.5C 60.6652,132.633 62.6652,129.966 67.5,129.5 Z"/></g>
<g><path style="opacity:1" fill="#9d8257" d="M 132.5,137.5 C 130.596,145.459 125.596,148.292 117.5,146C 116.255,145.209 114.922,144.709 113.5,144.5C 113.5,143.833 113.167,143.5 112.5,143.5C 112.5,143.167 112.5,142.833 112.5,142.5C 117.089,142.532 120.423,140.532 122.5,136.5C 125.171,133.839 128.171,131.506 131.5,129.5C 132.48,132.086 132.813,134.753 132.5,137.5 Z"/></g>
<g><path style="opacity:1" fill="#0b0a08" d="M 223.5,149.5 C 225.825,154.766 225.992,160.099 224,165.5C 221.806,167.837 219.306,168.17 216.5,166.5C 207.44,159.037 203.273,149.371 204,137.5C 207.196,133.813 210.696,133.647 214.5,137C 218.138,140.79 221.138,144.957 223.5,149.5 Z"/></g>
<g><path style="opacity:1" fill="#513f0b" d="M 122.5,136.5 C 120.423,140.532 117.089,142.532 112.5,142.5C 113.08,140.251 114.413,138.585 116.5,137.5C 118.379,136.659 120.379,136.325 122.5,136.5 Z"/></g>
<g><path style="opacity:1" fill="#eadcbf" d="M 132.5,137.5 C 133.779,139.123 135.113,140.79 136.5,142.5C 135.019,143.48 133.685,144.647 132.5,146C 126.922,150.152 120.588,151.652 113.5,150.5C 113.5,148.5 113.5,146.5 113.5,144.5C 114.922,144.709 116.255,145.209 117.5,146C 125.596,148.292 130.596,145.459 132.5,137.5 Z"/></g>
<g><path style="opacity:1" fill="#f5f5f5" d="M 210.5,138.5 C 217.594,139.845 219.927,144.012 217.5,151C 215.255,150.805 213.422,149.638 212,147.5C 210.851,144.607 210.351,141.607 210.5,138.5 Z"/></g>
<g><path style="opacity:1" fill="#050403" d="M 168.5,161.5 C 174.944,170.145 176.11,179.478 172,189.5C 168.161,193.836 163.328,195.503 157.5,194.5C 144.957,188.092 139.123,177.758 140,163.5C 143.833,152.506 151,149.672 161.5,155C 164.331,156.666 166.664,158.832 168.5,161.5 Z"/></g>
<g><path style="opacity:1" fill="#c8ac6f" d="M 216.5,166.5 C 219.306,168.17 221.806,167.837 224,165.5C 225.992,160.099 225.825,154.766 223.5,149.5C 225.218,150.848 226.384,153.182 227,156.5C 227.667,159.833 227.667,163.167 227,166.5C 223.458,170.42 219.958,170.42 216.5,166.5 Z"/></g>
<g><path style="opacity:1" fill="#f1f1f1" d="M 155.5,156.5 C 161.726,157.72 165.392,161.554 166.5,168C 166.367,172.804 164.033,174.471 159.5,173C 153.508,168.489 152.174,162.989 155.5,156.5 Z"/></g>
<g><path style="opacity:1" fill="#b3995d" d="M 168.5,161.5 C 169.496,161.414 170.329,161.748 171,162.5C 178.413,172.207 179.413,182.541 174,193.5C 169.219,196.363 164.052,197.196 158.5,196C 157.944,195.617 157.611,195.117 157.5,194.5C 163.328,195.503 168.161,193.836 172,189.5C 176.11,179.478 174.944,170.145 168.5,161.5 Z"/></g>
<g><path style="opacity:1" fill="#583d22" d="M 248.5,188.5 C 248.135,185.375 247.302,182.375 246,179.5C 244.586,178.587 243.086,178.587 241.5,179.5C 241.183,176.428 241.516,173.428 242.5,170.5C 245.109,171.23 247.776,171.73 250.5,172C 254.333,177.167 258.167,182.333 262,187.5C 262.497,190.146 262.664,192.813 262.5,195.5C 260.278,195.178 258.444,195.845 257,197.5C 256.261,195.779 255.427,194.113 254.5,192.5C 252.187,191.5 250.187,190.166 248.5,188.5 Z"/></g>
<g><path style="opacity:1" fill="#a18659" d="M 71.5,182.5 C 69.1645,185.165 66.1645,186.498 62.5,186.5C 61.2617,186.19 61.2617,185.69 62.5,185C 52.2032,184.642 51.5365,182.975 60.5,180C 63.1059,178.062 64.9392,175.562 66,172.5C 67.092,175.044 67.7586,177.711 68,180.5C 70.1489,179.16 71.3155,179.827 71.5,182.5 Z"/></g>
<g><path style="opacity:1" fill="#896733" d="M 248.5,188.5 C 246.031,187.431 243.698,186.098 241.5,184.5C 240.334,182.833 240.334,181.166 241.5,179.5C 243.086,178.587 244.586,178.587 246,179.5C 247.302,182.375 248.135,185.375 248.5,188.5 Z"/></g>
<g><path style="opacity:1" fill="#52400e" d="M 215.5,182.5 C 209.692,186.725 203.692,190.392 197.5,193.5C 194.315,193.172 190.982,193.172 187.5,193.5C 187.785,195.288 187.452,196.955 186.5,198.5C 185.817,198.137 185.15,197.804 184.5,197.5C 184.5,195.833 184.5,194.167 184.5,192.5C 192.455,190.626 200.122,187.959 207.5,184.5C 210.312,182.592 213.312,180.925 216.5,179.5C 217.386,178.675 217.719,177.675 217.5,176.5C 219.346,176.222 220.68,176.889 221.5,178.5C 219.603,180.017 217.603,181.35 215.5,182.5 Z"/></g>
<g><path style="opacity:1" fill="#8a6832" d="M 27.5,183.5 C 28.5862,183.62 29.2528,184.287 29.5,185.5C 30.3311,187.473 30.4978,189.473 30,191.5C 29.2801,189.745 28.1134,188.911 26.5,189C 22.6667,191.5 19.5,194.667 17,198.5C 16.1786,195.446 16.3452,192.446 17.5,189.5C 20.8968,187.474 24.2301,185.474 27.5,183.5 Z"/></g>
<g><path style="opacity:1" fill="#e9dcc0" d="M 71.5,182.5 C 71.6816,184.591 71.3482,186.591 70.5,188.5C 67.9135,189.48 65.2469,189.813 62.5,189.5C 62.5,188.5 62.5,187.5 62.5,186.5C 66.1645,186.498 69.1645,185.165 71.5,182.5 Z"/></g>
<g><path style="opacity:1" fill="#f5f4f2" d="M 215.5,182.5 C 215.833,182.5 216.167,182.5 216.5,182.5C 216.665,185.518 216.498,188.518 216,191.5C 212.638,194.015 208.971,196.015 205,197.5C 202.541,196.022 200.041,194.688 197.5,193.5C 203.692,190.392 209.692,186.725 215.5,182.5 Z"/></g>
<g><path style="opacity:1" fill="#51400f" d="M 216.5,182.5 C 219.037,185.694 219.87,189.361 219,193.5C 214.698,197.069 209.864,199.736 204.5,201.5C 201.427,199.431 199.094,196.764 197.5,193.5C 200.041,194.688 202.541,196.022 205,197.5C 208.971,196.015 212.638,194.015 216,191.5C 216.498,188.518 216.665,185.518 216.5,182.5 Z"/></g>
<g><path style="opacity:1" fill="#593d23" d="M 248.5,219.5 C 248.718,213.002 247.884,206.669 246,200.5C 245.311,199.643 244.478,198.977 243.5,198.5C 241.393,199.637 239.227,200.637 237,201.5C 235.235,200.368 233.402,199.368 231.5,198.5C 233.903,194.715 236.57,191.048 239.5,187.5C 243.976,189.601 248.476,191.601 253,193.5C 254.041,199.099 255.541,204.599 257.5,210C 256.414,212.752 254.914,215.252 253,217.5C 251.89,219.037 250.39,219.703 248.5,219.5 Z"/></g>
<g><path style="opacity:1" fill="#8e6c35" d="M 26.5,192.5 C 33.203,195.602 32.8696,198.102 25.5,200C 24.6667,202.167 23.1667,203.667 21,204.5C 19.703,208.154 20.703,210.821 24,212.5C 24.4966,214.81 24.6633,217.143 24.5,219.5C 22.4727,219.662 20.4727,219.495 18.5,219C 16.8502,213.514 13.1836,211.014 7.5,211.5C 7.83333,209.5 8.16667,207.5 8.5,205.5C 10.1992,205.34 11.8659,205.506 13.5,206C 12.4464,207.388 12.2797,208.888 13,210.5C 16.9473,204.057 21.4473,198.057 26.5,192.5 Z"/></g>
<g><path style="opacity:1" fill="#916e38" d="M 50.5,201.5 C 47.8333,201.5 45.1667,201.5 42.5,201.5C 40.1843,208.14 37.851,214.807 35.5,221.5C 35.7517,223.073 36.4183,224.406 37.5,225.5C 35.1432,225.663 32.8098,225.497 30.5,225C 29.0716,222.815 27.4049,220.815 25.5,219C 27.2797,212.495 29.113,205.995 31,199.5C 35.1806,196.156 40.0139,194.989 45.5,196C 46.7619,198.276 48.4286,200.109 50.5,201.5 Z"/></g>
<g><path style="opacity:1" fill="#5a3e25" d="M 262.5,210.5 C 263.5,210.5 264.5,210.5 265.5,210.5C 265.559,205.995 263.892,202.329 260.5,199.5C 261.374,198.475 262.541,197.808 264,197.5C 265.978,199.478 267.978,201.478 270,203.5C 271.589,210.532 269.089,212.865 262.5,210.5 Z"/></g>
<g><path style="opacity:1" fill="#8c6934" d="M 231.5,198.5 C 233.402,199.368 235.235,200.368 237,201.5C 239.227,200.637 241.393,199.637 243.5,198.5C 244.478,198.977 245.311,199.643 246,200.5C 247.884,206.669 248.718,213.002 248.5,219.5C 246.167,219.5 243.833,219.5 241.5,219.5C 241.752,213.894 239.252,209.894 234,207.5C 232.85,204.582 232.017,201.582 231.5,198.5 Z"/></g>
<g><path style="opacity:1" fill="#8b6934" d="M 260.5,199.5 C 263.892,202.329 265.559,205.995 265.5,210.5C 264.5,210.5 263.5,210.5 262.5,210.5C 261.5,210.5 260.5,210.5 259.5,210.5C 259.406,206.864 258.739,203.364 257.5,200C 258.448,199.517 259.448,199.351 260.5,199.5 Z"/></g>
<g><path style="opacity:1" fill="#593e23" d="M 224.5,227.5 C 224.343,226.127 224.51,224.793 225,223.5C 229.772,222.067 232.272,218.901 232.5,214C 226.604,210.553 220.604,207.386 214.5,204.5C 214.5,204.167 214.5,203.833 214.5,203.5C 214.5,202.833 214.833,202.5 215.5,202.5C 215.435,202.938 215.601,203.272 216,203.5C 219.942,201.538 224.108,200.704 228.5,201C 231.879,207.55 235.879,213.717 240.5,219.5C 238.31,221.856 236.31,224.356 234.5,227C 231.183,227.498 227.85,227.665 224.5,227.5 Z"/></g>
<g><path style="opacity:1" fill="#5a3e25" d="M 50.5,201.5 C 51.6266,202.122 52.6266,202.955 53.5,204C 51.1873,204.662 48.854,205.162 46.5,205.5C 44.9634,210.247 43.1301,214.913 41,219.5C 40.5045,221.473 40.3379,223.473 40.5,225.5C 39.5,225.5 38.5,225.5 37.5,225.5C 36.4183,224.406 35.7517,223.073 35.5,221.5C 37.851,214.807 40.1843,208.14 42.5,201.5C 45.1667,201.5 47.8333,201.5 50.5,201.5 Z"/></g>
<g><path style="opacity:1" fill="#8d6a35" d="M 210.5,204.5 C 208.434,209.441 208.601,214.441 211,219.5C 211.499,223.152 211.665,226.818 211.5,230.5C 209.011,230.298 206.677,230.798 204.5,232C 201.8,234.588 199.467,237.421 197.5,240.5C 192.833,239.833 188.167,239.167 183.5,238.5C 183.812,231.578 183.479,224.744 182.5,218C 187.789,214.38 192.789,210.38 197.5,206C 201.863,205.631 206.196,205.131 210.5,204.5 Z"/></g>
<g><path style="opacity:1" fill="#593e23" d="M 210.5,204.5 C 211.675,204.281 212.675,204.614 213.5,205.5C 219.476,214.359 221.476,224.025 219.5,234.5C 215.418,237.291 211.251,239.958 207,242.5C 203.915,241.568 200.748,240.901 197.5,240.5C 199.467,237.421 201.8,234.588 204.5,232C 206.677,230.798 209.011,230.298 211.5,230.5C 211.665,226.818 211.499,223.152 211,219.5C 208.601,214.441 208.434,209.441 210.5,204.5 Z"/></g>
<g><path style="opacity:1" fill="#8c6934" d="M 107.5,219.5 C 105.533,219.261 103.699,219.594 102,220.5C 100.025,226.096 97.858,231.596 95.5,237C 88.8895,238.823 82.2228,240.323 75.5,241.5C 70.2573,236.058 69.0907,229.725 72,222.5C 73.0271,215.464 76.5271,209.964 82.5,206C 92.7848,206.763 101.118,211.263 107.5,219.5 Z"/></g>
<g><path style="opacity:1" fill="#8a6833" d="M 214.5,204.5 C 220.604,207.386 226.604,210.553 232.5,214C 232.272,218.901 229.772,222.067 225,223.5C 224.51,224.793 224.343,226.127 224.5,227.5C 222.732,223.956 221.898,219.956 222,215.5C 219.49,211.805 216.99,208.138 214.5,204.5 Z"/></g>
<g><path style="opacity:1" fill="#8d6a34" d="M 69.5,210.5 C 68.4168,210.539 67.4168,210.873 66.5,211.5C 63.0328,218.026 61.6994,225.026 62.5,232.5C 58.0028,231.543 53.6695,231.543 49.5,232.5C 46.2358,230.906 43.5691,228.573 41.5,225.5C 44.7097,219.538 46.7097,213.205 47.5,206.5C 54.4755,207.175 61.4755,207.675 68.5,208C 69.2524,208.671 69.5858,209.504 69.5,210.5 Z"/></g>
<g><path style="opacity:1" fill="#ba9254" d="M 198.5,207.5 C 200.927,207.523 203.26,208.023 205.5,209C 200.578,212.795 195.244,215.461 189.5,217C 192.704,213.964 195.704,210.797 198.5,207.5 Z"/></g>
<g><path style="opacity:1" fill="#8d6a35" d="M 118.5,207.5 C 121.168,212.159 124.335,216.492 128,220.5C 128.667,227.5 128.667,234.5 128,241.5C 126.348,242.399 124.848,243.399 123.5,244.5C 118.099,245.034 113.099,243.867 108.5,241C 107.919,240.107 107.585,239.107 107.5,238C 109.045,232.405 110.378,226.738 111.5,221C 111.01,218.497 109.677,216.497 107.5,215C 111.87,213.451 115.537,210.951 118.5,207.5 Z"/></g>
<g><path style="opacity:1" fill="#5a3e25" d="M 118.5,207.5 C 123.742,209.717 128.242,213.05 132,217.5C 131.778,225.378 133.278,232.878 136.5,240C 132.832,243.174 128.498,244.674 123.5,244.5C 124.848,243.399 126.348,242.399 128,241.5C 128.667,234.5 128.667,227.5 128,220.5C 124.335,216.492 121.168,212.159 118.5,207.5 Z"/></g>
<g><path style="opacity:1" fill="#b99052" d="M 55.5,208.5 C 57.1992,208.34 58.8659,208.506 60.5,209C 55.3964,211.804 51.2298,215.637 48,220.5C 48.451,216.888 48.951,213.221 49.5,209.5C 51.7354,209.795 53.7354,209.461 55.5,208.5 Z"/></g>
<g><path style="opacity:1" fill="#573d1f" d="M 69.5,210.5 C 68.5882,218.636 68.5882,226.969 69.5,235.5C 62.4644,236.034 55.7977,235.034 49.5,232.5C 53.6695,231.543 58.0028,231.543 62.5,232.5C 61.6994,225.026 63.0328,218.026 66.5,211.5C 67.4168,210.873 68.4168,210.539 69.5,210.5 Z"/></g>
<g><path style="opacity:1" fill="#8e6b35" d="M 163.5,211.5 C 166.179,215.504 167.679,219.837 168,224.5C 163.574,228.607 158.907,232.273 154,235.5C 152.015,239.206 151.182,243.206 151.5,247.5C 140.098,245.274 135.098,238.441 136.5,227C 136.502,223.648 136.835,220.482 137.5,217.5C 138.048,215.606 139.048,213.94 140.5,212.5C 148.138,211.503 155.804,211.169 163.5,211.5 Z"/></g>
<g><path style="opacity:1" fill="#593d24" d="M 163.5,211.5 C 174.742,212.404 180.408,218.404 180.5,229.5C 177.398,229.154 174.565,229.821 172,231.5C 170.596,235.286 169.43,239.12 168.5,243C 162.858,244.66 157.191,246.16 151.5,247.5C 151.182,243.206 152.015,239.206 154,235.5C 158.907,232.273 163.574,228.607 168,224.5C 167.679,219.837 166.179,215.504 163.5,211.5 Z"/></g>
<g><path style="opacity:1" fill="#bc9455" d="M 137.5,217.5 C 139.792,216.376 141.958,215.043 144,213.5C 146.795,214.185 149.628,214.685 152.5,215C 145.974,218.528 141.141,223.695 138,230.5C 137.501,226.179 137.334,221.846 137.5,217.5 Z"/></g>
<g><path style="opacity:1" fill="#bb9354" d="M 79.5,214.5 C 82.8499,214.335 86.1832,214.502 89.5,215C 85.9761,218.025 82.3094,220.858 78.5,223.5C 78.1667,223 77.8333,222.5 77.5,222C 78.4788,219.567 79.1455,217.067 79.5,214.5 Z"/></g>
<g><path style="opacity:1" fill="#5a3e26" d="M 107.5,219.5 C 107.938,219.435 108.272,219.601 108.5,220C 106.805,226.696 105.805,233.53 105.5,240.5C 96.0802,243.404 86.4135,244.237 76.5,243C 75.944,242.617 75.6107,242.117 75.5,241.5C 82.2228,240.323 88.8895,238.823 95.5,237C 97.858,231.596 100.025,226.096 102,220.5C 103.699,219.594 105.533,219.261 107.5,219.5 Z"/></g>
<g><path style="opacity:1" fill="#593d25" d="M 179.5,231.5 C 181.405,232.464 182.405,234.131 182.5,236.5C 182.217,240.455 180.884,243.955 178.5,247C 174.237,248.539 171.57,247.206 170.5,243C 172.533,240.104 173.866,236.937 174.5,233.5C 176.553,233.598 178.22,232.931 179.5,231.5 Z"/></g>
</svg>
