<?xml version="1.0" encoding="UTF-8"?>
<!DOCTYPE svg PUBLIC "-//W3C//DTD SVG 1.1//EN" "http://www.w3.org/Graphics/SVG/1.1/DTD/svg11.dtd">
<svg xmlns="http://www.w3.org/2000/svg" version="1.1" width="600px" height="601px" style="shape-rendering:geometricPrecision; text-rendering:geometricPrecision; image-rendering:optimizeQuality; fill-rule:evenodd; clip-rule:evenodd" xmlns:xlink="http://www.w3.org/1999/xlink">
<g><path style="opacity:1" fill="#000000" d="M -0.5,-0.5 C 199.5,-0.5 399.5,-0.5 599.5,-0.5C 599.5,199.833 599.5,400.167 599.5,600.5C 399.5,600.5 199.5,600.5 -0.5,600.5C -0.5,400.167 -0.5,199.833 -0.5,-0.5 Z"/></g>
<g><path style="opacity:1" fill="#7f8faa" d="M 94.5,15.5 C 187.501,15.3333 280.501,15.5 373.5,16C 428.994,20.4771 468.827,47.6438 493,97.5C 500.954,115.317 504.787,133.984 504.5,153.5C 411.166,153.667 317.833,153.5 224.5,153C 180.857,149.6 146.024,130.433 120,95.5C 103.58,71.4041 95.0797,44.7374 94.5,15.5 Z"/></g>
<g><path style="opacity:1" fill="#5e6b7f" d="M 221.5,193.5 C 315.665,192.501 409.999,192.167 504.5,192.5C 504.81,195.713 504.477,198.713 503.5,201.5C 503.5,198.833 503.5,196.167 503.5,193.5C 409.5,193.5 315.5,193.5 221.5,193.5 Z"/></g>
<g><path style="opacity:1" fill="#7f90ab" d="M 221.5,193.5 C 315.5,193.5 409.5,193.5 503.5,193.5C 503.5,196.167 503.5,198.833 503.5,201.5C 498.215,257.607 469.882,297.107 418.5,320C 402.44,326.343 385.773,329.677 368.5,330C 337.833,330.333 307.167,330.667 276.5,331C 267.064,337.149 266.064,344.482 273.5,353C 302.167,369.667 330.833,386.333 359.5,403C 407.729,440.002 425.896,488.502 414,548.5C 410.836,559.998 406.503,570.998 401,581.5C 400.311,582.357 399.478,583.023 398.5,583.5C 316.506,536.839 234.84,489.672 153.5,442C 113.261,411.684 93.7613,371.184 95,320.5C 101.669,260.653 133.169,220.153 189.5,199C 199.942,195.76 210.608,193.926 221.5,193.5 Z"/></g>
</svg>
