<?xml version="1.0" encoding="UTF-8"?>
<!DOCTYPE svg PUBLIC "-//W3C//DTD SVG 1.1//EN" "http://www.w3.org/Graphics/SVG/1.1/DTD/svg11.dtd">
<svg xmlns="http://www.w3.org/2000/svg" version="1.1" width="400px" height="400px" style="shape-rendering:geometricPrecision; text-rendering:geometricPrecision; image-rendering:optimizeQuality; fill-rule:evenodd; clip-rule:evenodd" xmlns:xlink="http://www.w3.org/1999/xlink">
<g><path style="opacity:1" fill="#051625" d="M -0.5,-0.5 C 132.833,-0.5 266.167,-0.5 399.5,-0.5C 399.5,132.833 399.5,266.167 399.5,399.5C 266.167,399.5 132.833,399.5 -0.5,399.5C -0.5,266.167 -0.5,132.833 -0.5,-0.5 Z"/></g>
<g><path style="opacity:1" fill="#051722" d="M 171.5,50.5 C 155.322,47.346 139.322,48.0127 123.5,52.5C 126.028,48.5805 127.361,44.2472 127.5,39.5C 132.833,39.5 138.167,39.5 143.5,39.5C 143.5,41.8333 143.5,44.1667 143.5,46.5C 151.528,46.169 159.528,46.5023 167.5,47.5C 168.901,48.5207 170.235,49.5207 171.5,50.5 Z"/></g>
<g><path style="opacity:1" fill="#0b240f" d="M 171.5,50.5 C 174.408,51.7126 177.408,52.8793 180.5,54C 186.5,55 192.5,56 198.5,57C 202.046,58.2187 205.046,60.2187 207.5,63C 210.546,63.7388 213.546,64.5721 216.5,65.5C 224.246,68.5371 231.913,71.8704 239.5,75.5C 239.5,76.5 239.5,77.5 239.5,78.5C 231.043,74.4549 222.376,70.7883 213.5,67.5C 211.967,65.7549 209.967,64.7549 207.5,64.5C 206.833,64.5 206.167,64.5 205.5,64.5C 191.368,58.5644 176.701,54.0644 161.5,51C 150.273,49.7242 139.273,50.7242 128.5,54C 127.944,54.3826 127.611,54.8826 127.5,55.5C 127.167,55.5 126.833,55.5 126.5,55.5C 121.632,57.3815 117.299,60.0482 113.5,63.5C 101.851,71.7791 93.851,82.7791 89.5,96.5C 88.1001,97.0998 87.1001,98.0998 86.5,99.5C 87.2983,92.8056 89.2983,86.4723 92.5,80.5C 95.4666,79.5847 97.2999,77.5847 98,74.5C 103.194,69.3063 108.36,64.1396 113.5,59C 115.49,57.2494 117.823,56.2494 120.5,56C 122.063,55.2411 123.063,54.0744 123.5,52.5C 139.322,48.0127 155.322,47.346 171.5,50.5 Z"/></g>
<g><path style="opacity:1" fill="#88b666" d="M 205.5,64.5 C 196.693,62.5623 188.026,60.229 179.5,57.5C 170.768,54.0288 161.602,52.0288 152,51.5C 143.97,53.1361 135.804,54.4695 127.5,55.5C 127.611,54.8826 127.944,54.3826 128.5,54C 139.273,50.7242 150.273,49.7242 161.5,51C 176.701,54.0644 191.368,58.5644 205.5,64.5 Z"/></g>
<g><path style="opacity:1" fill="#86c34b" d="M 179.5,57.5 C 173.732,57.6899 168.065,57.0232 162.5,55.5C 155.416,58.4209 148.582,58.0876 142,54.5C 135.35,56.4534 128.85,58.4534 122.5,60.5C 123.287,58.8958 124.62,58.2291 126.5,58.5C 126.5,57.5 126.5,56.5 126.5,55.5C 126.833,55.5 127.167,55.5 127.5,55.5C 135.804,54.4695 143.97,53.1361 152,51.5C 161.602,52.0288 170.768,54.0288 179.5,57.5 Z"/></g>
<g><path style="opacity:1" fill="#85c643" d="M 179.5,57.5 C 188.026,60.229 196.693,62.5623 205.5,64.5C 206.167,64.5 206.833,64.5 207.5,64.5C 208.448,65.9779 209.781,66.9779 211.5,67.5C 217.881,70.8413 224.214,74.1747 230.5,77.5C 235.817,80.1616 241.15,82.8283 246.5,85.5C 252.692,88.0441 258.359,91.3774 263.5,95.5C 265.839,98.8354 268.839,101.502 272.5,103.5C 271.332,105.217 269.665,105.884 267.5,105.5C 267.403,108.314 268.569,110.314 271,111.5C 275.725,111.146 280.892,111.146 286.5,111.5C 288.033,113.355 289.7,115.188 291.5,117C 295.612,118.618 299.612,120.451 303.5,122.5C 306.68,128.925 311.68,133.258 318.5,135.5C 318.857,137.589 319.523,139.589 320.5,141.5C 326.798,147.792 333.464,153.792 340.5,159.5C 342.15,164.141 343.816,168.807 345.5,173.5C 345.99,182.727 346.99,191.894 348.5,201C 346.777,208.392 346.111,215.892 346.5,223.5C 344.962,226.899 343.129,230.233 341,233.5C 338.319,237.488 335.152,241.155 331.5,244.5C 326.382,249.285 320.716,253.285 314.5,256.5C 313.253,258.323 312.586,260.323 312.5,262.5C 307.561,263.775 304.228,266.775 302.5,271.5C 298.968,271.368 296.968,273.034 296.5,276.5C 293.794,279.521 290.461,281.521 286.5,282.5C 286.5,283.833 286.5,285.167 286.5,286.5C 284.194,286.993 281.861,287.326 279.5,287.5C 279.5,288.5 279.5,289.5 279.5,290.5C 272.548,292.988 265.881,296.155 259.5,300C 254.612,306.234 248.278,309.9 240.5,311C 239.016,312.574 237.349,313.907 235.5,315C 226.661,318.92 217.995,323.087 209.5,327.5C 204.218,329.039 198.884,330.372 193.5,331.5C 187.973,331.773 182.973,333.439 178.5,336.5C 165.236,341.077 151.569,342.577 137.5,341C 132.423,338.899 127.09,337.732 121.5,337.5C 120.286,335.851 118.953,334.185 117.5,332.5C 115.604,331.534 113.604,331.201 111.5,331.5C 109.774,329.772 108.441,327.772 107.5,325.5C 105.028,323.5 102.862,321.167 101,318.5C 100.383,317.551 100.549,316.718 101.5,316C 99.7669,314.811 98.1002,313.644 96.5,312.5C 95.7077,308.866 94.2077,305.533 92,302.5C 91.7401,298.75 91.0734,295.084 90,291.5C 87.6611,287.575 85.8277,283.575 84.5,279.5C 84.5,278.167 84.5,276.833 84.5,275.5C 84.5498,270.448 84.0498,265.448 83,260.5C 81.513,259.747 81.3463,258.914 82.5,258C 80.9558,252.943 79.6225,247.777 78.5,242.5C 78.8333,240.5 79.1667,238.5 79.5,236.5C 77.9878,230.081 76.9878,223.581 76.5,217C 77.0135,199.022 77.8468,181.188 79,163.5C 80.1237,157.897 80.7904,152.231 81,146.5C 83.867,140.563 85.0336,134.229 84.5,127.5C 84.5,125.833 84.5,124.167 84.5,122.5C 88.3983,112.585 91.2317,102.251 93,91.5C 96.0318,86.4797 99.0318,81.4797 102,76.5C 105.12,73.2574 108.453,70.2574 112,67.5C 112.791,66.255 113.291,64.9217 113.5,63.5C 116.743,63.0857 119.743,62.0857 122.5,60.5C 128.85,58.4534 135.35,56.4534 142,54.5C 148.582,58.0876 155.416,58.4209 162.5,55.5C 168.065,57.0232 173.732,57.6899 179.5,57.5 Z"/></g>
<g><path style="opacity:1" fill="#87b85f" d="M 126.5,55.5 C 126.5,56.5 126.5,57.5 126.5,58.5C 124.62,58.2291 123.287,58.8958 122.5,60.5C 119.743,62.0857 116.743,63.0857 113.5,63.5C 117.299,60.0482 121.632,57.3815 126.5,55.5 Z"/></g>
<g><path style="opacity:1" fill="#051722" d="M 252.5,83.5 C 250.391,82.6091 248.391,81.4424 246.5,80C 244.527,79.5045 242.527,79.3379 240.5,79.5C 240.167,79.5 239.833,79.5 239.5,79.5C 239.5,79.1667 239.5,78.8333 239.5,78.5C 239.5,77.5 239.5,76.5 239.5,75.5C 231.913,71.8704 224.246,68.5371 216.5,65.5C 220.182,65.6653 223.848,65.4986 227.5,65C 228.126,64.2496 228.626,63.4162 229,62.5C 229.667,63.8333 230.333,63.8333 231,62.5C 235.741,65.3869 240.575,68.0535 245.5,70.5C 246.5,71.5 247.5,72.5 248.5,73.5C 249.289,77.0743 250.622,80.4076 252.5,83.5 Z"/></g>
<g><path style="opacity:1" fill="#5a8248" d="M 207.5,64.5 C 209.967,64.7549 211.967,65.7549 213.5,67.5C 212.833,67.5 212.167,67.5 211.5,67.5C 209.781,66.9779 208.448,65.9779 207.5,64.5 Z"/></g>
<g><path style="opacity:1" fill="#89b666" d="M 211.5,67.5 C 212.167,67.5 212.833,67.5 213.5,67.5C 222.376,70.7883 231.043,74.4549 239.5,78.5C 239.5,78.8333 239.5,79.1667 239.5,79.5C 236.261,79.5871 233.261,78.9205 230.5,77.5C 224.214,74.1747 217.881,70.8413 211.5,67.5 Z"/></g>
<g><path style="opacity:1" fill="#88be5a" d="M 230.5,77.5 C 233.261,78.9205 236.261,79.5871 239.5,79.5C 239.833,79.5 240.167,79.5 240.5,79.5C 241.167,80.1667 241.833,80.8333 242.5,81.5C 243.625,82.9999 244.959,84.3332 246.5,85.5C 241.15,82.8283 235.817,80.1616 230.5,77.5 Z"/></g>
<g><path style="opacity:1" fill="#071720" d="M 279.5,100.5 C 270.895,94.2874 261.895,88.6208 252.5,83.5C 254.5,83.8333 256.5,84.1667 258.5,84.5C 258.587,81.4017 258.087,81.0684 257,83.5C 254.948,81.4801 255.115,79.8134 257.5,78.5C 259.665,80.7044 262.332,82.0378 265.5,82.5C 265.833,83 266.167,83.5 266.5,84C 264.888,85.482 263.888,87.3153 263.5,89.5C 266.206,89.4249 268.873,89.0916 271.5,88.5C 271.5,90.5 271.5,92.5 271.5,94.5C 274.237,95.031 276.904,95.8644 279.5,97C 278.316,98.1455 278.316,99.3121 279.5,100.5 Z"/></g>
<g><path style="opacity:1" fill="#0d2810" d="M 240.5,79.5 C 242.527,79.3379 244.527,79.5045 246.5,80C 248.391,81.4424 250.391,82.6091 252.5,83.5C 261.895,88.6208 270.895,94.2874 279.5,100.5C 280.833,101.833 282.167,103.167 283.5,104.5C 285.919,106.862 288.919,107.862 292.5,107.5C 292.352,112.13 294.686,114.63 299.5,115C 305.135,119.633 310.468,124.633 315.5,130C 314.944,130.383 314.611,130.883 314.5,131.5C 310.65,128.739 306.983,125.739 303.5,122.5C 295.4,115.401 286.733,109.067 277.5,103.5C 276.738,101.738 275.404,100.738 273.5,100.5C 263.964,92.9843 253.631,86.651 242.5,81.5C 241.833,80.8333 241.167,80.1667 240.5,79.5 Z"/></g>
<g><path style="opacity:1" fill="#87b466" d="M 242.5,81.5 C 253.631,86.651 263.964,92.9843 273.5,100.5C 269.696,99.6765 266.362,98.0099 263.5,95.5C 258.359,91.3774 252.692,88.0441 246.5,85.5C 244.959,84.3332 243.625,82.9999 242.5,81.5 Z"/></g>
<g><path style="opacity:1" fill="#86c34b" d="M 263.5,95.5 C 266.362,98.0099 269.696,99.6765 273.5,100.5C 275.404,100.738 276.738,101.738 277.5,103.5C 280.312,106.401 283.312,109.068 286.5,111.5C 280.892,111.146 275.725,111.146 271,111.5C 268.569,110.314 267.403,108.314 267.5,105.5C 269.665,105.884 271.332,105.217 272.5,103.5C 268.839,101.502 265.839,98.8354 263.5,95.5 Z"/></g>
<g><path style="opacity:1" fill="#051919" d="M 85.5,102.5 C 84.1937,105.834 83.1937,109.334 82.5,113C 82.9891,114.138 83.3225,115.305 83.5,116.5C 83.5,116.833 83.5,117.167 83.5,117.5C 82.2502,117.577 81.4169,118.244 81,119.5C 80.8171,122.365 80.3171,125.031 79.5,127.5C 80.3083,120.527 81.1416,113.527 82,106.5C 83.0319,104.973 84.1986,103.64 85.5,102.5 Z"/></g>
<g><path style="opacity:1" fill="#0b280b" d="M 89.5,96.5 C 87.4144,101.916 86.0811,107.582 85.5,113.5C 84.8333,114.5 84.1667,115.5 83.5,116.5C 83.3225,115.305 82.9891,114.138 82.5,113C 83.1937,109.334 84.1937,105.834 85.5,102.5C 85.5569,101.391 85.8902,100.391 86.5,99.5C 87.1001,98.0998 88.1001,97.0998 89.5,96.5 Z"/></g>
<g><path style="opacity:1" fill="#8aba66" d="M 277.5,103.5 C 286.733,109.067 295.4,115.401 303.5,122.5C 299.612,120.451 295.612,118.618 291.5,117C 289.7,115.188 288.033,113.355 286.5,111.5C 283.312,109.068 280.312,106.401 277.5,103.5 Z"/></g>
<g><path style="opacity:1" fill="#86b65f" d="M 113.5,63.5 C 113.291,64.9217 112.791,66.255 112,67.5C 108.453,70.2574 105.12,73.2574 102,76.5C 99.0318,81.4797 96.0318,86.4797 93,91.5C 91.2317,102.251 88.3983,112.585 84.5,122.5C 84.7038,119.482 85.0371,116.482 85.5,113.5C 86.0811,107.582 87.4144,101.916 89.5,96.5C 93.851,82.7791 101.851,71.7791 113.5,63.5 Z"/></g>
<g><path style="opacity:1" fill="#06181d" d="M 283.5,104.5 C 286.821,105.496 290.155,106.496 293.5,107.5C 294.246,108.736 294.579,110.07 294.5,111.5C 298.111,111.639 300.777,113.306 302.5,116.5C 303.452,114.955 303.785,113.288 303.5,111.5C 305.167,111.5 306.833,111.5 308.5,111.5C 308.978,114.278 307.978,116.278 305.5,117.5C 309.862,121.362 313.695,125.696 317,130.5C 321.546,132.208 325.046,135.208 327.5,139.5C 324.167,137.5 320.833,135.5 317.5,133.5C 316.5,132.833 315.5,132.167 314.5,131.5C 314.611,130.883 314.944,130.383 315.5,130C 310.468,124.633 305.135,119.633 299.5,115C 294.686,114.63 292.352,112.13 292.5,107.5C 288.919,107.862 285.919,106.862 283.5,104.5 Z"/></g>
<g><path style="opacity:1" fill="#08210b" d="M 83.5,117.5 C 81.9594,125.314 80.2928,132.981 78.5,140.5C 78.5,136.167 78.5,131.833 78.5,127.5C 78.8333,127.5 79.1667,127.5 79.5,127.5C 80.3171,125.031 80.8171,122.365 81,119.5C 81.4169,118.244 82.2502,117.577 83.5,117.5 Z"/></g>
<g><path style="opacity:1" fill="#86b366" d="M 303.5,122.5 C 306.983,125.739 310.65,128.739 314.5,131.5C 315.5,132.167 316.5,132.833 317.5,133.5C 317.833,134.167 318.167,134.833 318.5,135.5C 311.68,133.258 306.68,128.925 303.5,122.5 Z"/></g>
<g><path style="opacity:1" fill="#051723" d="M 71.5,191.5 C 70.853,221.178 73.1864,250.511 78.5,279.5C 77.08,281.886 76.08,284.553 75.5,287.5C 74.9001,283.532 73.5668,279.865 71.5,276.5C 71.7092,275.006 72.3759,273.839 73.5,273C 72.2341,272.691 71.0674,272.191 70,271.5C 68.3808,264.098 66.8808,256.765 65.5,249.5C 65.7507,245.992 66.084,242.492 66.5,239C 65.7177,217.846 65.2177,196.679 65,175.5C 63.5297,167.672 62.6964,159.672 62.5,151.5C 63.8101,143.527 65.1434,135.527 66.5,127.5C 67.8333,127.5 69.1667,127.5 70.5,127.5C 69.8363,132.473 69.5029,137.473 69.5,142.5C 68.1667,142.5 66.8333,142.5 65.5,142.5C 66.335,156.849 67.5016,171.183 69,185.5C 69.0023,188.051 69.8356,190.051 71.5,191.5 Z"/></g>
<g><path style="opacity:1" fill="#0a2208" d="M 317.5,133.5 C 320.833,135.5 324.167,137.5 327.5,139.5C 328.167,141.5 328.833,143.5 329.5,145.5C 325.833,142.167 322.167,138.833 318.5,135.5C 318.167,134.833 317.833,134.167 317.5,133.5 Z"/></g>
<g><path style="opacity:1" fill="#7eaa63" d="M 85.5,113.5 C 85.0371,116.482 84.7038,119.482 84.5,122.5C 84.5,124.167 84.5,125.833 84.5,127.5C 83.2749,128.152 82.6083,129.319 82.5,131C 81.0864,138.692 79.4197,146.192 77.5,153.5C 78.0209,149.519 78.3542,145.519 78.5,141.5C 78.5,141.167 78.5,140.833 78.5,140.5C 80.2928,132.981 81.9594,125.314 83.5,117.5C 83.5,117.167 83.5,116.833 83.5,116.5C 84.1667,115.5 84.8333,114.5 85.5,113.5 Z"/></g>
<g><path style="opacity:1" fill="#0a250e" d="M 184.5,144.5 C 188.76,145.632 192.76,147.299 196.5,149.5C 196.973,150.906 197.973,151.573 199.5,151.5C 199.833,151.5 200.167,151.5 200.5,151.5C 213.616,159.229 226.616,167.229 239.5,175.5C 242.271,178.392 245.271,181.058 248.5,183.5C 248.5,184.167 248.833,184.5 249.5,184.5C 253.703,191.306 254.37,198.306 251.5,205.5C 252.834,194.177 248.834,185.51 239.5,179.5C 238.614,178.675 238.281,177.675 238.5,176.5C 235.465,176.461 232.798,175.461 230.5,173.5C 219.207,164.356 206.874,157.023 193.5,151.5C 192.942,150.21 191.942,149.377 190.5,149C 186.716,147.929 182.882,147.096 179,146.5C 174.93,147.864 170.93,149.531 167,151.5C 166.617,150.944 166.117,150.611 165.5,150.5C 166.716,148.549 168.382,147.049 170.5,146C 175.102,144.878 179.768,144.378 184.5,144.5 Z"/></g>
<g><path style="opacity:1" fill="#87b75e" d="M 318.5,135.5 C 322.167,138.833 325.833,142.167 329.5,145.5C 333.953,149.612 337.62,154.278 340.5,159.5C 333.464,153.792 326.798,147.792 320.5,141.5C 319.523,139.589 318.857,137.589 318.5,135.5 Z"/></g>
<g><path style="opacity:1" fill="#07191a" d="M 327.5,139.5 C 329.14,140.32 330.807,141.153 332.5,142C 333.833,142.667 333.833,143.333 332.5,144C 334.743,143.681 336.91,143.848 339,144.5C 339.115,146.107 338.615,147.607 337.5,149C 341.433,151.363 343.433,154.863 343.5,159.5C 342.833,159.5 342.167,159.5 341.5,159.5C 342.332,155.503 340.832,152.836 337,151.5C 335.824,147.979 333.324,145.979 329.5,145.5C 328.833,143.5 328.167,141.5 327.5,139.5 Z"/></g>
<g><path style="opacity:1" fill="#8abf58" d="M 207.5,152.5 C 205.194,152.007 202.861,151.674 200.5,151.5C 200.167,151.5 199.833,151.5 199.5,151.5C 199.027,150.094 198.027,149.427 196.5,149.5C 192.76,147.299 188.76,145.632 184.5,144.5C 179.162,143.054 173.829,143.387 168.5,145.5C 168.5,144.5 168.5,143.5 168.5,142.5C 176.167,142.5 183.833,142.5 191.5,142.5C 191.5,143.5 191.5,144.5 191.5,145.5C 196.217,147.501 201.217,149.001 206.5,150C 207.252,150.671 207.586,151.504 207.5,152.5 Z"/></g>
<g><path style="opacity:1" fill="#80b05f" d="M 184.5,144.5 C 179.768,144.378 175.102,144.878 170.5,146C 168.382,147.049 166.716,148.549 165.5,150.5C 163.457,151.579 162.124,153.246 161.5,155.5C 161.5,156.167 161.167,156.5 160.5,156.5C 160.167,156.5 159.833,156.5 159.5,156.5C 160.585,151.387 163.585,147.72 168.5,145.5C 173.829,143.387 179.162,143.054 184.5,144.5 Z"/></g>
<g><path style="opacity:1" fill="#0a210d" d="M 329.5,145.5 C 333.324,145.979 335.824,147.979 337,151.5C 340.832,152.836 342.332,155.503 341.5,159.5C 341.167,159.5 340.833,159.5 340.5,159.5C 337.62,154.278 333.953,149.612 329.5,145.5 Z"/></g>
<g><path style="opacity:1" fill="#05171f" d="M 193.5,151.5 C 189.73,152.801 186.396,151.967 183.5,149C 181.833,148.333 180.167,148.333 178.5,149C 180.158,149.725 180.658,150.892 180,152.5C 178.491,153.09 176.991,153.756 175.5,154.5C 174.044,156.446 172.377,158.113 170.5,159.5C 169.263,159.444 168.263,158.944 167.5,158C 168.554,156.612 168.72,155.112 168,153.5C 164.049,156.84 162.382,161.173 163,166.5C 162.329,167.252 161.496,167.586 160.5,167.5C 160.914,163.343 161.914,159.343 163.5,155.5C 164.167,153.833 164.833,152.167 165.5,150.5C 166.117,150.611 166.617,150.944 167,151.5C 170.93,149.531 174.93,147.864 179,146.5C 182.882,147.096 186.716,147.929 190.5,149C 191.942,149.377 192.942,150.21 193.5,151.5 Z"/></g>
<g><path style="opacity:1" fill="#30581d" d="M 196.5,149.5 C 198.027,149.427 199.027,150.094 199.5,151.5C 197.973,151.573 196.973,150.906 196.5,149.5 Z"/></g>
<g><path style="opacity:1" fill="#082d09" d="M 165.5,150.5 C 164.833,152.167 164.167,153.833 163.5,155.5C 162.833,155.5 162.167,155.5 161.5,155.5C 162.124,153.246 163.457,151.579 165.5,150.5 Z"/></g>
<g><path style="opacity:1" fill="#051626" d="M 193.5,151.5 C 206.874,157.023 219.207,164.356 230.5,173.5C 230.568,179.762 229.568,185.762 227.5,191.5C 231.162,192.363 233.328,191.03 234,187.5C 234.804,186.196 235.971,185.529 237.5,185.5C 240.462,187.655 243.462,189.821 246.5,192C 245.752,195.057 244.752,198.057 243.5,201C 244.104,203.524 244.771,206.024 245.5,208.5C 243.671,209.288 242.004,208.788 240.5,207C 239.5,206.333 238.5,206.333 237.5,207C 234.231,210.004 234.231,212.671 237.5,215C 234.001,217.396 231.001,220.229 228.5,223.5C 224.21,226.985 219.543,229.985 214.5,232.5C 212.833,232.5 211.167,232.5 209.5,232.5C 209.421,231.07 209.754,229.736 210.5,228.5C 210.167,227.5 209.5,226.833 208.5,226.5C 207.979,230.52 205.812,233.187 202,234.5C 201.074,236.692 199.907,238.692 198.5,240.5C 198.38,241.586 197.713,242.253 196.5,242.5C 192.139,242.964 188.139,244.297 184.5,246.5C 182.023,246.949 180.023,246.283 178.5,244.5C 182.639,242.833 186.639,240.999 190.5,239C 188,238.833 185.5,238.667 183,238.5C 179.965,238.609 177.131,239.276 174.5,240.5C 173.61,232.113 168.943,228.279 160.5,229C 159.809,227.933 159.309,226.766 159,225.5C 159.477,206.177 159.977,186.844 160.5,167.5C 161.496,167.586 162.329,167.252 163,166.5C 162.382,161.173 164.049,156.84 168,153.5C 168.72,155.112 168.554,156.612 167.5,158C 168.263,158.944 169.263,159.444 170.5,159.5C 172.377,158.113 174.044,156.446 175.5,154.5C 176.991,153.756 178.491,153.09 180,152.5C 180.658,150.892 180.158,149.725 178.5,149C 180.167,148.333 181.833,148.333 183.5,149C 186.396,151.967 189.73,152.801 193.5,151.5 Z"/></g>
<g><path style="opacity:1" fill="#06181b" d="M 78.5,127.5 C 78.5,131.833 78.5,136.167 78.5,140.5C 78.5,140.833 78.5,141.167 78.5,141.5C 76.4073,146.875 74.9073,152.541 74,158.5C 72.7515,169.464 72.2515,180.464 72.5,191.5C 72.1667,191.5 71.8333,191.5 71.5,191.5C 70.5576,179.891 70.5576,168.391 71.5,157C 73.9618,150.082 75.1284,142.915 75,135.5C 75.5784,132.428 76.745,129.761 78.5,127.5 Z"/></g>
<g><path style="opacity:1" fill="#1f3e18" d="M 159.5,156.5 C 159.833,156.5 160.167,156.5 160.5,156.5C 160.59,159.152 159.924,161.485 158.5,163.5C 158.5,162.167 158.5,160.833 158.5,159.5C 159.404,158.791 159.737,157.791 159.5,156.5 Z"/></g>
<g><path style="opacity:1" fill="#82b25d" d="M 200.5,151.5 C 202.861,151.674 205.194,152.007 207.5,152.5C 217.44,157.879 227.107,163.712 236.5,170C 237.758,171.741 238.758,173.574 239.5,175.5C 226.616,167.229 213.616,159.229 200.5,151.5 Z"/></g>
<g><path style="opacity:1" fill="#072509" d="M 78.5,141.5 C 78.3542,145.519 78.0209,149.519 77.5,153.5C 75.2591,163.23 74.0925,173.23 74,183.5C 73.5001,196.496 73.3334,209.496 73.5,222.5C 72.5058,212.347 72.1724,202.014 72.5,191.5C 72.2515,180.464 72.7515,169.464 74,158.5C 74.9073,152.541 76.4073,146.875 78.5,141.5 Z"/></g>
<g><path style="opacity:1" fill="#87b75f" d="M 158.5,159.5 C 158.5,160.833 158.5,162.167 158.5,163.5C 157.833,168.833 157.167,174.167 156.5,179.5C 155.833,181.5 155.167,183.5 154.5,185.5C 155.083,176.845 155.416,168.178 155.5,159.5C 156.5,159.5 157.5,159.5 158.5,159.5 Z"/></g>
<g><path style="opacity:1" fill="#08220c" d="M 341.5,159.5 C 342.167,159.5 342.833,159.5 343.5,159.5C 344.885,160.574 346.051,161.907 347,163.5C 347.946,167.811 349.446,171.811 351.5,175.5C 351.5,177.167 351.5,178.833 351.5,180.5C 348.56,173.367 345.227,166.367 341.5,159.5 Z"/></g>
<g><path style="opacity:1" fill="#061721" d="M 230.5,173.5 C 232.798,175.461 235.465,176.461 238.5,176.5C 238.281,177.675 238.614,178.675 239.5,179.5C 248.834,185.51 252.834,194.177 251.5,205.5C 249.178,207.494 247.178,209.827 245.5,212.5C 240.554,215.122 236.221,218.455 232.5,222.5C 231.264,223.246 229.93,223.579 228.5,223.5C 231.001,220.229 234.001,217.396 237.5,215C 234.231,212.671 234.231,210.004 237.5,207C 238.5,206.333 239.5,206.333 240.5,207C 242.004,208.788 243.671,209.288 245.5,208.5C 244.771,206.024 244.104,203.524 243.5,201C 244.752,198.057 245.752,195.057 246.5,192C 243.462,189.821 240.462,187.655 237.5,185.5C 235.971,185.529 234.804,186.196 234,187.5C 233.328,191.03 231.162,192.363 227.5,191.5C 229.568,185.762 230.568,179.762 230.5,173.5 Z"/></g>
<g><path style="opacity:1" fill="#83b35a" d="M 239.5,175.5 C 244.341,176.004 247.341,178.67 248.5,183.5C 245.271,181.058 242.271,178.392 239.5,175.5 Z"/></g>
<g><path style="opacity:1" fill="#86c34d" d="M 345.5,173.5 C 346.364,177.255 347.697,180.922 349.5,184.5C 349.833,188.667 350.167,192.833 350.5,197C 350.635,206.006 349.635,214.84 347.5,223.5C 347.167,223.5 346.833,223.5 346.5,223.5C 346.111,215.892 346.777,208.392 348.5,201C 346.99,191.894 345.99,182.727 345.5,173.5 Z"/></g>
<g><path style="opacity:1" fill="#85b55f" d="M 340.5,159.5 C 340.833,159.5 341.167,159.5 341.5,159.5C 345.227,166.367 348.56,173.367 351.5,180.5C 351.5,181.5 351.5,182.5 351.5,183.5C 352.964,194.886 352.631,206.22 350.5,217.5C 349.797,219.629 348.797,221.629 347.5,223.5C 349.635,214.84 350.635,206.006 350.5,197C 350.167,192.833 349.833,188.667 349.5,184.5C 347.697,180.922 346.364,177.255 345.5,173.5C 343.816,168.807 342.15,164.141 340.5,159.5 Z"/></g>
<g><path style="opacity:1" fill="#0c240e" d="M 351.5,183.5 C 352.41,185.019 353.243,186.685 354,188.5C 354.667,196.5 354.667,204.5 354,212.5C 353.451,214.76 352.284,216.426 350.5,217.5C 352.631,206.22 352.964,194.886 351.5,183.5 Z"/></g>
<g><path style="opacity:1" fill="#86c24c" d="M 84.5,127.5 C 85.0336,134.229 83.867,140.563 81,146.5C 80.7904,152.231 80.1237,157.897 79,163.5C 77.8468,181.188 77.0135,199.022 76.5,217C 76.9878,223.581 77.9878,230.081 79.5,236.5C 79.1667,238.5 78.8333,240.5 78.5,242.5C 79.6225,247.777 80.9558,252.943 82.5,258C 81.3463,258.914 81.513,259.747 83,260.5C 84.0498,265.448 84.5498,270.448 84.5,275.5C 83.3118,269.083 81.4784,262.75 79,256.5C 76.7045,239.932 75.5379,223.265 75.5,206.5C 76.4736,188.844 77.1403,171.177 77.5,153.5C 79.4197,146.192 81.0864,138.692 82.5,131C 82.6083,129.319 83.2749,128.152 84.5,127.5 Z"/></g>
<g><path style="opacity:1" fill="#08230c" d="M 161.5,155.5 C 162.167,155.5 162.833,155.5 163.5,155.5C 161.914,159.343 160.914,163.343 160.5,167.5C 158.303,181.766 157.303,196.266 157.5,211C 157.297,220.622 157.964,230.122 159.5,239.5C 158.59,237.981 157.757,236.315 157,234.5C 156.823,230.644 156.323,226.977 155.5,223.5C 155.293,208.814 155.627,194.147 156.5,179.5C 157.167,174.167 157.833,168.833 158.5,163.5C 159.924,161.485 160.59,159.152 160.5,156.5C 161.167,156.5 161.5,156.167 161.5,155.5 Z"/></g>
<g><path style="opacity:1" fill="#88bd5a" d="M 249.5,184.5 C 251.371,184.859 252.871,185.859 254,187.5C 255.946,194.491 255.946,201.491 254,208.5C 253.764,210.119 252.931,211.119 251.5,211.5C 251.5,210.167 251.5,208.833 251.5,207.5C 251.5,206.833 251.5,206.167 251.5,205.5C 254.37,198.306 253.703,191.306 249.5,184.5 Z"/></g>
<g><path style="opacity:1" fill="#7eae60" d="M 156.5,179.5 C 155.627,194.147 155.293,208.814 155.5,223.5C 154.17,217.705 153.504,211.538 153.5,205C 153.519,198.423 153.852,191.923 154.5,185.5C 155.167,183.5 155.833,181.5 156.5,179.5 Z"/></g>
<g><path style="opacity:1" fill="#09200d" d="M 251.5,205.5 C 251.5,206.167 251.5,206.833 251.5,207.5C 249.639,210.022 247.639,212.522 245.5,215C 236.44,221.725 227.107,228.058 217.5,234C 214.009,235.37 210.675,236.87 207.5,238.5C 207.414,237.504 207.748,236.671 208.5,236C 210.432,234.541 212.432,233.375 214.5,232.5C 219.543,229.985 224.21,226.985 228.5,223.5C 229.93,223.579 231.264,223.246 232.5,222.5C 236.221,218.455 240.554,215.122 245.5,212.5C 247.178,209.827 249.178,207.494 251.5,205.5 Z"/></g>
<g><path style="opacity:1" fill="#05181e" d="M 351.5,175.5 C 351.991,178.12 353.158,180.454 355,182.5C 355.333,190.833 355.667,199.167 356,207.5C 356.311,209.556 356.811,211.556 357.5,213.5C 355.532,218.107 353.199,222.441 350.5,226.5C 351.228,228.155 351.395,229.821 351,231.5C 349.16,230.167 348.66,230.334 349.5,232C 348.552,232.483 347.552,232.649 346.5,232.5C 346.34,234.199 346.506,235.866 347,237.5C 348.526,238.545 349.359,240.045 349.5,242C 349.238,244.547 348.738,247.047 348,249.5C 344.259,251.035 342.426,249.701 342.5,245.5C 340.435,245.517 338.435,245.85 336.5,246.5C 337.833,245.067 339.333,243.733 341,242.5C 343.784,237.507 346.451,232.507 349,227.5C 350.043,224.243 350.543,220.91 350.5,217.5C 352.284,216.426 353.451,214.76 354,212.5C 354.667,204.5 354.667,196.5 354,188.5C 353.243,186.685 352.41,185.019 351.5,183.5C 351.5,182.5 351.5,181.5 351.5,180.5C 351.5,178.833 351.5,177.167 351.5,175.5 Z"/></g>
<g><path style="opacity:1" fill="#051721" d="M 160.5,167.5 C 159.977,186.844 159.477,206.177 159,225.5C 159.309,226.766 159.809,227.933 160.5,229C 168.943,228.279 173.61,232.113 174.5,240.5C 177.131,239.276 179.965,238.609 183,238.5C 185.5,238.667 188,238.833 190.5,239C 186.639,240.999 182.639,242.833 178.5,244.5C 180.023,246.283 182.023,246.949 184.5,246.5C 180.794,248.792 176.794,249.126 172.5,247.5C 170.411,247.143 168.411,246.477 166.5,245.5C 165.815,241.382 163.482,239.382 159.5,239.5C 157.964,230.122 157.297,220.622 157.5,211C 157.303,196.266 158.303,181.766 160.5,167.5 Z"/></g>
<g><path style="opacity:1" fill="#7fae5c" d="M 251.5,207.5 C 251.5,208.833 251.5,210.167 251.5,211.5C 246.285,216.764 240.618,221.597 234.5,226C 230.08,226.869 226.747,229.202 224.5,233C 220.673,234.746 217.007,236.746 213.5,239C 211.527,239.495 209.527,239.662 207.5,239.5C 207.5,239.167 207.5,238.833 207.5,238.5C 210.675,236.87 214.009,235.37 217.5,234C 227.107,228.058 236.44,221.725 245.5,215C 247.639,212.522 249.639,210.022 251.5,207.5 Z"/></g>
<g><path style="opacity:1" fill="#05181c" d="M 214.5,232.5 C 212.432,233.375 210.432,234.541 208.5,236C 207.748,236.671 207.414,237.504 207.5,238.5C 204.402,238.756 201.402,239.422 198.5,240.5C 199.907,238.692 201.074,236.692 202,234.5C 205.812,233.187 207.979,230.52 208.5,226.5C 209.5,226.833 210.167,227.5 210.5,228.5C 209.754,229.736 209.421,231.07 209.5,232.5C 211.167,232.5 212.833,232.5 214.5,232.5 Z"/></g>
<g><path style="opacity:1" fill="#87b666" d="M 346.5,223.5 C 346.833,223.5 347.167,223.5 347.5,223.5C 343.834,233.505 338.167,242.172 330.5,249.5C 329.833,249.833 329.167,250.167 328.5,250.5C 329.044,248.284 330.044,246.284 331.5,244.5C 335.152,241.155 338.319,237.488 341,233.5C 343.129,230.233 344.962,226.899 346.5,223.5 Z"/></g>
<g><path style="opacity:1" fill="#82af5d" d="M 207.5,239.5 C 207.489,241.017 206.823,242.184 205.5,243C 201.097,245.371 196.43,246.871 191.5,247.5C 196.484,244.341 201.818,241.674 207.5,239.5 Z"/></g>
<g><path style="opacity:1" fill="#061f0d" d="M 71.5,191.5 C 71.8333,191.5 72.1667,191.5 72.5,191.5C 72.1724,202.014 72.5058,212.347 73.5,222.5C 74.5087,238.911 76.5087,255.244 79.5,271.5C 79.4095,274.152 80.0762,276.485 81.5,278.5C 82.4174,281.417 83.084,284.417 83.5,287.5C 84.2541,290.256 84.2541,292.922 83.5,295.5C 82.2557,290.097 80.5891,284.764 78.5,279.5C 73.1864,250.511 70.853,221.178 71.5,191.5 Z"/></g>
<g><path style="opacity:1" fill="#0c2711" d="M 350.5,217.5 C 350.543,220.91 350.043,224.243 349,227.5C 346.451,232.507 343.784,237.507 341,242.5C 339.333,243.733 337.833,245.067 336.5,246.5C 335.833,246.5 335.5,246.833 335.5,247.5C 333.95,248.441 332.284,249.107 330.5,249.5C 338.167,242.172 343.834,233.505 347.5,223.5C 348.797,221.629 349.797,219.629 350.5,217.5 Z"/></g>
<g><path style="opacity:1" fill="#102e0f" d="M 159.5,239.5 C 163.482,239.382 165.815,241.382 166.5,245.5C 168.411,246.477 170.411,247.143 172.5,247.5C 175.684,249.414 179.351,250.08 183.5,249.5C 173.059,252.286 165.059,248.952 159.5,239.5 Z"/></g>
<g><path style="opacity:1" fill="#061e0a" d="M 207.5,238.5 C 207.5,238.833 207.5,239.167 207.5,239.5C 201.818,241.674 196.484,244.341 191.5,247.5C 188.67,247.694 186.004,248.361 183.5,249.5C 179.351,250.08 175.684,249.414 172.5,247.5C 176.794,249.126 180.794,248.792 184.5,246.5C 188.139,244.297 192.139,242.964 196.5,242.5C 197.713,242.253 198.38,241.586 198.5,240.5C 201.402,239.422 204.402,238.756 207.5,238.5 Z"/></g>
<g><path style="opacity:1" fill="#87b75f" d="M 155.5,223.5 C 156.323,226.977 156.823,230.644 157,234.5C 157.757,236.315 158.59,237.981 159.5,239.5C 165.059,248.952 173.059,252.286 183.5,249.5C 186.004,248.361 188.67,247.694 191.5,247.5C 191.426,249.411 190.426,250.578 188.5,251C 173.968,255.34 163.302,251.006 156.5,238C 155.642,233.205 155.309,228.372 155.5,223.5 Z"/></g>
<g><path style="opacity:1" fill="#06181c" d="M 335.5,247.5 C 335.5,249.5 335.5,251.5 335.5,253.5C 343.5,254.167 343.5,254.833 335.5,255.5C 335.333,258.957 334.333,259.29 332.5,256.5C 332.833,255.833 333.167,255.167 333.5,254.5C 331.833,253.334 330.166,253.334 328.5,254.5C 329.167,252.833 329.833,251.167 330.5,249.5C 332.284,249.107 333.95,248.441 335.5,247.5 Z"/></g>
<g><path style="opacity:1" fill="#88c24e" d="M 331.5,244.5 C 330.044,246.284 329.044,248.284 328.5,250.5C 324.213,252.65 320.213,255.317 316.5,258.5C 314.384,260.4 313.051,262.733 312.5,265.5C 309.86,265.954 307.527,267.121 305.5,269C 304.663,270.011 304.33,271.178 304.5,272.5C 303.833,272.5 303.5,272.833 303.5,273.5C 300.547,273.15 298.213,274.15 296.5,276.5C 296.968,273.034 298.968,271.368 302.5,271.5C 304.228,266.775 307.561,263.775 312.5,262.5C 312.586,260.323 313.253,258.323 314.5,256.5C 320.716,253.285 326.382,249.285 331.5,244.5 Z"/></g>
<g><path style="opacity:1" fill="#84b460" d="M 328.5,250.5 C 323.796,256.205 318.463,261.205 312.5,265.5C 313.051,262.733 314.384,260.4 316.5,258.5C 320.213,255.317 324.213,252.65 328.5,250.5 Z"/></g>
<g><path style="opacity:1" fill="#7fb05b" d="M 77.5,153.5 C 77.1403,171.177 76.4736,188.844 75.5,206.5C 75.5379,223.265 76.7045,239.932 79,256.5C 81.4784,262.75 83.3118,269.083 84.5,275.5C 84.5,276.833 84.5,278.167 84.5,279.5C 85.5332,287.633 87.1998,295.633 89.5,303.5C 89.1667,303.5 88.8333,303.5 88.5,303.5C 86.8232,298.059 85.1565,292.726 83.5,287.5C 83.084,284.417 82.4174,281.417 81.5,278.5C 81.5905,275.848 80.9238,273.515 79.5,271.5C 76.5087,255.244 74.5087,238.911 73.5,222.5C 73.3334,209.496 73.5001,196.496 74,183.5C 74.0925,173.23 75.2591,163.23 77.5,153.5 Z"/></g>
<g><path style="opacity:1" fill="#85b164" d="M 312.5,265.5 C 310.451,268.55 307.784,270.883 304.5,272.5C 304.33,271.178 304.663,270.011 305.5,269C 307.527,267.121 309.86,265.954 312.5,265.5 Z"/></g>
<g><path style="opacity:1" fill="#051722" d="M 281.5,294.5 C 288.782,288.899 296.115,283.233 303.5,277.5C 302.859,278.482 302.193,279.482 301.5,280.5C 306.493,281.434 310.826,279.934 314.5,276C 316.025,274.991 317.692,274.491 319.5,274.5C 319.657,275.873 319.49,277.207 319,278.5C 316.833,279.333 315.333,280.833 314.5,283C 310.553,284.085 307.053,285.919 304,288.5C 303.503,290.81 303.337,293.143 303.5,295.5C 299.167,295.5 294.833,295.5 290.5,295.5C 290.762,294.022 290.429,292.689 289.5,291.5C 286.812,292.513 284.146,293.513 281.5,294.5 Z"/></g>
<g><path style="opacity:1" fill="#87b662" d="M 303.5,273.5 C 298.142,278.186 292.475,282.519 286.5,286.5C 286.5,285.167 286.5,283.833 286.5,282.5C 290.461,281.521 293.794,279.521 296.5,276.5C 298.213,274.15 300.547,273.15 303.5,273.5 Z"/></g>
<g><path style="opacity:1" fill="#1d4314" d="M 79.5,271.5 C 80.9238,273.515 81.5905,275.848 81.5,278.5C 80.0762,276.485 79.4095,274.152 79.5,271.5 Z"/></g>
<g><path style="opacity:1" fill="#86c24f" d="M 84.5,279.5 C 85.8277,283.575 87.6611,287.575 90,291.5C 91.0734,295.084 91.7401,298.75 92,302.5C 94.2077,305.533 95.7077,308.866 96.5,312.5C 94.3411,309.319 92.0077,306.319 89.5,303.5C 87.1998,295.633 85.5332,287.633 84.5,279.5 Z"/></g>
<g><path style="opacity:1" fill="#0c2512" d="M 330.5,249.5 C 329.833,251.167 329.167,252.833 328.5,254.5C 320.236,262.427 311.903,270.093 303.5,277.5C 296.115,283.233 288.782,288.899 281.5,294.5C 276.126,298.032 270.46,301.365 264.5,304.5C 263.618,305.76 262.618,306.926 261.5,308C 253.621,310.18 246.287,313.513 239.5,318C 236.937,319.079 234.271,319.579 231.5,319.5C 251.026,310.247 269.36,299.247 286.5,286.5C 292.475,282.519 298.142,278.186 303.5,273.5C 303.5,272.833 303.833,272.5 304.5,272.5C 307.784,270.883 310.451,268.55 312.5,265.5C 318.463,261.205 323.796,256.205 328.5,250.5C 329.167,250.167 329.833,249.833 330.5,249.5 Z"/></g>
<g><path style="opacity:1" fill="#0f310f" d="M 83.5,287.5 C 85.1565,292.726 86.8232,298.059 88.5,303.5C 86.8319,300.917 85.1653,298.25 83.5,295.5C 84.2541,292.922 84.2541,290.256 83.5,287.5 Z"/></g>
<g><path style="opacity:1" fill="#031a18" d="M 83.5,295.5 C 85.1653,298.25 86.8319,300.917 88.5,303.5C 88.5751,306.206 88.9084,308.873 89.5,311.5C 87.282,309.359 84.9486,307.192 82.5,305C 83.6582,303.991 84.3248,302.658 84.5,301C 84.3038,299.122 83.9705,297.288 83.5,295.5 Z"/></g>
<g><path style="opacity:1" fill="#113111" d="M 88.5,303.5 C 88.8333,303.5 89.1667,303.5 89.5,303.5C 90.8333,306.833 92.1667,310.167 93.5,313.5C 92.8826,313.611 92.3826,313.944 92,314.5C 91.7679,313.263 91.2679,312.263 90.5,311.5C 90.1667,311.5 89.8333,311.5 89.5,311.5C 88.9084,308.873 88.5751,306.206 88.5,303.5 Z"/></g>
<g><path style="opacity:1" fill="#88b861" d="M 286.5,286.5 C 269.36,299.247 251.026,310.247 231.5,319.5C 224.537,323.078 217.204,325.745 209.5,327.5C 217.995,323.087 226.661,318.92 235.5,315C 237.349,313.907 239.016,312.574 240.5,311C 248.278,309.9 254.612,306.234 259.5,300C 265.881,296.155 272.548,292.988 279.5,290.5C 279.5,289.5 279.5,288.5 279.5,287.5C 281.861,287.326 284.194,286.993 286.5,286.5 Z"/></g>
<g><path style="opacity:1" fill="#8abc5f" d="M 89.5,303.5 C 92.0077,306.319 94.3411,309.319 96.5,312.5C 98.1002,313.644 99.7669,314.811 101.5,316C 100.549,316.718 100.383,317.551 101,318.5C 102.862,321.167 105.028,323.5 107.5,325.5C 106.167,325.5 104.833,325.5 103.5,325.5C 99.7602,321.767 96.4268,317.767 93.5,313.5C 92.1667,310.167 90.8333,306.833 89.5,303.5 Z"/></g>
<g><path style="opacity:1" fill="#0d2810" d="M 231.5,319.5 C 230.718,321.451 229.384,322.951 227.5,324C 222.482,325.227 217.815,327.227 213.5,330C 206.869,331.825 200.202,333.325 193.5,334.5C 198.823,332.172 204.157,329.839 209.5,327.5C 217.204,325.745 224.537,323.078 231.5,319.5 Z"/></g>
<g><path style="opacity:1" fill="#08210f" d="M 90.5,311.5 C 91.2679,312.263 91.7679,313.263 92,314.5C 92.3826,313.944 92.8826,313.611 93.5,313.5C 96.4268,317.767 99.7602,321.767 103.5,325.5C 105.878,327.878 108.545,329.878 111.5,331.5C 114.161,334.502 117.495,336.502 121.5,337.5C 122.93,338.537 124.597,339.204 126.5,339.5C 128.5,340.5 130.5,341.5 132.5,342.5C 125.035,342.564 118.702,340.064 113.5,335C 108.778,334.606 105.445,332.273 103.5,328C 101.099,327.205 98.9321,326.038 97,324.5C 95.4611,321.275 93.4611,318.275 91,315.5C 90.51,314.207 90.3433,312.873 90.5,311.5 Z"/></g>
<g><path style="opacity:1" fill="#709c55" d="M 103.5,325.5 C 104.833,325.5 106.167,325.5 107.5,325.5C 108.441,327.772 109.774,329.772 111.5,331.5C 108.545,329.878 105.878,327.878 103.5,325.5 Z"/></g>
<g><path style="opacity:1" fill="#88b66b" d="M 209.5,327.5 C 204.157,329.839 198.823,332.172 193.5,334.5C 192.833,334.5 192.167,334.5 191.5,334.5C 191.782,333.222 192.449,332.222 193.5,331.5C 198.884,330.372 204.218,329.039 209.5,327.5 Z"/></g>
<g><path style="opacity:1" fill="#87be56" d="M 193.5,331.5 C 192.449,332.222 191.782,333.222 191.5,334.5C 190.167,334.833 188.833,335.167 187.5,335.5C 184.455,335.508 181.455,335.841 178.5,336.5C 182.973,333.439 187.973,331.773 193.5,331.5 Z"/></g>
<g><path style="opacity:1" fill="#7da960" d="M 111.5,331.5 C 113.604,331.201 115.604,331.534 117.5,332.5C 118.953,334.185 120.286,335.851 121.5,337.5C 117.495,336.502 114.161,334.502 111.5,331.5 Z"/></g>
<g><path style="opacity:1" fill="#87b566" d="M 187.5,335.5 C 170.873,342.487 153.539,344.821 135.5,342.5C 132.916,340.528 129.916,339.528 126.5,339.5C 124.597,339.204 122.93,338.537 121.5,337.5C 127.09,337.732 132.423,338.899 137.5,341C 151.569,342.577 165.236,341.077 178.5,336.5C 181.455,335.841 184.455,335.508 187.5,335.5 Z"/></g>
<g><path style="opacity:1" fill="#5c814a" d="M 126.5,339.5 C 129.916,339.528 132.916,340.528 135.5,342.5C 134.5,342.5 133.5,342.5 132.5,342.5C 130.5,341.5 128.5,340.5 126.5,339.5 Z"/></g>
<g><path style="opacity:1" fill="#0a240e" d="M 191.5,334.5 C 192.167,334.5 192.833,334.5 193.5,334.5C 192.067,335.833 190.733,337.333 189.5,339C 175.813,342.735 161.813,344.902 147.5,345.5C 143.5,345.167 139.5,344.833 135.5,344.5C 134.398,343.824 133.398,343.158 132.5,342.5C 133.5,342.5 134.5,342.5 135.5,342.5C 153.539,344.821 170.873,342.487 187.5,335.5C 188.833,335.167 190.167,334.833 191.5,334.5 Z"/></g>
</svg>
